<?xml version="1.0" encoding="UTF-8" standalone="no"?> <svg width="64" height="64" viewBox="0 0 64 64" fill="none" xmlns="http://www.w3.org/2000/svg">
<path d="M61 21H49V61H61V21Z" fill="#48CAE4"/>
<path d="M55 3H30V9H55V3Z" fill="#48CAE4"/>
<path d="M37 6C36.2044 6 35.4413 5.68393 34.8787 5.12132C34.3161 4.55871 34 3.79565 34 3H30V9H55V6H37Z" fill="#00B4D8"/>
<path d="M49 21H23V61H49V21Z" fill="#0096C7"/>
<path d="M61 33H49V45H61V33Z" fill="#FF7373"/>
<path d="M49 21H23L30 9H55L49 21Z" fill="#48CAE4"/>
<path d="M55 9L49 21H61L55 9Z" fill="#ADE8F4"/>
<path d="M41 17L43 15L36 14L32.328 15.469C31.8572 14.8745 31.5662 14.1578 31.4894 13.4034C31.4125 12.6489 31.5529 11.8883 31.894 11.211L33 9H30L23 21H49C48.0685 19.758 46.8607 18.75 45.4721 18.0557C44.0836 17.3615 42.5525 17 41 17V17Z" fill="#00B4D8"/>
<path d="M36 10C36 8.895 37.791 8 40 8C42.209 8 44 8.895 44 10V14C44 15.105 42.209 16 40 16C37.791 16 36 15.105 36 14V10Z" fill="#E53935"/>
<path d="M40 12C42.2091 12 44 11.1046 44 10C44 8.89543 42.2091 8 40 8C37.7909 8 36 8.89543 36 10C36 11.1046 37.7909 12 40 12Z" fill="#FF7373"/>
<path d="M42 10C39.971 10 38.313 9.242 38.053 8.263C36.834 8.606 36 9.251 36 10C36 11.105 37.791 12 40 12C42.209 12 44 11.105 44 10C43.9938 9.91042 43.9759 9.82202 43.947 9.737C43.3131 9.91322 42.658 10.0017 42 10V10Z" fill="#EF5350"/>
<path d="M23 30H46C47.8565 30 49.637 30.7375 50.9497 32.0503C52.2625 33.363 53 35.1435 53 37V56H24L23 30Z" fill="#EDB88E"/>
<path d="M44 45C41.3478 45 38.8043 43.9464 36.9289 42.0711C35.0536 40.1957 34 37.6522 34 35C34 33.6739 33.4732 32.4021 32.5355 31.4645C31.5979 30.5268 30.3261 30 29 30H23L24 56H53V45H44Z" fill="#DA9367"/>
<path d="M28 56V46.84C27.997 46.3067 28.108 45.7789 28.3257 45.292C28.5433 44.8051 28.8626 44.3704 29.262 44.017C30.7575 42.7128 31.7146 40.899 31.947 38.9283C32.1794 36.9577 31.6706 34.971 30.5194 33.3547C29.3683 31.7384 27.6572 30.608 25.7188 30.1833C23.7805 29.7586 21.7535 30.07 20.032 31.057C19.4153 31.417 18.7141 31.6068 18 31.6068C17.2859 31.6068 16.5847 31.417 15.968 31.057C14.2465 30.07 12.2195 29.7586 10.2812 30.1833C8.34281 30.608 6.63169 31.7384 5.48056 33.3547C4.32944 34.971 3.8206 36.9577 4.05301 38.9283C4.28542 40.899 5.24245 42.7128 6.738 44.017C7.13742 44.3704 7.45667 44.8051 7.67433 45.292C7.89199 45.7789 8.00303 46.3067 8 46.84V56H28Z" fill="#F9DBAF"/>
<path d="M24 56V46.84C23.9966 45.736 24.2295 44.6441 24.6832 43.6377C25.1368 42.6313 25.8006 41.7336 26.63 41.005C27.1488 40.5566 27.5426 39.9815 27.7732 39.3358C28.0039 38.69 28.0634 37.9956 27.946 37.32C27.8004 36.492 27.3989 35.7304 26.798 35.1424C26.1971 34.5544 25.427 34.1696 24.596 34.042C24.3985 34.0143 24.1994 34.0002 24 34C23.3078 33.9971 22.6272 34.1783 22.028 34.525C20.8041 35.2331 19.415 35.606 18.001 35.606C16.587 35.606 15.1979 35.2331 13.974 34.525C13.3742 34.1779 12.6929 33.9967 12 34C11.7993 34.0001 11.5988 34.0141 11.4 34.042C10.5697 34.1703 9.80053 34.5555 9.2004 35.1435C8.60028 35.7314 8.19937 36.4925 8.054 37.32C7.93731 37.9947 7.99707 38.6881 8.22748 39.3329C8.4579 39.9777 8.85113 40.552 9.369 41C10.1991 41.7291 10.8635 42.6275 11.3173 43.6349C11.7711 44.6422 12.0039 45.7351 12 46.84V56H24Z" fill="#EDB88E"/>
<path d="M28.48 45C28.1608 45.5604 27.9952 46.1951 28 46.84V56H8V46.84C8.00305 46.3073 7.8922 45.7801 7.67489 45.2938C7.45758 44.8074 7.13884 44.3731 6.74 44.02C5.58516 43.0152 4.7432 41.6998 4.31425 40.2303C3.8853 38.7608 3.88741 37.199 4.32032 35.7307C4.75323 34.2624 5.59874 32.9493 6.75629 31.9475C7.91384 30.9458 9.33474 30.2976 10.85 30.08C11.2312 30.0288 11.6154 30.0021 12 30V35C12 37.6522 13.0536 40.1957 14.9289 42.0711C16.8043 43.9464 19.3478 45 22 45H28.48Z" fill="#EDB88E"/>
<path d="M24.22 45C24.0718 45.602 23.9979 46.22 24 46.84V56H12V46.84C12.0032 45.7353 11.7702 44.6428 11.3166 43.6355C10.863 42.6283 10.1993 41.7297 9.37 41C8.85085 40.5529 8.45638 39.9789 8.22505 39.3339C7.99372 38.689 7.93341 37.9952 8.05 37.32C8.20409 36.3864 8.6869 35.5386 9.41127 34.9298C10.1356 34.321 11.0538 33.9912 12 34V35C12 37.6522 13.0536 40.1957 14.9289 42.0711C16.8043 43.9464 19.3478 45 22 45H24.22Z" fill="#DA9367"/>
<path d="M14 40C14.5523 40 15 39.5523 15 39C15 38.4477 14.5523 38 14 38C13.4477 38 13 38.4477 13 39C13 39.5523 13.4477 40 14 40Z" fill="#DA9367"/>
<path d="M17 43C17.5523 43 18 42.5523 18 42C18 41.4477 17.5523 41 17 41C16.4477 41 16 41.4477 16 42C16 42.5523 16.4477 43 17 43Z" fill="#DA9367"/>
<path d="M16 47C16.5523 47 17 46.5523 17 46C17 45.4477 16.5523 45 16 45C15.4477 45 15 45.4477 15 46C15 46.5523 15.4477 47 16 47Z" fill="#C1815D"/>
<path d="M21 40C21.5523 40 22 39.5523 22 39C22 38.4477 21.5523 38 21 38C20.4477 38 20 38.4477 20 39C20 39.5523 20.4477 40 21 40Z" fill="#DA9367"/>
<path d="M20 49C20.5523 49 21 48.5523 21 48C21 47.4477 20.5523 47 20 47C19.4477 47 19 47.4477 19 48C19 48.5523 19.4477 49 20 49Z" fill="#C1815D"/>
<path d="M38 36V37C38 37.2652 37.8946 37.5196 37.7071 37.7071C37.5196 37.8946 37.2652 38 37 38C36.7348 38 36.4804 37.8946 36.2929 37.7071C36.1054 37.5196 36 37.2652 36 37V36C36 34.4087 35.3679 32.8826 34.2426 31.7574C33.1174 30.6321 31.5913 30 30 30H35.28C36.1351 30.7482 36.8202 31.6707 37.2894 32.7056C37.7585 33.7405 38.0008 34.8638 38 36V36Z" fill="#C1815D"/>
<path d="M44 36V37C44 37.2652 43.8946 37.5196 43.7071 37.7071C43.5196 37.8946 43.2652 38 43 38C42.7348 38 42.4804 37.8946 42.2929 37.7071C42.1054 37.5196 42 37.2652 42 37V36C42 34.4087 41.3679 32.8826 40.2426 31.7574C39.1174 30.6321 37.5913 30 36 30H41.28L41.29 30.01C42.141 30.7589 42.8228 31.6803 43.2901 32.7132C43.7574 33.746 43.9994 34.8664 44 36V36Z" fill="#C1815D"/>
<path d="M49 36V37C49 37.2652 48.8946 37.5196 48.7071 37.7071C48.5196 37.8947 48.2652 38 48 38C47.7348 38 47.4804 37.8947 47.2929 37.7071C47.1054 37.5196 47 37.2652 47 37V36C46.9992 34.4594 46.4059 32.9782 45.3429 31.8631C44.28 30.748 42.8288 30.0845 41.29 30.01C41.1936 30.0015 41.0968 29.9982 41 30H46C46.1004 29.9967 46.2009 30.0034 46.3 30.02C47.1494 30.7675 47.8297 31.6875 48.2952 32.7187C48.7608 33.7499 49.0011 34.8686 49 36V36Z" fill="#C1815D"/>
<path d="M57 56V52C57 51.2044 56.6839 50.4413 56.1213 49.8787C55.5587 49.3161 54.7956 49 54 49C53.2044 49 52.4413 49.3161 51.8787 49.8787C51.3161 50.4413 51 51.2044 51 52C51 51.2044 50.6839 50.4413 50.1213 49.8787C49.5587 49.3161 48.7956 49 48 49C47.2044 49 46.4413 49.3161 45.8787 49.8787C45.3161 50.4413 45 51.2044 45 52C45 51.2044 44.6839 50.4413 44.1213 49.8787C43.5587 49.3161 42.7956 49 42 49C41.2044 49 40.4413 49.3161 39.8787 49.8787C39.3161 50.4413 39 51.2044 39 52C39 51.2044 38.6839 50.4413 38.1213 49.8787C37.5587 49.3161 36.7956 49 36 49C35.2044 49 34.4413 49.3161 33.8787 49.8787C33.3161 50.4413 33 51.2044 33 52C33 51.2044 32.6839 50.4413 32.1213 49.8787C31.5587 49.3161 30.7956 49 30 49C29.2044 49 28.4413 49.3161 27.8787 49.8787C27.3161 50.4413 27 51.2044 27 52C27 51.2044 26.6839 50.4413 26.1213 49.8787C25.5587 49.3161 24.7956 49 24 49C23.2044 49 22.4413 49.3161 21.8787 49.8787C21.3161 50.4413 21 51.2044 21 52C21 51.2044 20.6839 50.4413 20.1213 49.8787C19.5587 49.3161 18.7956 49 18 49C17.2044 49 16.4413 49.3161 15.8787 49.8787C15.3161 50.4413 15 51.2044 15 52C15 51.2044 14.6839 50.4413 14.1213 49.8787C13.5587 49.3161 12.7956 49 12 49C11.2044 49 10.4413 49.3161 9.87868 49.8787C9.31607 50.4413 9 51.2044 9 52C9 51.2044 8.68393 50.4413 8.12132 49.8787C7.55871 49.3161 6.79565 49 6 49C5.20435 49 4.44129 49.3161 3.87868 49.8787C3.31607 50.4413 3 51.2044 3 52V56H57Z" fill="#E9F1F2"/>
<path d="M3 56L9 61H51L57 56H3Z" fill="#B8BEBF"/>
<path d="M53 54V52C53.0011 51.3814 53.1941 50.7784 53.5523 50.274C53.9105 49.7697 54.4163 49.3888 55 49.184C54.6798 49.0655 54.3414 49.0032 54 49C53.2044 49 52.4413 49.3161 51.8787 49.8787C51.3161 50.4413 51 51.2044 51 52V54H47V52C47.0011 51.3814 47.1941 50.7784 47.5523 50.274C47.9105 49.7697 48.4163 49.3888 49 49.184C48.6798 49.0655 48.3414 49.0032 48 49C47.2044 49 46.4413 49.3161 45.8787 49.8787C45.3161 50.4413 45 51.2044 45 52V54H41V52C41.0011 51.3814 41.1941 50.7784 41.5523 50.274C41.9105 49.7697 42.4163 49.3888 43 49.184C42.6798 49.0655 42.3414 49.0032 42 49C41.2044 49 40.4413 49.3161 39.8787 49.8787C39.3161 50.4413 39 51.2044 39 52V54H35V52C35.0011 51.3814 35.1941 50.7784 35.5523 50.274C35.9105 49.7697 36.4163 49.3888 37 49.184C36.6798 49.0655 36.3414 49.0032 36 49C35.2044 49 34.4413 49.3161 33.8787 49.8787C33.3161 50.4413 33 51.2044 33 52V54H29V52C29.0011 51.3814 29.1941 50.7784 29.5523 50.274C29.9105 49.7697 30.4163 49.3888 31 49.184C30.6798 49.0655 30.3414 49.0032 30 49C29.2044 49 28.4413 49.3161 27.8787 49.8787C27.3161 50.4413 27 51.2044 27 52V54H23V52C23.0011 51.3814 23.1941 50.7784 23.5523 50.274C23.9105 49.7697 24.4163 49.3888 25 49.184C24.6798 49.0655 24.3414 49.0032 24 49C23.2044 49 22.4413 49.3161 21.8787 49.8787C21.3161 50.4413 21 51.2044 21 52V54H17V52C17.0011 51.3814 17.1941 50.7784 17.5523 50.274C17.9105 49.7697 18.4163 49.3888 19 49.184C18.6798 49.0655 18.3414 49.0032 18 49C17.2044 49 16.4413 49.3161 15.8787 49.8787C15.3161 50.4413 15 51.2044 15 52V54H11V52C11.0011 51.3814 11.1941 50.7784 11.5523 50.274C11.9105 49.7697 12.4163 49.3888 13 49.184C12.6798 49.0655 12.3414 49.0032 12 49C11.2044 49 10.4413 49.3161 9.87868 49.8787C9.31607 50.4413 9 51.2044 9 52V54H5V52C5.00111 51.3814 5.19406 50.7784 5.55226 50.274C5.91046 49.7697 6.41628 49.3888 7 49.184C6.67976 49.0655 6.34145 49.0032 6 49C5.20435 49 4.44129 49.3161 3.87868 49.8787C3.31607 50.4413 3 51.2044 3 52V56H57V54H53Z" fill="#D0D8DA"/>
</svg>
