<?xml version="1.0" encoding="UTF-8" standalone="no"?> <svg xmlns="http://www.w3.org/2000/svg" viewBox="0 0 512 512"><defs><style>.cls-1{font-size:64px;font-family:MyriadPro-Regular, Myriad Pro;}.cls-2{letter-spacing:-0.08em;}.cls-3{letter-spacing:-0.06em;}.cls-4{fill:#388e3c;}.cls-5{fill:#e0e0e0;}.cls-6{fill:#9e9e9e;}.cls-7{fill:#ef5350;}.cls-8{fill:#f9a825;}.cls-9{fill:#eee;}.cls-10{fill:#aeaeae;}.cls-11{fill:#8e8e8e;}.cls-12{fill:#c88719;}.cls-13{fill:#ffe97d;}.cls-14{fill:#efefef;}.cls-15{fill:#c62828;}.cls-16{fill:#ff5f52;}.cls-17{fill:#ffe0b2;}.cls-18{fill:#00701a;}.cls-19{fill:#76d275;}</style></defs><g id="text"><text class="cls-1" transform="translate(27.33 565.44)">BREAK<tspan class="cls-2" x="174.46" y="0">F</tspan><tspan x="200.64" y="0">AS</tspan><tspan class="cls-3" x="271.36" y="0">T</tspan><tspan x="299.33" y="0">, DISH</tspan></text></g><g id="flat_copy" data-name="flat copy"><circle class="cls-4" cx="288" cy="360" r="16"/><path class="cls-5" d="M292.53,436.37a185.47,185.47,0,0,1-78.61-1.21l18.85-15.42-31.07-38A132.3,132.3,0,0,1,172,289.48a196.26,196.26,0,0,0-42.72-135.14l-13.74-17.18a184,184,0,1,1,177,299.21ZM416,204A100,100,0,1,0,316,304,100,100,0,0,0,416,204ZM304,360a16,16,0,1,0-16,16A16,16,0,0,0,304,360Z"/><path class="cls-6" d="M292.53,436.37a184,184,0,1,0-177-299.21L105,124,80,144,55,164l24.27,30.33c.78,1,1.54,2,2.29,3h0q1.44,1.89,2.79,3.83l-2.25,1.09-.47-1L52.82,215.14,25.64,228.25C39.36,113.2,137.26,24,256,24c128.13,0,232,103.87,232,232S384.13,488,256,488,24,384.13,24,256a233,233,0,0,1,1.27-24.34L40.88,264a196.31,196.31,0,0,0,72.59,81.14,196.34,196.34,0,0,0,38.7,77.13l31.06,38L208,440l5.91-4.84h0a185.47,185.47,0,0,0,78.61,1.21Z"/><path class="cls-7" d="M201.7,381.77l31.07,38-18.85,15.42h0L208,440l-31.06-38a164.67,164.67,0,0,1-37.23-104.28q0-5.13.32-10.27a164.64,164.64,0,0,0-35.76-113.15L80,144l25-20,10.52,13.15,13.74,17.18A196.26,196.26,0,0,1,172,289.48,132.3,132.3,0,0,0,201.7,381.77Z"/><circle class="cls-8" cx="328" cy="208" r="40"/><path class="cls-9" d="M316,104A100,100,0,1,1,216,204,100,100,0,0,1,316,104Zm52,104a40,40,0,1,0-40,40A40,40,0,0,0,368,208Z"/><path class="cls-10" d="M80.73,416a8,8,0,0,1-6-2.76A239.87,239.87,0,0,1,16,256a242.77,242.77,0,0,1,1.31-25.18c.11-1,.23-2.17.36-3.29l0-.19C32.06,106.84,134.51,16,256,16a239.73,239.73,0,0,1,194.46,99.31,8,8,0,1,1-13,9.38A223.69,223.69,0,0,0,256,32C142.61,32,47,116.78,33.58,229.2v.14c-.12,1-.24,2.06-.34,3.09A226.33,226.33,0,0,0,32,256,223.88,223.88,0,0,0,86.77,402.76a8,8,0,0,1-6,13.24Z"/><path class="cls-11" d="M256,496A240,240,0,0,1,74.68,413.24a8,8,0,0,1,12.09-10.48A224,224,0,0,0,437.5,124.69a8,8,0,1,1,13-9.38A240,240,0,0,1,256,496Z"/><path class="cls-10" d="M242.68,280a8,8,0,0,1-5.87-2.56A108,108,0,1,1,398.08,133.8a8,8,0,0,1-12.16,10.41A92,92,0,1,0,248.54,266.56,8,8,0,0,1,242.68,280Z"/><path class="cls-11" d="M316,312a108.37,108.37,0,0,1-79.19-34.56,8,8,0,0,1,11.73-10.88A92,92,0,0,0,385.92,144.21a8,8,0,0,1,12.16-10.41A108,108,0,0,1,316,312Z"/><path class="cls-12" d="M328,256a47.62,47.62,0,0,1-28.81-9.6,8,8,0,0,1,9.61-12.8A31.69,31.69,0,0,0,328,240a32,32,0,0,0,32-32,31.7,31.7,0,0,0-6.39-19.19,8,8,0,1,1,12.79-9.62A48,48,0,0,1,328,256Z"/><path class="cls-13" d="M304,248a8,8,0,0,1-4.8-1.6,48,48,0,1,1,67.21-67.2,8,8,0,1,1-12.79,9.6,32,32,0,1,0-44.81,44.8A8,8,0,0,1,304,248Z"/><path class="cls-14" d="M256,448A192.74,192.74,0,0,1,212.09,443a8,8,0,0,1,3.66-15.58A176,176,0,0,0,432,256a174.27,174.27,0,0,0-17.46-76.52,8,8,0,0,1,14.41-7A190.22,190.22,0,0,1,448,256,191.83,191.83,0,0,1,256,448Z"/><path class="cls-11" d="M421.75,184a8,8,0,0,1-7.21-4.52,176.06,176.06,0,0,0-292.93-37.15A8,8,0,0,1,109.41,132,192,192,0,0,1,429,172.52a8,8,0,0,1-7.2,11.48Z"/><path class="cls-15" d="M315.35,462.51,289,443.67c-.37-.26-.78-.55-1.18-.86a257.53,257.53,0,0,1-103.7-169.59l15.82-2.44a241.57,241.57,0,0,0,97.3,159.11l.13.08.88.65,26.43,18.87Z"/><path class="cls-15" d="M213.92,443.16A8,8,0,0,1,208.85,429l18.85-15.42a8,8,0,1,1,10.13,12.38L219,441.35A8,8,0,0,1,213.92,443.16Z"/><path class="cls-15" d="M226.58,424.81l-31.07-38A140.25,140.25,0,0,1,164,289a188.28,188.28,0,0,0-41-129.64L98.74,129l12.5-10,24.26,30.33A204.25,204.25,0,0,1,180,290a124.34,124.34,0,0,0,27.94,86.72l31.07,38Z"/><path class="cls-15" d="M80,152a8,8,0,0,1-5-14.25l25-20a8,8,0,0,1,10,12.5l-25,20A8,8,0,0,1,80,152Z"/><path class="cls-16" d="M208,448a8,8,0,0,1-6.19-2.93l-31.06-38a173.11,173.11,0,0,1-39-109.35c0-3.5.11-7.12.33-10.76A156.28,156.28,0,0,0,98,179.33L73.75,149a8,8,0,0,1,12.5-10l24.27,30.33A172.3,172.3,0,0,1,148,288c-.2,3.3-.3,6.59-.3,9.77A157.06,157.06,0,0,0,183.13,397l31.06,38A8,8,0,0,1,208,448Z"/><path class="cls-7" d="M107.73,300.86l1,0c-.25,13.53-.13,27.41,3.69,43.6A196.25,196.25,0,0,1,40.88,264L25.27,231.66,24,229l1.64-.79,27.18-13.11,16.88,35A164.71,164.71,0,0,0,107.73,300.86Z"/><path class="cls-17" d="M104.91,247.91c5,19.7,4.11,36.07,3.79,53l-1,0a164.71,164.71,0,0,1-38-50.74l-16.88-35,28.82-13.91.47,1,16.41,34A133.16,133.16,0,0,0,104.91,247.91Z"/><path class="cls-15" d="M109.16,351.91l-.33-.21-.8-.51a204.29,204.29,0,0,1-74.35-83.68L13.3,225.31l36-17.38,7,14.42L34.69,232.77l13.4,27.78a188.21,188.21,0,0,0,68.59,77.18l.15.09c.17.12.35.23.53.34l.42.27Z"/><path class="cls-13" d="M105.19,256.35a8,8,0,0,1-6.87-3.89l-.27-.44a140.18,140.18,0,0,1-6.74-12.32l-13.4-27.79L56.3,222.34a8,8,0,1,1-7-14.4L78.16,194a8,8,0,0,1,10.68,3.71l.47,1,16.42,34a122.71,122.71,0,0,0,6,11l.31.51a8,8,0,0,1-6.85,12.11Z"/><path class="cls-12" d="M107.73,308.86a8,8,0,0,1-5.36-2.06A171.67,171.67,0,0,1,62.5,253.6l-16.88-35a8,8,0,0,1,14.41-7l16.88,35a155.76,155.76,0,0,0,36.18,48.28,8,8,0,0,1-5.36,13.94Z"/><path class="cls-18" d="M288,384a24.1,24.1,0,0,1-20.79-12,8,8,0,1,1,13.85-8A8,8,0,1,0,292,353.06a8,8,0,1,1,8-13.85A24,24,0,0,1,288,384Z"/><path class="cls-19" d="M274.15,376a8,8,0,0,1-6.94-4A24,24,0,0,1,300,339.21a8,8,0,0,1-8,13.85,7.91,7.91,0,0,0-4-1.06,8,8,0,0,0-6.94,12,8,8,0,0,1-6.91,12Z"/><path class="cls-18" d="M352,408a8,8,0,0,1-8-8v-4.78a114.38,114.38,0,0,1,14.8-56.31A114.31,114.31,0,0,1,387,305.75a8,8,0,1,1,10,12.5,98.8,98.8,0,0,0-35.22,58.3A99.39,99.39,0,0,0,360,395.22V400A8,8,0,0,1,352,408Z"/><path class="cls-18" d="M360,352a8,8,0,0,1-7.59-5.47l-8-24a8,8,0,1,1,15.18-5.06l5.77,17.3,33.07-6.61a8,8,0,1,1,3.14,15.68l-40,8A8.32,8.32,0,0,1,360,352Z"/><path class="cls-18" d="M352,384a8,8,0,0,1-5.66-2.34l-16-16a8,8,0,0,1,11.32-11.32l11.92,11.92,26.84-13.42a8,8,0,0,1,7.16,14.32l-32,16A8,8,0,0,1,352,384Z"/><path class="cls-17" d="M176.94,402,208,440l-24.77,20.26c-131.14-148.36-33.85-158-101.66-263h0C81.19,196.63,56,165.19,55,164l25-20C188.9,264.67,100.35,307.94,176.94,402Z"/><path class="cls-12" d="M183.23,468.26a8,8,0,0,1-6-2.7C122.79,404,109.71,368,104.6,346.31c-4.06-17.2-4.15-31.95-3.9-45.58,0-1.53.06-3.06.1-4.59.33-15.11.65-29.39-3.64-46.26-3.6-14.16-10.13-28.75-20-44.6-.73-1.16-1.48-2.34-2.24-3.52-1.76-2.28-14.45-18.13-20.65-25.87-3.08-3.83-5.31-6.62-5.58-7A8,8,0,0,1,50,157.74l25-20a8,8,0,0,1,10.94.89c61.26,67.89,62.11,113.69,62.86,154.11.63,34.06,1.17,63.48,34.34,104.23l31.05,37.95a8,8,0,0,1-1.12,11.26L188.3,466.45A8,8,0,0,1,183.23,468.26ZM88.45,193.18c.79,1.23,1.56,2.44,2.31,3.65h0c10.74,17.26,17.9,33.33,21.9,49.1,4.83,19,4.48,35,4.13,50.56L116.7,301c-.24,13.13-.16,26.2,3.48,41.61,7.16,30.43,27.54,64.41,64,106.53l12.58-10.3-26-31.77C134.08,362.05,133.43,327,132.8,293c-.71-38.26-1.44-77.8-53.74-138L66.25,165.24l.52.65C87.85,192.19,88,192.44,88.45,193.18Z"/></g></svg>