<?xml version="1.0" encoding="UTF-8"?>
<!DOCTYPE svg PUBLIC "-//W3C//DTD SVG 1.1//EN" "http://www.w3.org/Graphics/SVG/1.1/DTD/svg11.dtd">
<!-- Creator: CorelDRAW -->
<svg xmlns="http://www.w3.org/2000/svg" xml:space="preserve" width="512px" height="512px" version="1.1" style="shape-rendering:geometricPrecision; text-rendering:geometricPrecision; image-rendering:optimizeQuality; fill-rule:evenodd; clip-rule:evenodd"
viewBox="0 0 512 512"
 xmlns:xlink="http://www.w3.org/1999/xlink">
 <defs>
  <style type="text/css">
   <![CDATA[
    .fil0 {fill:#52050D}
    .fil1 {fill:orangered}
    .fil2 {fill:#FFD300}
   ]]>
  </style>
 </defs>
 <g id="Layer_x0020_1">
  <metadata id="CorelCorpID_0Corel-Layer"/>
  <path class="fil0" d="M218 480l-25 -15 -34 16c-2,1 -4,1 -6,0l-34 -16 -19 12 0 21 310 0 0 -20 -26 -13 -26 16c-2,1 -5,1 -7,0l-26 -16 -34 16c-2,1 -4,1 -6,0l-33 -16 -26 16c-3,1 -6,1 -8,-1zm17 -208l-18 0 -4 11c-1,3 -4,5 -7,5 -1,0 -2,0 -2,0 -4,-2 -6,-6 -5,-10l6 -14c0,-1 0,-3 1,-4l10 -25c1,-3 4,-4 7,-4l5 0c3,0 6,1 7,4 6,15 12,28 18,43 2,3 -1,7 -4,9 -4,2 -8,0 -10,-4l-4 -11zm-12 -15l6 0 -3 -7 -3 7zm113 -12l17 -13c3,-3 8,-2 10,1 3,4 2,8 -1,11l-22 16 21 15c3,3 4,7 2,10 -1,2 -4,3 -6,3 -2,0 -3,0 -4,-1l-17 -13 0 6c-1,5 -3,8 -8,8 -4,0 -7,-3 -7,-8l0 -42c0,-4 3,-8 7,-8 5,0 8,4 8,8l0 7zm-153 43c-3,0 -5,-1 -6,-3l-15 -23 0 18c0,5 -4,8 -8,8 -4,0 -7,-3 -7,-8l0 -42c0,-4 2,-6 5,-7 3,-1 6,0 8,3l15 22 0 -18c0,-4 3,-8 7,-8 5,0 8,4 8,8l0 42c0,4 -2,7 -6,8 0,0 -1,0 -1,0zm-71 4c-4,0 -8,0 -11,-2 -4,-1 -7,-4 -9,-7 -2,-4 -1,-8 3,-10 3,-2 7,-1 9,3 1,0 1,1 2,1 2,1 4,1 6,1 2,0 3,0 5,-1 1,0 2,-1 2,-1 1,-1 1,-1 1,-2 0,-4 -8,-5 -11,-6 -3,0 -7,-1 -10,-3 -3,-1 -5,-4 -7,-6 -3,-3 -3,-7 -3,-10 0,-3 1,-7 3,-10 2,-2 5,-5 8,-6 4,-2 8,-2 11,-2 3,0 7,1 10,2 5,1 8,4 10,8 2,3 0,8 -3,10 -7,3 -9,-3 -12,-5 -2,0 -4,0 -6,0 -2,0 -5,0 -7,2 -4,4 6,6 9,7 2,0 4,1 7,2 1,0 2,1 4,1 3,2 6,4 8,7 2,3 2,7 2,9 0,4 -1,7 -2,10 -2,4 -5,6 -9,7 -3,1 -7,1 -10,1zm173 -4c-6,0 -11,-1 -15,-3 -4,-3 -7,-7 -9,-12 -2,-4 -3,-9 -3,-14 0,-5 1,-10 3,-15 2,-4 6,-8 11,-10 4,-2 9,-4 14,-4 6,0 11,2 15,5 3,3 3,7 0,11 -2,3 -7,3 -10,0 0,0 -2,-2 -6,-2 -2,0 -5,1 -7,2 -1,1 -3,3 -4,4 0,0 0,1 0,1 -1,2 -2,5 -2,7 0,3 1,6 2,9 1,3 3,4 4,5 1,1 4,1 7,1 3,0 5,0 7,-2 3,-2 8,-2 10,2 3,3 2,7 -1,10 -4,4 -10,5 -16,5zm113 0c-5,0 -9,0 -12,-2 -1,0 -1,0 -1,0 -4,-2 -7,-4 -9,-8 -3,-3 -2,-7 1,-10 4,-2 8,-1 10,2 1,1 2,2 3,3 2,0 4,0 7,0 2,0 4,0 6,0 1,-1 1,-2 2,-2 0,-1 1,-2 1,-3 0,-1 -1,-2 -1,-2 -7,-7 -20,-1 -29,-14 -2,-3 -3,-6 -3,-10 0,-4 1,-7 3,-10 0,-1 0,-1 0,-2 2,-2 5,-5 9,-6 3,-2 7,-3 11,-3 4,0 9,1 12,3 4,1 7,4 9,8 3,3 2,7 -2,9 -3,3 -8,2 -10,-2 -1,-3 -7,-4 -10,-4 -4,0 -8,3 -8,7 0,1 0,2 1,2 0,1 1,2 2,2 1,0 4,1 8,3 5,0 9,2 12,3 3,1 5,3 8,6 2,3 3,7 3,11 0,13 -12,19 -23,19zm30 94l-348 0c3,28 8,55 15,79l19 -11c2,-1 4,-2 7,0l34 16 34 -16c2,-2 5,-1 7,0l25 16 25 -16c2,-1 5,-1 7,0l34 16 34 -16c2,-2 5,-1 7,0l26 16 25 -16c2,-1 4,-1 7,0l27 13c8,-25 13,-52 15,-81zm-327 -339c-1,-5 0,-28 0,-36 0,-4 3,-7 8,-7l293 0c4,0 8,3 8,7l0 43c22,90 34,198 34,303 0,41 -5,82 -19,122l0 30c0,4 -3,7 -7,7l-326 0c-5,0 -8,-3 -8,-7 0,-9 -1,-25 0,-34 -42,-124 -10,-314 17,-428zm-22 324l350 0c5,-74 -4,-154 -15,-219l-320 0c-10,65 -19,145 -15,219zm18 -234l315 0c-6,-33 -12,-61 -17,-80l1 -1 -23 13c-3,1 -6,1 -8,-1l-22 -14 -22 14c-2,2 -5,2 -8,1l-29 -16 -30 16c-3,1 -6,1 -8,-1l-22 -14 -21 14c-2,2 -5,2 -7,1l-30 -16 -30 16c-3,1 -5,1 -7,-1l-16 -10c-4,19 -10,47 -16,79zm250 -98l23 15 25 -14 0 -21 -279 0 0 23 17 12 29 -16c2,-1 5,-1 7,0l29 16 23 -15c2,-2 6,-2 8,0l23 15 29 -16c2,-1 4,-1 7,0l29 16 22 -15c3,-2 6,-2 8,0z"/>
  <path class="fil1" d="M79 367l350 0c5,-74 -4,-154 -15,-219l-320 0c-10,65 -19,145 -15,219zm174 -89c2,3 -1,7 -4,9 -4,2 -8,0 -10,-4l-4 -11 -18 0 -4 11c-1,3 -4,5 -7,5 -1,0 -2,0 -2,0 -4,-2 -6,-6 -5,-10l6 -14c0,-1 0,-3 1,-4l10 -25c1,-3 4,-4 7,-4l5 0c3,0 6,1 7,4l18 43zm100 9l-17 -13 0 6c-1,5 -3,8 -8,8 -4,0 -7,-3 -7,-8l0 -42c0,-4 3,-8 7,-8 5,0 8,4 8,8l0 7 17 -13c3,-3 8,-2 10,1 3,4 2,8 -1,11l-22 16 21 15c3,3 4,7 2,10 -1,2 -4,3 -6,3 -2,0 -3,0 -4,-1zm-169 1c0,0 -1,0 -1,0 -3,0 -5,-1 -6,-3l-15 -23 0 18c0,5 -4,8 -8,8 -4,0 -7,-3 -7,-8l0 -42c0,-4 2,-6 5,-7 3,-1 6,0 8,3l15 22 0 -18c0,-4 3,-8 7,-8 5,0 8,4 8,8l0 42c0,4 -2,7 -6,8zm-62 3c-3,1 -7,1 -10,1 -4,0 -8,0 -11,-2 -4,-1 -7,-4 -9,-7 -2,-4 -1,-8 3,-10 3,-2 7,-1 9,3 1,0 1,1 2,1 2,1 4,1 6,1 2,0 3,0 5,-1 1,0 2,-1 2,-1 1,-1 1,-1 1,-2 0,-4 -8,-5 -11,-6 -3,0 -7,-1 -10,-3 -3,-1 -5,-4 -7,-6 -3,-3 -3,-7 -3,-10 0,-3 1,-7 3,-10 2,-2 5,-5 8,-6 4,-2 8,-2 11,-2 3,0 7,1 10,2 5,1 8,4 10,8 2,3 0,8 -3,10 -7,3 -9,-3 -12,-5 -2,0 -4,0 -6,0 -2,0 -5,0 -7,2 -4,4 6,6 9,7 2,0 4,1 7,2 1,0 2,1 4,1 3,2 6,4 8,7 2,3 2,7 2,9 0,4 -1,7 -2,10 -2,4 -5,6 -9,7zm163 -3c-6,0 -11,-1 -15,-3 -4,-3 -7,-7 -9,-12 -2,-4 -3,-9 -3,-14 0,-5 1,-10 3,-15 2,-4 6,-8 11,-10 4,-2 9,-4 14,-4 6,0 11,2 15,5 3,3 3,7 0,11 -2,3 -7,3 -10,0 0,0 -2,-2 -6,-2 -2,0 -5,1 -7,2 -1,1 -3,3 -4,4 0,0 0,1 0,1 -1,2 -2,5 -2,7 0,3 1,6 2,9 1,3 3,4 4,5 1,1 4,1 7,1 3,0 5,0 7,-2 3,-2 8,-2 10,2 3,3 2,7 -1,10 -4,4 -10,5 -16,5zm113 0c-5,0 -9,0 -12,-2 -1,0 -1,0 -1,0 -4,-2 -7,-4 -9,-8 -3,-3 -2,-7 1,-10 4,-2 8,-1 10,2 1,1 2,2 3,3 2,0 4,0 7,0 2,0 4,0 6,0 1,-1 1,-2 2,-2 0,-1 1,-2 1,-3 0,-1 -1,-2 -1,-2 -7,-7 -20,-1 -29,-14 -2,-3 -3,-6 -3,-10 0,-4 1,-7 3,-10 0,-1 0,-1 0,-2 2,-2 5,-5 9,-6 3,-2 7,-3 11,-3 4,0 9,1 12,3 4,1 7,4 9,8 3,3 2,7 -2,9 -3,3 -8,2 -10,-2 -1,-3 -7,-4 -10,-4 -4,0 -8,3 -8,7 0,1 0,2 1,2 0,1 1,2 2,2 1,0 4,1 8,3 5,0 9,2 12,3 3,1 5,3 8,6 2,3 3,7 3,11 0,13 -12,19 -23,19z"/>
  <polygon class="fil1" points="223,257 229,257 226,250 "/>
  <path class="fil1" d="M97 133l315 0c-6,-33 -12,-61 -17,-80l-22 12c-3,1 -6,1 -8,-1l-22 -14 -22 14c-2,2 -5,2 -8,1l-29 -16 -30 16c-3,1 -6,1 -8,-1l-22 -14 -21 14c-2,2 -5,2 -7,1l-30 -16 -30 16c-3,1 -5,1 -7,-1l-16 -10c-4,19 -10,47 -16,79z"/>
  <path class="fil2" d="M288 34l29 16 22 -15c3,-2 6,-2 8,0l23 15 25 -14 0 -21 -279 0 0 23 17 12 29 -16c2,-1 5,-1 7,0l29 16 23 -15c2,-2 6,-2 8,0l23 15 29 -16c2,-1 4,-1 7,0z"/>
  <path class="fil1" d="M428 382l-348 0c3,28 8,55 15,79l19 -11c2,-1 4,-2 7,0l34 16 34 -16c2,-2 5,-1 7,0l25 16 25 -16c2,-1 5,-1 7,0l34 16 34 -16c2,-2 5,-1 7,0l26 16 25 -16c2,-1 4,-1 7,0l27 13c8,-25 13,-52 15,-81z"/>
  <path class="fil2" d="M351 481l-26 -16 -34 16c-2,1 -4,1 -6,0l-33 -16 -26 16c-3,1 -6,1 -8,-1l-25 -15 -34 16c-2,1 -4,1 -6,0l-34 -16 -19 12 0 21 310 0 0 -20 -26 -13 -26 16c-2,1 -5,1 -7,0z"/>
 </g>
</svg>
