<?xml version="1.0" encoding="iso-8859-1"?>
<!-- Uploaded to: SVG Repo, www.svgrepo.com, Generator: SVG Repo Mixer Tools -->
<svg fill="#000000" height="800px" width="800px" version="1.1" id="Layer_1" xmlns="http://www.w3.org/2000/svg" xmlns:xlink="http://www.w3.org/1999/xlink" 
	 viewBox="0 0 512.091 512.091" xml:space="preserve">
<g>
	<g>
		<g>
			<path d="M66.202,269.537c1.596,2.244,4.181,3.575,6.938,3.575h365.722c2.756,0,5.342-1.331,6.938-3.575l30.473-42.667
				c1.86-2.603,2.116-6.025,0.649-8.866c-1.459-2.842-4.386-4.625-7.586-4.625h-17.28c-4.369-101.444-86.076-183.151-187.52-187.52
				v-8.747H281.6c4.719,0,8.533-3.823,8.533-8.533s-3.814-8.533-8.533-8.533h-51.2c-4.719,0-8.533,3.823-8.533,8.533
				s3.814,8.533,8.533,8.533h17.067v8.747c-101.444,4.369-183.151,86.076-187.52,187.52h-17.28c-3.2,0-6.127,1.783-7.586,4.625
				c-1.468,2.842-1.212,6.263,0.649,8.866L66.202,269.537z M115.635,140.829c28.988-49.997,82.773-81.05,140.365-81.05
				c4.719,0,8.533,3.823,8.533,8.533s-3.814,8.533-8.533,8.533c-51.524,0-99.652,27.793-125.602,72.542
				c-1.579,2.731-4.446,4.258-7.39,4.258c-1.451,0-2.927-0.375-4.275-1.152C114.662,150.121,113.263,144.908,115.635,140.829z
				 M68.267,230.446h375.467h9.02l-18.287,25.6H77.534l-18.287-25.6H68.267z"/>
			<path d="M507.614,316.001c-15.027-21.188-30.165-21.632-68.326-1.544l-73.591,44.988c-5.751,3.063-14.703,4.983-25.071,6.17
				c-8.047,0.93-15.369,4.395-22.076,8.926c-0.879,0.597-1.826,0.973-2.816,0.973h-82.927c-25.6,0-25.6,12.843-25.6,17.067
				c0,4.71-3.814,8.533-8.533,8.533s-8.533-3.823-8.533-8.533c0-21.376,15.949-34.133,42.667-34.133h79.846
				c-0.009-5.931-2.347-12.476-7.108-19.584c-13.38-19.951-36.301-31.855-61.338-31.855h-33.28
				c-18.082,0-35.447-5.589-48.905-15.727c-30.601-23.091-78.78,1.86-102.289,16.802v-17.903H0v221.867h59.733v-25.6h110.933
				c17.468,0,34.91-1.314,52.173-3.942l110.635-16.819c4.028-0.051,8.107-0.529,11.742-1.348
				c10.189-1.434,19.925-6.298,28.177-14.08l129.34-100.727l0.205-0.162C512.973,341.208,515.098,326.557,507.614,316.001z
				 M42.667,320.105v166.34v8.533h-25.6V307.246h25.6V320.105z"/>
		</g>
	</g>
</g>
</svg>