<?xml version="1.0" encoding="utf-8"?>
<!-- Generator: Adobe Illustrator 24.3.0, SVG Export Plug-In . SVG Version: 6.00 Build 0)  -->
<svg version="1.1" id="Layer_1" xmlns="http://www.w3.org/2000/svg" xmlns:xlink="http://www.w3.org/1999/xlink" x="0px" y="0px"
	 viewBox="0 0 80 80" style="enable-background:new 0 0 80 80;" xml:space="preserve">
<style type="text/css">
	.st0{fill:#7A8E9B;}
	.st1{fill:#E49A61;}
	.st2{fill:#525C6B;}
</style>
<g>
	<path class="st0" d="M45.5,15.6c5.9,0.1,10.6,6.3,10.5,14.7c-0.2,8.4-5.1,14.4-11,14.3c-5.9-0.1-10.6-6.3-10.5-14.7
		C34.7,21.5,39.6,15.5,45.5,15.6z"/>
	<path class="st1" d="M43.3,15.6c5.9,0.1,10.6,6.3,10.5,14.7c-0.1,8.4-5.1,14.4-11,14.3c-5.9-0.1-10.6-6.3-10.5-14.7
		C32.4,21.5,37.3,15.5,43.3,15.6z"/>
	<path class="st2" d="M43.3,15.6c0,0,0,0.1-0.1,0.3c-0.1,0.2-0.2,0.5-0.4,0.9c-0.2,0.4-0.3,0.9-0.4,1.4c-0.1,0.3-0.1,0.6-0.2,0.9
		c0,0.3-0.1,0.6-0.1,1c-0.1,0.7-0.1,1.4-0.1,2.2c0,0.8,0.1,1.6,0.3,2.4c0.2,0.8,0.4,1.6,0.7,2.4c0.2,0.4,0.3,0.8,0.5,1.1
		c0.1,0.2,0.2,0.4,0.3,0.5l0.4,0.6c0.5,0.7,1.1,1.9,1.4,2.8c0.3,1,0.5,2,0.6,3c0.1,1,0.1,1.9-0.1,2.8c-0.1,0.9-0.3,1.7-0.6,2.4
		c-0.1,0.4-0.3,0.7-0.4,1c-0.2,0.3-0.3,0.6-0.5,0.9c-0.3,0.5-0.6,1-0.9,1.3c-0.3,0.3-0.5,0.6-0.7,0.7c-0.2,0.2-0.3,0.2-0.3,0.2
		s0-0.1,0.1-0.3c0.1-0.2,0.2-0.5,0.4-0.9c0.2-0.4,0.3-0.9,0.4-1.4c0.1-0.3,0.1-0.6,0.2-0.9c0-0.3,0.1-0.6,0.1-1
		c0.1-0.7,0.1-1.4,0.1-2.2c0-0.8-0.1-1.6-0.3-2.4c-0.2-0.8-0.4-1.6-0.7-2.4c-0.4-0.8-0.6-1.4-1.2-2.3l-0.4-0.6
		c-0.2-0.2-0.3-0.5-0.4-0.7c-0.3-0.5-0.4-1-0.6-1.5c-0.3-1-0.5-2-0.6-3c-0.1-1-0.1-1.9,0.1-2.8c0.1-0.9,0.3-1.7,0.6-2.4
		c0.1-0.4,0.3-0.7,0.4-1c0.2-0.3,0.3-0.6,0.5-0.9c0.3-0.5,0.6-1,0.9-1.3c0.3-0.4,0.5-0.6,0.7-0.7C43.2,15.7,43.3,15.6,43.3,15.6z"/>
	<path class="st0" d="M57.9,37.3c4.7,3.6,4.9,11.4-0.2,18c-5.1,6.7-12.6,8.6-17.3,5c-4.7-3.6-4.9-11.4,0.2-18
		C45.6,35.6,53.2,33.7,57.9,37.3z"/>
	<path class="st1" d="M59.4,38.8c4.7,3.6,4.9,11.4-0.2,18c-5.1,6.7-12.6,8.6-17.3,5c-4.7-3.6-4.9-11.4,0.2-18
		C47.2,37.1,54.7,35.2,59.4,38.8z"/>
	<path class="st2" d="M59.4,38.8c0,0-0.1,0.1-0.3,0.2c-0.2,0.1-0.5,0.3-0.8,0.5c-0.3,0.2-0.7,0.5-1.2,0.9c-0.2,0.2-0.4,0.4-0.7,0.6
		c-0.2,0.2-0.5,0.5-0.7,0.7c-0.5,0.5-0.9,1.1-1.4,1.7c-0.5,0.6-0.8,1.3-1.2,2.1c-0.3,0.7-0.6,1.5-0.9,2.4c-0.1,0.4-0.2,0.8-0.2,1.2
		c0,0.2-0.1,0.4-0.1,0.6l0,0.7c0,0.9-0.2,2.1-0.5,3.1c-0.3,1-0.8,1.9-1.3,2.8c-0.5,0.8-1.1,1.6-1.7,2.2c-0.6,0.6-1.3,1.2-1.9,1.6
		c-0.3,0.2-0.6,0.4-0.9,0.6c-0.3,0.2-0.6,0.3-0.9,0.4c-0.6,0.2-1.1,0.4-1.5,0.5c-0.4,0.1-0.8,0.1-1,0.2c-0.2,0-0.3,0-0.3,0
		s0.1-0.1,0.3-0.2c0.2-0.1,0.5-0.3,0.8-0.5c0.4-0.2,0.7-0.5,1.2-0.9c0.2-0.2,0.4-0.4,0.7-0.6c0.2-0.2,0.5-0.5,0.7-0.7
		c0.5-0.5,0.9-1.1,1.4-1.7c0.5-0.6,0.8-1.3,1.2-2.1c0.3-0.7,0.6-1.5,0.9-2.4c0.2-0.9,0.3-1.5,0.4-2.6l0.1-0.8c0-0.3,0.1-0.5,0.1-0.8
		c0.1-0.5,0.2-1,0.4-1.5c0.3-1,0.8-1.9,1.3-2.8c0.5-0.8,1.1-1.6,1.7-2.2c0.6-0.6,1.3-1.2,1.9-1.6c0.3-0.2,0.6-0.4,0.9-0.6
		c0.3-0.2,0.6-0.3,0.9-0.4c0.6-0.2,1.1-0.4,1.5-0.5c0.4-0.1,0.8-0.1,1-0.2C59.3,38.8,59.4,38.8,59.4,38.8z"/>
	<path class="st0" d="M21.1,36.6c3.6-4.7,11.4-4.9,18,0.2s8.6,12.6,5,17.3c-3.6,4.7-11.4,4.9-18-0.2C19.4,48.9,17.5,41.4,21.1,36.6z
		"/>
	<path class="st1" d="M18.8,36.6c3.6-4.7,11.4-4.9,18,0.2s8.6,12.6,5,17.3c-3.6,4.7-11.4,4.9-18-0.2C17.2,48.9,15.2,41.4,18.8,36.6z
		"/>
	<path class="st2" d="M18.8,36.6c0,0,0.1,0.1,0.2,0.3c0.1,0.2,0.3,0.5,0.5,0.8c0.2,0.3,0.5,0.7,0.9,1.2c0.2,0.2,0.4,0.4,0.6,0.7
		c0.2,0.2,0.5,0.5,0.7,0.7c0.5,0.5,1.1,0.9,1.7,1.4c0.6,0.5,1.3,0.8,2.1,1.2c0.7,0.4,1.5,0.6,2.4,0.9c0.4,0.1,0.8,0.2,1.2,0.2
		c0.2,0,0.4,0.1,0.6,0.1l0.7,0c0.9,0,2.1,0.2,3.1,0.5c1,0.3,1.9,0.8,2.8,1.3c0.8,0.5,1.6,1.1,2.2,1.7c0.6,0.6,1.2,1.3,1.6,1.9
		c0.2,0.3,0.4,0.6,0.6,0.9c0.2,0.3,0.3,0.6,0.4,0.9c0.2,0.6,0.4,1.1,0.5,1.5c0.1,0.4,0.1,0.8,0.2,1c0,0.2,0,0.4,0,0.4
		s-0.1-0.1-0.2-0.3c-0.1-0.2-0.3-0.5-0.5-0.8c-0.2-0.4-0.5-0.7-0.9-1.2c-0.2-0.2-0.4-0.4-0.6-0.7c-0.2-0.2-0.5-0.5-0.7-0.7
		c-0.5-0.5-1.1-0.9-1.7-1.4c-0.6-0.5-1.3-0.8-2.1-1.2c-0.7-0.4-1.5-0.6-2.4-0.9c-0.9-0.2-1.5-0.3-2.6-0.4l-0.8-0.1
		c-0.3,0-0.5-0.1-0.8-0.1c-0.5-0.1-1-0.2-1.5-0.4c-1-0.3-1.9-0.8-2.8-1.3c-0.8-0.5-1.6-1.1-2.2-1.7c-0.6-0.6-1.2-1.3-1.6-1.9
		c-0.2-0.3-0.4-0.6-0.6-0.9c-0.2-0.3-0.3-0.6-0.4-0.9c-0.2-0.6-0.4-1.1-0.5-1.5c-0.1-0.4-0.1-0.8-0.2-1
		C18.8,36.8,18.8,36.6,18.8,36.6z"/>
</g>
</svg>
