<svg xmlns="http://www.w3.org/2000/svg" viewBox="0 0 512 512"><title>Artboard 111</title><g id="Fruit_Juice" data-name="Fruit Juice"><path d="M241.62925,490.66667H99.70408a42.53551,42.53551,0,0,1-42.05553-35.44756C45.75927,384.29993,21.33333,215.0296,21.33333,21.33333H320c0,193.69627-24.42594,362.9666-36.31522,433.88578A42.53551,42.53551,0,0,1,241.62925,490.66667Z" style="fill:#d5d1d1"/><rect x="192" y="426.66667" width="64" height="21.33333" style="fill:#c5c0c0"/><path d="M241.625,490.66667H192.36458V469.33333H241.625a21.17714,21.17714,0,0,0,21.02083-17.64583c10.22917-60.97917,34.1875-222.91667,35.92709-409.125l21.33333.20833c-1.75,187.70834-25.91667,350.96875-36.21875,412.44792A42.4602,42.4602,0,0,1,241.625,490.66667Z" style="fill:#afa8a8"/><path d="M177.01823,455.21875c11.88932-70.91927,36.3151-240.1901,36.3151-433.88542h-192c0,193.69532,24.42578,362.96615,36.31511,433.88542a42.53592,42.53592,0,0,0,42.056,35.44792h35.25781A42.53593,42.53593,0,0,0,177.01823,455.21875Z" style="fill:#edebeb"/><rect x="85.33333" y="426.66667" width="64" height="21.33333" style="fill:#d5d1d1"/><path d="M298.5625,42.66667H42.77083c1.4173,152.03552,17.60142,287.59,29.147,365.87108a21.22529,21.22529,0,0,0,21.10071,18.12892H248.31481a21.2253,21.2253,0,0,0,21.10071-18.12892C280.96109,330.25664,297.14521,194.70219,298.5625,42.66667Z" style="fill:#fdab00"/><path d="M213.16927,42.66667H42.77083C44.1875,194.70182,60.3724,330.25651,71.918,408.53776a21.22473,21.22473,0,0,0,21.10026,18.12891H181.599C193.71094,348.14193,211.67969,205.1875,213.16927,42.66667Z" style="fill:#fdbc34"/><path d="M96.77083,430C86.65625,366.11458,69.07292,236.45833,64.90625,85.92708l42.64583-1.1875c4.10417,148.13542,21.40625,275.71875,31.36459,338.59375Z" style="fill:#fdcf6d"/><path d="M82.20833,323.14583C75.46875,265.16667,70.53125,207.03125,67.52083,150.375l42.60417-2.27083c2.95833,55.78125,7.83333,113.02083,14.45833,170.125Z" style="fill:#fee3aa"/><rect x="106.66667" y="469.33333" width="21.33333" height="21.33333" style="fill:#d5d1d1"/><circle cx="362.66667" cy="362.66667" r="128" style="fill:#cc4900"/><path d="M333.57694,237.89453c-47.16382,10.45467-85.22774,48.51859-95.68241,95.68241q-.19739.89043-.38232,1.77929c-14.67494,70.52619,49.9387,135.13984,120.46489,120.46489q.88884-.18493,1.7793-.38231c47.16381-10.45468,85.22773-48.5186,95.68241-95.68241q.19737-.89044.38231-1.7793c14.67495-70.52619-49.9387-135.13983-120.46489-120.46489Q334.46739,237.69716,333.57694,237.89453Z" style="fill:#e76400"/><rect x="341.33333" y="234.66667" width="42.66667" height="42.66667" rx="21.33331" ry="21.33331" style="fill:#cc4900"/><ellipse cx="298.66667" cy="320" rx="50.78343" ry="32.57358" transform="translate(-138.79673 304.91506) rotate(-45)" style="fill:#ef7f00"/><path d="M362.66667,256H341.33333c0-40.33333,33.19792-59.29167,50.75-63.67708l5.16667,20.6875C395.88542,213.375,362.66667,222.40625,362.66667,256Z" style="fill:#7d1a00"/><circle cx="352" cy="458.66667" r="10.66667" style="fill:#bf3c00"/><circle cx="416" cy="352" r="10.66667" style="fill:#cc4900"/><circle cx="394.66667" cy="288" r="10.66667" style="fill:#cc4900"/><circle cx="458.66667" cy="416" r="10.66667" style="fill:#bf3c00"/><circle cx="480" cy="373.33333" r="10.66667" style="fill:#bf3c00"/><circle cx="416" cy="458.66667" r="10.66667" style="fill:#bf3c00"/><circle cx="394.66667" cy="416" r="10.66667" style="fill:#cc4900"/><circle cx="309.33333" cy="416" r="10.66667" style="fill:#cc4900"/><circle cx="458.66667" cy="309.33333" r="10.66667" style="fill:#bf3c00"/></g></svg>