<svg xmlns="http://www.w3.org/2000/svg" viewBox="0 0 512 512"><title>Artboard 104</title><g id="Bread"><path d="M341.33333,85.33333H170.66667c-82.474,0-149.33334,47.75651-149.33334,106.66667,0,20.03906,7.87761,38.71745,21.33334,54.73438V426.66667H469.33333V256c13.45573-16.01693,21.33334-43.96094,21.33334-64C490.66667,133.08984,423.80729,85.33333,341.33333,85.33333Z" style="fill:#ad6143"/><path d="M320,192c0-58.91016-66.85937-106.66667-149.33333-106.66667S21.33333,133.08984,21.33333,192c0,20.03906,7.87761,47.98307,21.33334,64V426.66667h256V256C312.1224,239.98307,320,212.03906,320,192Z" style="fill:#c99884"/><path d="M85.33333,405.33333H64V248.22917l-5-5.94792C49.84375,231.375,42.66667,209.29167,42.66667,192c0-47.05208,57.41666-85.33333,128-85.33333V128C113.84375,128,64,157.90625,64,192c0,13.19792,5.97917,30.1875,11.33333,36.55208l10,11.90625Z" style="fill:#d7b2a4"/><path d="M298.66667,426.66667H85.33333V405.33333h192V248.22917l5-5.94792c10.21875-12.17708,16.33334-35.125,16.33334-50.28125,0-47.05208-57.41667-85.33333-128-85.33333V85.33333C253.01042,85.33333,320,133.1875,320,192c0,19.17708-7.32292,47.32292-21.33333,64Z" style="fill:#b7745a"/><circle cx="181.33333" cy="160" r="10.66667" style="fill:#b7745a"/><ellipse cx="117.33333" cy="256" rx="10.66667" ry="21.33333" style="fill:#b7745a"/><circle cx="234.66667" cy="277.33333" r="21.33333" style="fill:#b7745a"/><circle cx="160" cy="330.66667" r="10.66667" style="fill:#b7745a"/><circle cx="96" cy="373.33333" r="10.66667" style="fill:#b7745a"/><rect x="298.66667" y="256" width="170.66667" height="170.66667" style="fill:#a34e2d"/><path d="M469.33333,426.66667H320V405.33333H448V248.22917l5-5.94792c10.21875-12.17708,16.33333-35.125,16.33333-50.28125,0-47.05208-57.41666-85.33333-128-85.33333V85.33333c82.34375,0,149.33334,47.85417,149.33334,106.66667,0,19.17708-7.32292,47.32292-21.33334,64Z" style="fill:#993b17"/><ellipse cx="298.66667" cy="117.33333" rx="21.33333" ry="10.66667" style="fill:#a34e2d"/><ellipse cx="362.66667" cy="138.66667" rx="21.33333" ry="10.66667" style="fill:#a34e2d"/><ellipse cx="405.33333" cy="181.33333" rx="21.33333" ry="10.66667" style="fill:#a34e2d"/><ellipse cx="448" cy="224" rx="21.33333" ry="10.66667" style="fill:#993b17"/><circle cx="448" cy="405.33333" r="21.33333" style="fill:#993b17"/><circle cx="330.66667" cy="309.33333" r="10.66667" style="fill:#993b17"/><circle cx="384" cy="362.66667" r="21.33333" style="fill:#993b17"/><circle cx="416" cy="266.66667" r="10.66667" style="fill:#993b17"/><ellipse cx="362.66667" cy="245.33333" rx="21.33333" ry="10.66667" style="fill:#a34e2d"/></g></svg>