<svg id="Cheese" xmlns="http://www.w3.org/2000/svg" viewBox="0 0 512 512"><title>Artboard 159</title><path d="M21.33333,341.33333l64,128L490.66667,320,448,192S384,42.66667,192,42.66667Z" style="fill:#fdab00"/><polygon points="94.292 466.021 86.917 446.021 463.896 307.125 428.083 199.583 448.333 192.833 490.646 320 94.292 466.021" style="fill:#f59707"/><circle cx="234.66667" cy="256" r="64" style="fill:#f59707"/><path d="M234.66667,319.97917a63.51459,63.51459,0,0,1-45.25-18.72917L204.5,286.16667c16.08333,16.08333,44.25,16.08333,60.33333,0a42.12313,42.12313,0,0,0,11.6875-22l20.95834,4.04166a63.902,63.902,0,0,1-62.8125,51.77084Z" style="fill:#fdbc34"/><path d="M192,42.66667,21.33333,341.33333,448,192S384,42.66667,192,42.66667Z" style="fill:#fdbc34"/><rect x="82.4347" y="218.09973" width="327.33893" height="21.32137" transform="matrix(0.94389, -0.33026, 0.33026, 0.94389, -61.74199, 94.11521)" style="fill:#fdcf6d"/><path d="M234.66667,192a63.99983,63.99983,0,0,0-64,64,63.287,63.287,0,0,0,7.94661,30.28516l118.91016-41.61849A63.91155,63.91155,0,0,0,234.66667,192Z" style="fill:#fdab00"/><path d="M192,256H170.66667A63.93685,63.93685,0,0,1,294.75,234.25l-20.08333,7.20833A42.60078,42.60078,0,0,0,192,256Z" style="fill:#f59707"/><path d="M128,192c35.34635,0,64-14.32682,64-32,0-15.13151-21.06641-27.73568-49.293-31.069l-35.01172,61.26953A121.70173,121.70173,0,0,0,128,192Z" style="fill:#fdab00"/><path d="M170.60417,160.02083c-.875,0-7.79167-5.9375-24.1875-8.97916l3.875-20.95834C175.25,134.70833,192,146.72917,192,160H170.66667A.07655.07655,0,0,1,170.60417,160.02083Z" style="fill:#f59707"/><path d="M298.66667,85.33333c-11.4362,0-21.76953,3.41927-29.42969,8.91407-7.74609-5.38021-20.30078-8.91407-34.57031-8.91407C211.10286,85.33333,192,94.88411,192,106.66667,192,118.44792,211.10286,128,234.66667,128a76.03655,76.03655,0,0,0,22.58073-3.29818c4.45312,14.10547,21.2526,24.63151,41.41927,24.63151,23.5638,0,42.66666-14.32682,42.66666-32S322.23047,85.33333,298.66667,85.33333Z" style="fill:#fdab00"/><path d="M269.4375,120.375l-12.39583-8.625c-2.70834-1.875-10.5-5.08333-22.375-5.08333V85.33333c13.58333,0,26.5,3.33334,34.54166,8.89584l.02084.02083c8.0625-5.75,18.5-8.91667,29.4375-8.91667,23.52083,0,42.66666,14.35417,42.66666,32H320c0-4.29166-8.95833-10.66666-21.33333-10.66666-6.54167,0-12.58334,1.75-17.02084,4.91666Z" style="fill:#f59707"/><circle cx="96" cy="373.33333" r="32" style="fill:#f59707"/><path d="M96,405.33333a32.035,32.035,0,0,1-32-32H85.33333a10.66667,10.66667,0,0,0,21.33334,0H128A32.035,32.035,0,0,1,96,405.33333Z" style="fill:#fdbc34"/><circle cx="298.66667" cy="341.33333" r="21.33333" style="fill:#f59707"/><path d="M298.66667,362.66667a21.34775,21.34775,0,0,1-21.33334-21.33334H320A21.34774,21.34774,0,0,1,298.66667,362.66667Z" style="fill:#fdbc34"/><path d="M405.33333,234.66667a42.59515,42.59515,0,0,0-38.74218,25.00651A31.64384,31.64384,0,0,0,352,256a32.00056,32.00056,0,1,0,24.37891,52.50521,42.61611,42.61611,0,1,0,28.95442-73.83854Z" style="fill:#f59707"/><path d="M352,320a32.035,32.035,0,0,1-32-32h21.33333c-.02083,9,12.54167,14.08333,18.6875,6.77083l16.375,13.70834A31.46087,31.46087,0,0,1,352,320Z" style="fill:#fdbc34"/><path d="M405.33333,320A42.48057,42.48057,0,0,1,376.375,308.5l14.5-15.625a21.22192,21.22192,0,0,0,35.79167-15.54167H448A42.72225,42.72225,0,0,1,405.33333,320Z" style="fill:#fdbc34"/><path d="M428.41667,200.45833c-2.35417-5.4375-59.97917-133.47916-230.4375-136.39583l.375-21.33333C382.375,45.875,445.39583,186,448,191.95833Z" style="fill:#fdab00"/></svg>