<?xml version="1.0" encoding="UTF-8"?>
<!DOCTYPE svg PUBLIC "-//W3C//DTD SVG 1.1//EN" "http://www.w3.org/Graphics/SVG/1.1/DTD/svg11.dtd">
<!-- Creator: CorelDRAW -->
<svg xmlns="http://www.w3.org/2000/svg" xml:space="preserve" width="6.82666in" height="6.82666in" style="shape-rendering:geometricPrecision; text-rendering:geometricPrecision; image-rendering:optimizeQuality; fill-rule:evenodd; clip-rule:evenodd"
viewBox="0 0 6.82666 6.82666"
 xmlns:xlink="http://www.w3.org/1999/xlink">
 <defs>
  <style type="text/css">
   <![CDATA[
    .fil5 {fill:none}
    .fil0 {fill:#E64A19}
    .fil1 {fill:#FFFFFE}
    .fil2 {fill:#424242;fill-rule:nonzero}
    .fil4 {fill:#E64A19;fill-rule:nonzero}
    .fil3 {fill:#FFFFFE;fill-rule:nonzero}
   ]]>
  </style>
 </defs>
 <g id="Layer_x0020_1">
  <metadata id="CorelCorpID_0Corel-Layer"/>
  <g id="_254868920">
   <polygon id="_254870552" class="fil0" points="4.00671,1.04991 4.00671,2.26372 2.81494,2.26372 2.81494,1.04991 "/>
   <path id="_254870648" class="fil0" d="M2.9174 2.17125l0.991862 0c0.485551,0 0.882815,0.397264 0.882815,0.882815l0 2.70739c0,0.116535 -0.0953425,0.211878 -0.211874,0.211878l-2.33374 0c-0.116528,0 -0.211874,-0.0953425 -0.211874,-0.211878l0 -2.70739c0,-0.485551 0.397264,-0.882815 0.882815,-0.882815z"/>
   <polygon id="_254869232" class="fil1" points="4.79208,3.53592 4.79208,4.89193 2.03459,4.89193 2.03459,3.53592 "/>
   <g>
    <polygon id="_254869376" class="fil2" points="2.72237,0.853331 4.09929,0.853331 4.09929,1.50191 2.72237,1.50191 "/>
    <polygon id="_254869808" class="fil3" points="2.90735,0.853331 2.90735,1.50191 3.02036,1.50191 3.02036,0.853331 "/>
    <polygon id="_254869544" class="fil3" points="3.20534,0.853331 3.20534,1.50191 3.31834,1.50191 3.31834,0.853331 "/>
    <polygon id="_254869472" class="fil3" points="3.50332,0.853331 3.50332,1.50191 3.61632,1.50191 3.61632,0.853331 "/>
    <polygon id="_254869496" class="fil3" points="3.8013,0.853331 3.8013,1.50191 3.91431,1.50191 3.91431,0.853331 "/>
   </g>
   <g>
    <path id="_254869712" class="fil4" d="M2.27361 3.89476c-0.0218189,-0.0221811 -0.0574882,-0.0224803 -0.0796732,-0.000661417 -0.022185,0.0218189 -0.0224803,0.0574882 -0.000665354,0.0796732l0.551768 0.559327c0.0218189,0.022185 0.0574921,0.0224803 0.0796732,0.000661417 0.022185,-0.021815 0.0224843,-0.0574882 0.000665354,-0.0796732l-0.551768 -0.559327z"/>
    <path id="_254869304" class="fil4" d="M2.82538 3.97377c0.0218189,-0.022185 0.0215197,-0.0578543 -0.000661417,-0.0796732 -0.022185,-0.0218189 -0.0578583,-0.0215197 -0.0796772,0.000661417l-0.551768 0.559327c-0.021815,0.022185 -0.0215197,0.0578583 0.000665354,0.0796732 0.022185,0.0218189 0.0578583,0.0215236 0.0796732,-0.000661417l0.551768 -0.559327z"/>
    <path id="_254868632" class="fil4" d="M3.17761 3.89476c-0.0218189,-0.0221811 -0.0574921,-0.0224803 -0.0796732,-0.000661417 -0.022185,0.0218189 -0.0224803,0.0574882 -0.000665354,0.0796732l0.551768 0.559327c0.0218189,0.022185 0.0574882,0.0224803 0.0796732,0.000661417 0.022185,-0.021815 0.0224803,-0.0574882 0.000665354,-0.0796732l-0.551768 -0.559327z"/>
    <path id="_254869040" class="fil4" d="M3.72939 3.97377c0.021815,-0.022185 0.0215197,-0.0578543 -0.000665354,-0.0796732 -0.0221811,-0.0218189 -0.0578543,-0.0215197 -0.0796732,0.000661417l-0.551768 0.559327c-0.021815,0.022185 -0.0215197,0.0578583 0.000665354,0.0796732 0.022185,0.0218189 0.0578543,0.0215236 0.0796732,-0.000661417l0.551768 -0.559327z"/>
    <path id="_254868872" class="fil4" d="M4.08162 3.89476c-0.0218189,-0.0221811 -0.0574921,-0.0224803 -0.0796772,-0.000661417 -0.0221811,0.0218189 -0.0224803,0.0574882 -0.000661417,0.0796732l0.551768 0.559327c0.021815,0.022185 0.0574882,0.0224803 0.0796732,0.000661417 0.022185,-0.021815 0.0224803,-0.0574882 0.000665354,-0.0796732l-0.551768 -0.559327z"/>
    <path id="_254869208" class="fil4" d="M4.63339 3.97377c0.021815,-0.022185 0.0215197,-0.0578543 -0.000665354,-0.0796732 -0.022185,-0.0218189 -0.0578543,-0.0215197 -0.0796732,0.000661417l-0.551768 0.559327c-0.0218189,0.022185 -0.0215197,0.0578583 0.000665354,0.0796732 0.0221811,0.0218189 0.0578543,0.0215236 0.0796732,-0.000661417l0.551768 -0.559327z"/>
   </g>
  </g>
 </g>
 <rect class="fil5" width="6.82666" height="6.82666"/>
</svg>
