<svg xmlns="http://www.w3.org/2000/svg" viewBox="0 0 64 64"><defs><style>.cls-1{isolation:isolate;}.cls-2{fill:#c65500;}.cls-3{fill:#e2e2e2;}.cls-4{fill:#f4a800;}.cls-5{fill:none;stroke:#000;stroke-linecap:round;stroke-linejoin:round;stroke-width:2px;}.cls-6{opacity:0.25;mix-blend-mode:multiply;}.cls-7,.cls-8{mix-blend-mode:overlay;}.cls-8{fill:#fff;}</style></defs><title>Icon Color</title><g class="cls-1"><g id="Layer_1" data-name="Layer 1"><g id="Vector"><path class="cls-2" d="M51,22.81l-.8,33.51a5.49,5.49,0,0,1-5.5,5.38H19.42a5.52,5.52,0,0,1-5.52-5.37L13,22.82a6.83,6.83,0,0,1,6.83-7h0A3.85,3.85,0,0,0,23.69,12V9.13a2.16,2.16,0,0,0,1,.24H39.29a2.16,2.16,0,0,0,1-.24V12a3.85,3.85,0,0,0,3.85,3.85h0A6.83,6.83,0,0,1,51,22.81Z"/><path class="cls-3" d="M41.58,4.59V7.1a2.25,2.25,0,0,1-1.27,2,2.16,2.16,0,0,1-1,.24H24.71a2.16,2.16,0,0,1-1-.24,2.25,2.25,0,0,1-1.27-2V4.59A2.28,2.28,0,0,1,24.71,2.3H39.29A2.28,2.28,0,0,1,41.58,4.59Z"/><circle class="cls-4" cx="32" cy="37.5" r="11.4"/></g><g id="Line"><path class="cls-5" d="M51,22.81l-.8,33.51a5.49,5.49,0,0,1-5.5,5.38H19.42a5.52,5.52,0,0,1-5.52-5.37L13,22.82a6.83,6.83,0,0,1,6.83-7h0A3.85,3.85,0,0,0,23.69,12V9.13a2.16,2.16,0,0,0,1,.24H39.29a2.16,2.16,0,0,0,1-.24V12a3.85,3.85,0,0,0,3.85,3.85h0A6.83,6.83,0,0,1,51,22.81Z"/><path class="cls-5" d="M41.58,4.59V7.1a2.25,2.25,0,0,1-1.27,2,2.16,2.16,0,0,1-1,.24H24.71a2.16,2.16,0,0,1-1-.24,2.25,2.25,0,0,1-1.27-2V4.59A2.28,2.28,0,0,1,24.71,2.3H39.29A2.28,2.28,0,0,1,41.58,4.59Z"/><circle class="cls-5" cx="32" cy="37.5" r="11.4"/></g><g id="Shadow" class="cls-6"><path d="M44.16,15.81A3.85,3.85,0,0,1,40.31,12V9.13a2.16,2.16,0,0,1-1,.24h0a2.16,2.16,0,0,0,1-.24,2.25,2.25,0,0,0,1.27-2V4.59A2.28,2.28,0,0,0,39.29,2.3h-5a2.28,2.28,0,0,1,2.29,2.29V7.1a2.25,2.25,0,0,1-1.27,2,2.16,2.16,0,0,1-1,.24h0a2.16,2.16,0,0,0,1-.24V12a3.85,3.85,0,0,0,3.85,3.85,6.83,6.83,0,0,1,6.83,7l-.8,33.51a5.49,5.49,0,0,1-5.5,5.38h5a5.49,5.49,0,0,0,5.5-5.38L51,22.81A6.83,6.83,0,0,0,44.16,15.81Z"/></g><g id="Highligth" class="cls-7"><path class="cls-8" d="M18.9,56.33,18,22.82a6.83,6.83,0,0,1,6.83-7A3.85,3.85,0,0,0,28.69,12V9.13h0a2.25,2.25,0,0,1-1.27-2V4.59A2.28,2.28,0,0,1,29.71,2.3h-5a2.28,2.28,0,0,0-2.29,2.29V7.1a2.25,2.25,0,0,0,1.27,2h0V12a3.85,3.85,0,0,1-3.85,3.85,6.83,6.83,0,0,0-6.83,7l.89,33.51a5.52,5.52,0,0,0,5.52,5.37h5A5.52,5.52,0,0,1,18.9,56.33Z"/></g></g></g></svg>