<svg xmlns="http://www.w3.org/2000/svg" viewBox="0 0 64 64"><defs><style>.cls-1{isolation:isolate;}.cls-2{fill:#04a510;}.cls-3{fill:#ffa300;}.cls-4,.cls-8{fill:#fff;}.cls-5{fill:none;stroke:#000;stroke-linecap:round;stroke-linejoin:round;stroke-width:2px;}.cls-6{opacity:0.25;mix-blend-mode:multiply;}.cls-7,.cls-8{mix-blend-mode:overlay;}</style></defs><title>Icon Color</title><g class="cls-1"><g id="Layer_1" data-name="Layer 1"><g id="Vector"><path class="cls-2" d="M41.65,36.09H22.35A57.48,57.48,0,0,1,24.77,28s0,0,0,0a19,19,0,0,0,1.07-4A17.46,17.46,0,0,0,26,21.54V9.27a2.61,2.61,0,0,0,1.84.74h8.3A2.65,2.65,0,0,0,38,9.27V21.53a17.39,17.39,0,0,0,.75,5c.14.47.31.95.49,1.42,0,0,0,0,0,0A58.3,58.3,0,0,1,41.65,36.09Z"/><path class="cls-2" d="M39.36,62.91H24.63A2.88,2.88,0,0,1,21.75,60,73.76,73.76,0,0,1,21,51.62H43a71.13,71.13,0,0,1-.78,8.4A2.87,2.87,0,0,1,39.36,62.91Z"/><path class="cls-3" d="M38,9.27a2.65,2.65,0,0,1-1.84.74h-8.3A2.61,2.61,0,0,1,26,9.27a2.53,2.53,0,0,1-.84-1.93V3.77a2.68,2.68,0,0,1,2.69-2.68h8.29a2.68,2.68,0,0,1,2.69,2.68V7.34A2.67,2.67,0,0,1,38,9.27Z"/><path class="cls-4" d="M43,51.63H21q-.11-3,.08-6.15a61.37,61.37,0,0,1,1.29-9.38h19.3c.23,1,.43,2.1.59,3.15A63.63,63.63,0,0,1,43,51.63Z"/><path d="M26.82,46.82H25.2V41.67l-1.59.46V40.91l3.06-1.06h.15Z"/><path d="M33.75,44a4.25,4.25,0,0,1-.17,1.31,2.7,2.7,0,0,1-.5.92,2,2,0,0,1-.77.54,2.55,2.55,0,0,1-1,.17,2.64,2.64,0,0,1-1-.17,2,2,0,0,1-.76-.54,2.54,2.54,0,0,1-.5-.92A4.23,4.23,0,0,1,28.9,44V42.7a4.63,4.63,0,0,1,.17-1.31,2.7,2.7,0,0,1,.5-.92,2.07,2.07,0,0,1,.77-.54,2.76,2.76,0,0,1,1-.17,2.86,2.86,0,0,1,1,.17,2,2,0,0,1,.76.54,2.4,2.4,0,0,1,.5.92,4.28,4.28,0,0,1,.18,1.31Zm-1.61-1.48a3.51,3.51,0,0,0-.06-.7,1.3,1.3,0,0,0-.16-.46.6.6,0,0,0-.25-.25.78.78,0,0,0-.35-.08.77.77,0,0,0-.34.08.6.6,0,0,0-.25.25,1.54,1.54,0,0,0-.16.46,3.51,3.51,0,0,0-.06.7v1.68a3.55,3.55,0,0,0,.06.71,1.44,1.44,0,0,0,.16.46.62.62,0,0,0,.26.25.66.66,0,0,0,.34.08.63.63,0,0,0,.34-.08.62.62,0,0,0,.26-.25,1.44,1.44,0,0,0,.16-.46,4.63,4.63,0,0,0,0-.71Z"/><path d="M34.6,41.19a1.73,1.73,0,0,1,.09-.56,1.37,1.37,0,0,1,.3-.45,1.33,1.33,0,0,1,.48-.31,1.79,1.79,0,0,1,.68-.12,1.76,1.76,0,0,1,.68.12,1.18,1.18,0,0,1,.48.31,1.2,1.2,0,0,1,.29.45,1.74,1.74,0,0,1,.1.56v.37a1.63,1.63,0,0,1-.1.55,1.16,1.16,0,0,1-.29.46,1.29,1.29,0,0,1-.48.31,2.13,2.13,0,0,1-1.35,0,1.42,1.42,0,0,1-.49-.31,1.31,1.31,0,0,1-.3-.46,1.63,1.63,0,0,1-.09-.55Zm1,.37a.52.52,0,0,0,0,.21.51.51,0,0,0,.09.18.48.48,0,0,0,.16.12.47.47,0,0,0,.24,0,.4.4,0,0,0,.22,0,.48.48,0,0,0,.16-.12.51.51,0,0,0,.09-.18.76.76,0,0,0,0-.21v-.37a.83.83,0,0,0,0-.22.54.54,0,0,0-.1-.18.4.4,0,0,0-.16-.12.51.51,0,0,0-.22-.05.56.56,0,0,0-.23.05.48.48,0,0,0-.16.12.76.76,0,0,0-.09.18.57.57,0,0,0,0,.22Zm.83,4.74-.75-.38,3.4-5.45.75.38Zm1.45-1.19a1.45,1.45,0,0,1,.1-.55,1.16,1.16,0,0,1,.29-.46,1.47,1.47,0,0,1,.48-.31,1.8,1.8,0,0,1,.68-.11,1.76,1.76,0,0,1,.68.11,1.42,1.42,0,0,1,.49.31,1.29,1.29,0,0,1,.29.46,1.67,1.67,0,0,1,.09.55v.37a1.73,1.73,0,0,1-.09.56,1.34,1.34,0,0,1-.29.45,1.47,1.47,0,0,1-.48.31,2.16,2.16,0,0,1-1.36,0,1.42,1.42,0,0,1-.49-.31A1.2,1.2,0,0,1,38,46a1.5,1.5,0,0,1-.1-.56Zm1,.37a.52.52,0,0,0,0,.21.78.78,0,0,0,.11.18.52.52,0,0,0,.17.13.49.49,0,0,0,.21,0,.65.65,0,0,0,.26,0,.34.34,0,0,0,.16-.13.48.48,0,0,0,.07-.18,1.48,1.48,0,0,0,0-.21v-.37a.76.76,0,0,0,0-.21.51.51,0,0,0-.09-.18.43.43,0,0,0-.17-.13.51.51,0,0,0-.22,0,.56.56,0,0,0-.23,0,.34.34,0,0,0-.16.13.4.4,0,0,0-.1.18.76.76,0,0,0,0,.21Z"/></g><g id="Line"><path class="cls-5" d="M41.65,36.09H22.35A57.48,57.48,0,0,1,24.77,28s0,0,0,0a19,19,0,0,0,1.07-4A17.46,17.46,0,0,0,26,21.54V9.27a2.61,2.61,0,0,0,1.84.74h8.3A2.65,2.65,0,0,0,38,9.27V21.53a17.39,17.39,0,0,0,.75,5c.14.47.31.95.49,1.42,0,0,0,0,0,0A58.3,58.3,0,0,1,41.65,36.09Z"/><path class="cls-5" d="M39.36,62.91H24.63A2.88,2.88,0,0,1,21.75,60,73.76,73.76,0,0,1,21,51.62H43a71.13,71.13,0,0,1-.78,8.4A2.87,2.87,0,0,1,39.36,62.91Z"/><path class="cls-5" d="M38,9.27a2.65,2.65,0,0,1-1.84.74h-8.3A2.61,2.61,0,0,1,26,9.27a2.53,2.53,0,0,1-.84-1.93V3.77a2.68,2.68,0,0,1,2.69-2.68h8.29a2.68,2.68,0,0,1,2.69,2.68V7.34A2.67,2.67,0,0,1,38,9.27Z"/><path class="cls-5" d="M43,51.63H21q-.11-3,.08-6.15a61.37,61.37,0,0,1,1.29-9.38h19.3c.23,1,.43,2.1.59,3.15A63.63,63.63,0,0,1,43,51.63Z"/><path d="M26.82,46.82H25.2V41.67l-1.59.46V40.91l3.06-1.06h.15Z"/><path d="M33.75,44a4.25,4.25,0,0,1-.17,1.31,2.7,2.7,0,0,1-.5.92,2,2,0,0,1-.77.54,2.55,2.55,0,0,1-1,.17,2.64,2.64,0,0,1-1-.17,2,2,0,0,1-.76-.54,2.54,2.54,0,0,1-.5-.92A4.23,4.23,0,0,1,28.9,44V42.7a4.63,4.63,0,0,1,.17-1.31,2.7,2.7,0,0,1,.5-.92,2.07,2.07,0,0,1,.77-.54,2.76,2.76,0,0,1,1-.17,2.86,2.86,0,0,1,1,.17,2,2,0,0,1,.76.54,2.4,2.4,0,0,1,.5.92,4.28,4.28,0,0,1,.18,1.31Zm-1.61-1.48a3.51,3.51,0,0,0-.06-.7,1.3,1.3,0,0,0-.16-.46.6.6,0,0,0-.25-.25.78.78,0,0,0-.35-.08.77.77,0,0,0-.34.08.6.6,0,0,0-.25.25,1.54,1.54,0,0,0-.16.46,3.51,3.51,0,0,0-.06.7v1.68a3.55,3.55,0,0,0,.06.71,1.44,1.44,0,0,0,.16.46.62.62,0,0,0,.26.25.66.66,0,0,0,.34.08.63.63,0,0,0,.34-.08.62.62,0,0,0,.26-.25,1.44,1.44,0,0,0,.16-.46,4.63,4.63,0,0,0,0-.71Z"/><path d="M34.6,41.19a1.73,1.73,0,0,1,.09-.56,1.37,1.37,0,0,1,.3-.45,1.33,1.33,0,0,1,.48-.31,1.79,1.79,0,0,1,.68-.12,1.76,1.76,0,0,1,.68.12,1.18,1.18,0,0,1,.48.31,1.2,1.2,0,0,1,.29.45,1.74,1.74,0,0,1,.1.56v.37a1.63,1.63,0,0,1-.1.55,1.16,1.16,0,0,1-.29.46,1.29,1.29,0,0,1-.48.31,2.13,2.13,0,0,1-1.35,0,1.42,1.42,0,0,1-.49-.31,1.31,1.31,0,0,1-.3-.46,1.63,1.63,0,0,1-.09-.55Zm1,.37a.52.52,0,0,0,0,.21.51.51,0,0,0,.09.18.48.48,0,0,0,.16.12.47.47,0,0,0,.24,0,.4.4,0,0,0,.22,0,.48.48,0,0,0,.16-.12.51.51,0,0,0,.09-.18.76.76,0,0,0,0-.21v-.37a.83.83,0,0,0,0-.22.54.54,0,0,0-.1-.18.4.4,0,0,0-.16-.12.51.51,0,0,0-.22-.05.56.56,0,0,0-.23.05.48.48,0,0,0-.16.12.76.76,0,0,0-.09.18.57.57,0,0,0,0,.22Zm.83,4.74-.75-.38,3.4-5.45.75.38Zm1.45-1.19a1.45,1.45,0,0,1,.1-.55,1.16,1.16,0,0,1,.29-.46,1.47,1.47,0,0,1,.48-.31,1.8,1.8,0,0,1,.68-.11,1.76,1.76,0,0,1,.68.11,1.42,1.42,0,0,1,.49.31,1.29,1.29,0,0,1,.29.46,1.67,1.67,0,0,1,.09.55v.37a1.73,1.73,0,0,1-.09.56,1.34,1.34,0,0,1-.29.45,1.47,1.47,0,0,1-.48.31,2.16,2.16,0,0,1-1.36,0,1.42,1.42,0,0,1-.49-.31A1.2,1.2,0,0,1,38,46a1.5,1.5,0,0,1-.1-.56Zm1,.37a.52.52,0,0,0,0,.21.78.78,0,0,0,.11.18.52.52,0,0,0,.17.13.49.49,0,0,0,.21,0,.65.65,0,0,0,.26,0,.34.34,0,0,0,.16-.13.48.48,0,0,0,.07-.18,1.48,1.48,0,0,0,0-.21v-.37a.76.76,0,0,0,0-.21.51.51,0,0,0-.09-.18.43.43,0,0,0-.17-.13.51.51,0,0,0-.22,0,.56.56,0,0,0-.23,0,.34.34,0,0,0-.16.13.4.4,0,0,0-.1.18.76.76,0,0,0,0,.21Z"/></g><g id="Shadow" class="cls-6"><path d="M41.65,36.09A58.3,58.3,0,0,0,39.25,28s0,0,0,0c-.18-.47-.35-.95-.49-1.42a17.39,17.39,0,0,1-.75-5V9.27a2.67,2.67,0,0,0,.84-1.93V3.77a2.68,2.68,0,0,0-2.69-2.68h-5a2.68,2.68,0,0,1,2.67,2.68V7.34A2.67,2.67,0,0,1,33,9.27V21.53a17.39,17.39,0,0,0,.75,5c.14.47.31.95.49,1.42,0,0,0,0,0,0a58.3,58.3,0,0,1,2.4,8.09c.23,1,.43,2.1.59,3.15A63.63,63.63,0,0,1,38,51.63a71.13,71.13,0,0,1-.78,8.4,2.87,2.87,0,0,1-2.88,2.88h5A2.87,2.87,0,0,0,42.24,60a71.13,71.13,0,0,0,.78-8.4,63.63,63.63,0,0,0-.78-12.39C42.08,38.19,41.88,37.14,41.65,36.09Z"/></g><g id="Highligth" class="cls-7"><path class="cls-8" d="M26.75,60A73.76,73.76,0,0,1,26,51.62q-.11-3,.08-6.15a61.37,61.37,0,0,1,1.29-9.38A57.48,57.48,0,0,1,29.77,28s0,0,0,0a19,19,0,0,0,1.07-4A17.46,17.46,0,0,0,31,21.54V9.27a2.53,2.53,0,0,1-.84-1.93V3.77a2.68,2.68,0,0,1,2.69-2.68h-5a2.68,2.68,0,0,0-2.69,2.68V7.34A2.53,2.53,0,0,0,26,9.27V21.54a17.46,17.46,0,0,1-.17,2.39,19,19,0,0,1-1.07,4s0,0,0,0a57.48,57.48,0,0,0-2.42,8.09,61.37,61.37,0,0,0-1.29,9.38q-.18,3.15-.08,6.15A73.76,73.76,0,0,0,21.75,60a2.88,2.88,0,0,0,2.88,2.88h5A2.88,2.88,0,0,1,26.75,60Z"/></g></g></g></svg>