<?xml version="1.0" encoding="iso-8859-1"?>
<!-- Generator: Adobe Illustrator 19.0.0, SVG Export Plug-In . SVG Version: 6.00 Build 0)  -->
<svg xmlns="http://www.w3.org/2000/svg" xmlns:xlink="http://www.w3.org/1999/xlink" version="1.1" id="Capa_1" x="0px" y="0px" viewBox="0 0 512.001 512.001" style="enable-background:new 0 0 512.001 512.001;" xml:space="preserve">
<path style="fill:#C1E9FD;" d="M432.204,143.691V444.5c0,33.137-26.863,60-60,60H201.687c-33.137,0-60-26.863-60-60V143.691  c0-5.523,4.477-10,10-10h270.517C427.727,133.691,432.204,138.169,432.204,143.691z"/>
<path style="fill:#A4E0F7;" d="M432.204,143.398v302.859c0,32.166-26.014,58.242-58.103,58.242h-23.726  c32.09,0,58.103-26.076,58.103-58.242V143.398c0-5.361-4.336-9.707-9.684-9.707h23.726  C427.868,133.691,432.204,138.037,432.204,143.398z"/>
<path style="fill:#FEC76B;" d="M432.204,230.762v215.496c0,32.166-26.014,58.242-58.103,58.242H199.79  c-32.09,0-58.103-26.076-58.103-58.242V230.762H432.204z"/>
<path style="fill:#FCB54F;" d="M432.204,230.762v215.496c0,32.166-26.014,58.242-58.103,58.242h-23.726  c32.09,0,58.103-26.076,58.103-58.242V230.762H432.204z"/>
<path style="fill:#FBB03B;" d="M203.664,298.711c0-21.444,17.342-38.828,38.736-38.828c21.393,0,38.736,17.384,38.736,38.828  s-17.343,38.828-38.736,38.828C221.006,337.539,203.664,320.155,203.664,298.711z M339.238,279.297  c21.393,0,38.736-17.384,38.736-38.828s-17.343-38.828-38.736-38.828s-38.736,17.384-38.736,38.828  C300.503,261.913,317.845,279.297,339.238,279.297z M350.959,426.898c3.317-5.725,5.226-12.371,5.226-19.468  c0-21.444-17.343-38.828-38.736-38.828c-12.97,0-24.442,6.396-31.473,16.206c-7.03-9.81-18.503-16.206-31.473-16.206  c-21.393,0-38.736,17.384-38.736,38.828c0,7.097,1.909,13.743,5.226,19.468c-20.446,1.062-36.699,18.015-36.699,38.774  c0,21.444,17.342,38.828,38.736,38.828c12.97,0,24.442-6.396,31.473-16.206c7.03,9.81,18.503,16.206,31.473,16.206  s24.442-6.396,31.473-16.206c7.03,9.81,18.503,16.206,31.473,16.206c21.393,0,38.736-17.384,38.736-38.828  C387.658,444.913,371.405,427.96,350.959,426.898z"/>
<path style="fill:#F99A1E;" d="M258.892,298.711c0-17.568-11.643-32.404-27.614-37.196c3.524-1.057,7.255-1.633,11.121-1.633  c21.393,0,38.736,17.384,38.736,38.828s-17.343,38.828-38.736,38.828c-3.867,0-7.598-0.575-11.121-1.633  C247.249,331.115,258.892,316.279,258.892,298.711z M328.117,277.664c3.524,1.057,7.255,1.633,11.121,1.633  c21.393,0,38.736-17.384,38.736-38.828s-17.343-38.828-38.736-38.828c-3.867,0-7.598,0.575-11.121,1.632  c15.971,4.792,27.614,19.627,27.614,37.196C355.731,258.037,344.088,272.873,328.117,277.664z M350.958,426.898h0.001  c3.317-5.725,5.226-12.371,5.226-19.468c0-21.444-17.343-38.828-38.736-38.828c-3.867,0-7.598,0.575-11.121,1.633  c15.971,4.792,27.614,19.627,27.614,37.196c0,14.002-7.4,26.262-18.489,33.091c-7.104-8.36-17.663-13.677-29.477-13.677  c-0.839,0-1.669,0.039-2.494,0.092c0.156-0.01,0.308-0.031,0.464-0.039c-3.32-5.724-5.232-12.369-5.232-19.467  c0-8.443,2.697-16.251,7.263-22.622c-7.03-9.81-18.503-16.206-31.473-16.206c-3.867,0-7.598,0.575-11.121,1.633  c15.971,4.792,27.614,19.627,27.614,37.196c0,14.002-7.4,26.262-18.489,33.091c-7.104-8.36-17.663-13.677-29.477-13.677  c-3.867,0-7.598,0.575-11.121,1.633c15.971,4.792,27.614,19.627,27.614,37.196c0,17.568-11.643,32.404-27.614,37.196  c3.524,1.057,7.255,1.633,11.121,1.633c12.97,0,24.442-6.396,31.473-16.206c-4.566-6.371-7.263-14.179-7.263-22.622  c0-7.181,1.957-13.899,5.349-19.667c0.36-0.613,0.733-1.218,1.125-1.809c0.033-0.05,0.068-0.098,0.101-0.147  c4.949-7.383,12.36-12.96,21.054-15.567c15.963,4.796,27.599,19.628,27.599,37.191c0,17.568-11.643,32.404-27.614,37.196  c3.524,1.057,7.255,1.633,11.121,1.633c12.97,0,24.442-6.396,31.473-16.206c-4.566-6.371-7.263-14.179-7.263-22.622  c0-7.177,1.955-13.892,5.344-19.658c0.375-0.639,1.281-2.035,1.333-2.112c4.95-7.311,12.321-12.829,20.957-15.419  c15.961,4.798,27.594,19.628,27.594,37.189c0,17.568-11.643,32.404-27.614,37.196c3.524,1.057,7.255,1.633,11.121,1.633  c21.393,0,38.736-17.384,38.736-38.828C387.658,444.912,371.405,427.959,350.958,426.898z"/>
<path style="fill:#FFD691;" d="M466.45,152.732c2.856,2.049,4.55,5.354,4.55,8.874l0,0c0,6.027-4.875,10.914-10.888,10.914h-78.82  l-29.052-29.121l-29.052,29.121h-72.487l-29.052-29.121l-29.052,29.121h-78.82c-6.013,0-10.888-4.886-10.888-10.914l0,0  c0-3.52,1.694-6.825,4.55-8.874l67.111-48.162h0.121V36.621h224.546v67.949h0.121L466.45,152.732z"/>
<path style="fill:#FEC76B;" d="M471,161.606c0,6.028-4.875,10.914-10.888,10.914h-12.321c-32.45-26.232-69.057-55.824-74.624-60.324  V36.621h26.051v67.949h0.121l67.111,48.161C469.306,154.781,471,158.085,471,161.606z"/>
<path style="fill:#F24F43;" d="M408.962,17.5v38.242c0,5.523-4.477,10-10,10H174.928c-5.523,0-10-4.477-10-10V17.5  c0-5.523,4.477-10,10-10h224.035C404.485,7.5,408.962,11.977,408.962,17.5z"/>
<path style="fill:#ED322E;" d="M408.962,17.207v38.828c0,5.361-4.336,9.707-9.684,9.707h-26.197V7.5h26.197  C404.627,7.5,408.962,11.846,408.962,17.207z"/>
<path d="M470.856,146.648l-63.812-46.003V71.406c5.745-2.873,9.7-8.815,9.7-15.664V17.5c0-9.649-7.851-17.5-17.5-17.5H176.32  c-9.649,0-17.5,7.851-17.5,17.5v38.242c0,6.849,3.955,12.791,9.7,15.664v1.607l-34.334-17.287  c-9.205-4.635-19.939-4.173-28.715,1.234c-8.848,5.451-14.13,14.933-14.13,25.363c0,16.402,13.323,29.747,29.699,29.747h11.935  l-94.51,33.978c-3.898,1.401-5.922,5.697-4.52,9.595s5.699,5.921,9.595,4.521l84.694-30.448l-23.525,16.933  c-4.786,3.45-7.644,9.042-7.644,14.958c0,10.153,8.227,18.414,18.338,18.414h20.282v266.238c0,36.25,29.311,65.742,65.339,65.742  h173.517c36.028,0,65.34-29.492,65.34-65.742V180.02h20.281c10.112,0,18.338-8.26,18.338-18.414  C478.5,155.69,475.643,150.098,470.856,146.648z M173.82,17.5c0-1.378,1.122-2.5,2.5-2.5h222.924c1.378,0,2.5,1.122,2.5,2.5v38.242  c0,1.378-1.122,2.5-2.5,2.5H176.32c-1.378,0-2.5-1.122-2.5-2.5V17.5z M121.04,97.07c-8.105,0-14.699-6.615-14.699-14.747  c0-5.185,2.616-9.892,6.998-12.592c2.369-1.459,4.961-2.193,7.569-2.193c2.209,0,4.429,0.527,6.533,1.586l41.079,20.683v7.263  C168.52,97.07,121.04,97.07,121.04,97.07z M274.144,421.127c-7.516,2.167-14.253,6.212-19.672,11.594  c-7.455-6.573-16.801-10.542-26.784-11.302c-2.163-4.358-3.259-9.062-3.259-13.989c0-17.274,13.933-31.328,31.059-31.328  c8.436,0,16.312,3.361,22.127,9.336c-3.525,6.546-5.528,14.039-5.528,21.992C272.088,412.086,272.788,416.71,274.144,421.127z   M308.944,487.659c-5.824,5.965-13.756,9.341-22.126,9.341c-17.126,0-31.059-14.054-31.059-31.328s13.933-31.328,31.059-31.328  c8.38,0,16.302,3.373,22.126,9.34c-3.524,6.546-5.526,14.036-5.526,21.988S305.42,481.114,308.944,487.659z M349.478,497  c-17.126,0-31.059-14.054-31.059-31.328s13.933-31.328,31.059-31.328c17.126,0,31.059,14.054,31.059,31.328S366.604,497,349.478,497  z M424.881,446.258c0,24.644-17.519,45.241-40.663,49.801c7.047-8.14,11.319-18.771,11.319-30.387  c0-21.121-14.125-38.986-33.371-44.541c1.357-4.403,2.042-8.988,2.042-13.701c0-4.142-3.358-7.5-7.5-7.5s-7.5,3.358-7.5,7.5  c0,4.177-0.79,8.2-2.352,11.988c-11.046,0.627-21.066,5.187-28.69,12.307c-7.839-7.336-17.953-11.695-28.722-12.307  c-1.548-3.778-2.356-7.862-2.356-11.988c0-17.274,13.934-31.328,31.06-31.328c8.636,0,16.952,3.671,22.817,10.073  c2.798,3.055,7.542,3.262,10.596,0.463c3.054-2.798,3.262-7.542,0.463-10.596c-8.699-9.495-21.046-14.94-33.877-14.94  c-12.076,0-23.082,4.7-31.305,12.374c-8.455-7.938-19.532-12.374-31.354-12.374c-25.397,0-46.059,20.783-46.059,46.328  c0,5.279,0.905,10.537,2.645,15.489c-8.208,2.254-15.744,6.772-21.626,13.125c-2.814,3.039-2.632,7.784,0.407,10.599  c3.039,2.814,7.784,2.632,10.599-0.407c5.942-6.417,14.005-9.95,22.704-9.95c8.084,0,15.711,3.121,21.462,8.679  c-3.111,6.235-4.862,13.269-4.862,20.708c0,7.953,2.004,15.447,5.529,21.993c-5.811,5.977-13.676,9.335-22.128,9.335  c-17.126,0-31.059-14.054-31.059-31.328c0-4.142-3.358-7.5-7.5-7.5s-7.5,3.358-7.5,7.5c0,11.365,4.091,21.789,10.868,29.857  c-21.954-5.459-38.283-25.479-38.283-49.271V238.262H293.83c-0.034,0.731-0.052,1.468-0.052,2.207  c0,14.404,6.49,27.741,17.807,36.591c3.263,2.552,7.977,1.976,10.528-1.287c2.552-3.263,1.976-7.977-1.287-10.528  c-7.657-5.988-12.048-15.019-12.048-24.776c0-17.274,13.933-31.328,31.059-31.328c17.126,0,31.059,14.054,31.059,31.328  s-13.933,31.328-31.059,31.328c-4.142,0-7.5,3.358-7.5,7.5s3.358,7.5,7.5,7.5c25.397,0,46.059-20.783,46.059-46.328  c0-0.739-0.018-1.476-0.052-2.207h39.035v207.996H424.881z M424.881,223.262h-42.277c-6.806-17.05-23.411-29.121-42.766-29.121  c-19.355,0-35.96,12.071-42.766,29.121H150.685V180.02h43.18c1.998,0,3.914-0.797,5.322-2.215l23.598-23.762l23.598,23.762  c1.408,1.418,3.324,2.215,5.322,2.215h72.157c1.998,0,3.914-0.797,5.322-2.215l23.598-23.762l23.598,23.762  c1.408,1.418,3.324,2.215,5.322,2.215h43.18L424.881,223.262L424.881,223.262z M460.162,165.02h-75.34l-26.72-26.906  c-1.408-1.418-3.324-2.215-5.322-2.215s-3.914,0.797-5.322,2.215l-26.72,26.906h-65.913l-26.72-26.906  c-1.408-1.418-3.324-2.215-5.322-2.215s-3.914,0.797-5.322,2.215l-26.72,26.906h-75.34c-1.841,0-3.338-1.531-3.338-3.414  c0-1.108,0.529-2.151,1.411-2.787l64.949-46.749h151.774c4.142,0,7.5-3.358,7.5-7.5s-3.358-7.5-7.5-7.5H183.52V73.242h208.524V97.07  h-32.928c-4.142,0-7.5,3.358-7.5,7.5s3.358,7.5,7.5,7.5h38.126l64.842,46.746c0.886,0.639,1.415,1.682,1.415,2.79  C463.5,163.488,462.003,165.02,460.162,165.02z M289.498,298.711c0,25.545-20.662,46.328-46.059,46.328  s-46.059-20.783-46.059-46.328s20.662-46.328,46.059-46.328c4.142,0,7.5,3.358,7.5,7.5s-3.358,7.5-7.5,7.5  c-17.126,0-31.059,14.054-31.059,31.328s13.933,31.328,31.059,31.328s31.059-14.054,31.059-31.328  c0-9.033-3.869-17.629-10.614-23.584c-3.105-2.741-3.4-7.481-0.659-10.586s7.481-3.4,10.586-0.659  C283.781,272.683,289.498,285.377,289.498,298.711z"/>
<g>
</g>
<g>
</g>
<g>
</g>
<g>
</g>
<g>
</g>
<g>
</g>
<g>
</g>
<g>
</g>
<g>
</g>
<g>
</g>
<g>
</g>
<g>
</g>
<g>
</g>
<g>
</g>
<g>
</g>
</svg>
