<svg xmlns="http://www.w3.org/2000/svg" viewBox="0 0 512 512"><title>Artboard 134</title><g id="Grain_Bags" data-name="Grain Bags"><path d="M83.2,42.66667S121.6,21.33333,256,21.33333,428.8,42.66667,428.8,42.66667s19.2,17.45454,19.2,192-19.2,192-19.2,192S390.4,448,256,448,83.2,426.66667,83.2,426.66667s-19.2-36.84849-19.2-192S83.2,42.66667,83.2,42.66667Z" style="fill:#97623f"/><circle cx="330.66667" cy="181.33333" r="10.66667" style="fill:#764126"/><path d="M393.38542,131.90072q-.66212,0-1.33106.02734A32.00029,32.00029,0,0,0,361.38965,165.21c.84733,20.70475,1.277,44.07357,1.277,69.45671,0,36.21451-.86752,67.97786-2.57813,94.40722q-.06446.99806-.06771,1.98438-.12841.978-.19759,1.97461c-.63769,9.19173-1.33333,17.03222-2.03515,23.68815q-2.87159.40771-6.00749.80892a32,32,0,1,0,8.10319,63.485,367.5942,367.5942,0,0,0,37.51042-6.54557l.00032-.00032c.06087-.01433.11979-.028.18034-.04232l.01953-.00456.07487-.0179.03711-.00879.00846-.002.07943-.01888.014-.00325.029-.00684.01107-.0026.0306-.00749c.04231-.01009.08333-.01985.12565-.02962l.01009-.0026.00749-.00163.20247-.0485.01139-.00261.03516-.00846.00814-.002.0332-.00813.00911-.002c6.77344-1.624,11.63868-3.10644,14.88672-4.21777h0l-.14388-.42025h0l.14388.42025h0l-.14388-.42025.25423.08236.00521-.0166.00944-.02865.001-.00358.00651-.02051.00065-.00195.00684-.02083.00065-.002.014-.04394.01074-.0332.001-.00359.00977-.02994.00879-.028.00195-.00618.00586-.01791c1.45443-4.56347,3.56055-12.86849,5.668-27.11132l.002-.013.00716-.04947.002-.0127c.00814-.05469.0166-.11165.02441-.16634l.001-.00651.00618-.04232.00358-.02311.00619-.043.00423-.029.00553-.03613c.0101-.07064.02019-.13933.0306-.21029l.00163-.01074.01953-.13412.00423-.029c.029-.19824.0573-.3942.08627-.5944l.00032-.00293c1.56543-10.86979,3.11947-25.05534,4.39616-43.46094q.07422-1.07178.07748-2.13053.13329-1.01709.20312-2.054c1.27962-19.7513,2.23926-44.11458,2.58073-74.0957v-.00716c.00618-.54069.012-1.07162.01758-1.61589l.00032-.00911c.00456-.43555.00879-.86849.01335-1.30632v-.00195c.002-.21908.00423-.43294.00618-.65234l.00033-.00944c.002-.21941.00391-.42676.00586-.64681l.00033-.01986q.00732-.81543.01432-1.63672l.00032-.00977.001-.1442.00033-.03809c.00065-.0485.001-.09635.0013-.14485l.00032-.02409c.00065-.097.00131-.18913.00228-.28613l.00033-.03223.001-.14974.00033-.03027c.0013-.153.0026-.305.00358-.45834l.00033-.0345.0013-.15267v-.00814c.001-.14616.00228-.28906.00325-.43555.00033-.03353.00065-.06608.00065-.09961.00326-.43261.00651-.86784.00944-1.30273v-.00456l.00782-1.1595v-.04069l.001-.11849c0-.03614.00033-.07325.00065-.10938.00033-.07747.001-.165.00131-.24251l.00032-.01888.00065-.14388.00033-.04492.001-.14128.00032-.05534c.00033-.0778.00065-.14485.0013-.22265l.00033-.0892c.00032-.03548.00065-.08138.00065-.11686l.00065-.07975.00065-.11458.00033-.04948c.00032-.09929.001-.19011.0013-.28972l.00032-.016.00066-.14811.00032-.05273c.001-.14909.00163-.30306.00228-.45248l.00033-.04.00065-.14746.00032-.0485.001-.17285c0-.0459.00032-.08627.00065-.13249l.00032-.12044.00066-.08627c0-.043.00032-.08723.00065-.1302v-.00651c.00032-.09994.001-.20443.0013-.30437l.00032-.04036.00033-.12988.00065-.08855.00033-.10774.001-.1836.00033-.10677.00032-.084.00066-.12826.00032-.06966c0-.05729.00033-.12142.00065-.179,0-.04395.00033-.0892.00065-.13314,0-.029,0-.07.00033-.09864l.00032-.08854.00033-.12662.00033-.06641c.00032-.07194.00065-.12761.00065-.19955l.00065-.12011.00032-.10417.00033-.07389.00032-.14193.00033-.01888.00293-.95768c.00032-.0319.00032-.06738.00032-.09929.00033-.04362.00033-.083.00033-.1263l.00033-.03906.001-.32227v-.0026c0-.03613,0-.07812.00033-.11426v-.09179l.00065-.13184v-.03874c.00032-.10189.00065-.19726.00065-.29915l.00033-.02474v-.11556c.00032-.03711.00032-.07422.00032-.11133l.00033-.09831.00032-.154.00033-.08724c0-.05468,0-.11.00032-.16471v-.06934c.00033-.04948.00033-.097.00033-.14681l.00032-.08333.00033-.17285c0-.044,0-.08073.00032-.12468v-.09472l.00033-.10417v-.12109c.00033-.0586.00033-.10547.00033-.16407.00032-.03743.00032-.08007.00032-.11751,0-.03678,0-.06836.00033-.10514v-.10677c0-.0293,0-.06641.00032-.096v-.13509c0-.03646,0-.0739.00033-.11035v-.17481l.00032-.05989v-.16635l.00033-.0524c0-.14519.00032-.28842.00032-.43392v-.07748l.00033-.15625V236.669l.00033-.14258v-.193c.00032-.22168.00032-.4414.00032-.66341v-.06575c.00033-.14388.00033-.28841.00033-.43229v-1.349c-.00033-.03744-.00033-.071-.00033-.10873v-.515l-.00032-.04427v-.38151c-.00033-.05892-.00033-.10026-.00033-.15918v-.24382c-.00033-.03418-.00033-.06673-.00033-.10058v-.12338c0-.08821-.00032-.17545-.00032-.26367,0-.0459,0-.0931-.00033-.139v-.21192c-.00032-.03223-.00032-.0651-.00032-.09733v-.09147l-.00033-.08659v-.16536l-.00032-.09017v-.06446c-.00033-.22688-.001-.45475-.00131-.68131v-.03386c-.00032-.10937-.00032-.21289-.00065-.32226v-.00261l-.00032-.15787v-.05078c-.00033-.04362-.00033-.09375-.00033-.1377v-.00325l-.00065-.16179v-.03157c0-.03646,0-.08431-.00032-.12045v-.06315l-.00033-.08984v-.09147c-.00032-.0293-.00032-.06673-.00032-.096l-.00033-.055v-.096c-.00033-.0319-.00033-.06413-.00033-.096v-.00586c-.00032-.05046-.00032-.10189-.00032-.15235l-.00033-.0345-.00032-.16569-.001-.2985v-.04981c-.00032-.04329-.00032-.07975-.00032-.12337l-.00033-.06738-.00033-.08106v-.07812l-.00065-.12175v-.027l-.00032-.13216-.00033-.042c0-.05046,0-.09277-.00032-.14355v-.02279l-.00065-.13281v-.04037c0-.04329-.00033-.10449-.00066-.14778v-.02247l-.00032-.15039-.00033-.016-.00032-.13086-.00033-.05306v-.07487l-.00032-.08821c-.00033-.05762-.00065-.10384-.00065-.16146l-.00033-.05208-.00032-.12142-.00033-.05762-.00033-.10189-.00032-.06022-.00033-.11621-.00032-.056-.00033-.11361-.00032-.03776c0-.043-.00033-.08919-.00065-.13216v-.04557l-.00066-.13672v-.0166l-.00065-.12012-.00032-.08333c0-.043-.00033-.08692-.00065-.12988v-.00359l-.002-.49349-.00032-.02734c-.00033-.11426-.001-.21159-.00163-.32552v-.05794l-.00065-.1084c-.00033-.09375-.001-.18294-.0013-.27669l-.00033-.03972-.00032-.10807-.00033-.056-.00065-.08138-.00033-.11165-.00032-.0625-.00033-.0612c-.00032-.03939-.00065-.0765-.00065-.11589l-.00032-.04882-.00065-.12142v-.014c-.00033-.04264-.00066-.08594-.00066-.12826l-.00065-.09212-.00032-.0804-.00033-.02377-.001-.17675c-.00033-.099-.001-.18978-.00163-.28874v-.02246l-.001-.13314-.00032-.08529-.00033-.06673-.001-.14323v-.00521l-.00065-.10579-.00032-.08431c-.00033-.03418-.00065-.0651-.00065-.09928l-.00033-.03744c-.00032-.04394-.00065-.08659-.00065-.13053l-.00033-.01888c-.00032-.08952-.001-.17806-.00162-.26758-.00033-.03516-.00065-.083-.00065-.11816l-.00033-.0586-.00065-.08105-.00065-.0791-.00033-.07-.001-.13639c-.00033-.07032-.00065-.1403-.00131-.21062l-.001-.15983-.00065-.07259-.00065-.12825-.00033-.013c0-.03549-.00033-.07162-.00065-.1071l-.00033-.07389-.001-.098-.00033-.04589c0-.03549-.00032-.07194-.00065-.10743l-.00033-.06054-.002-.27832v-.00977c-.001-.10156-.00163-.20052-.00228-.30176v-.00488c-.15527-21.14551-.611-39.63607-1.27181-55.78874a32,32,0,0,0-31.95084-30.692Z" style="fill:#c28d5f"/><circle cx="394.66667" cy="160" r="10.66667" style="fill:#a77554"/><circle cx="416" cy="288" r="10.66667" style="fill:#a77554"/><circle cx="373.33333" cy="394.66667" r="10.66667" style="fill:#a77554"/><circle cx="416" cy="394.66667" r="10.66667" style="fill:#a77554"/><path d="M212.58952,64.81966c-.14258,0-.28646.00293-.43.00846q-8.94728.3545-17.15007.8405h-.00033c-.15169.00879-.30175.01758-.45312.02669l-.09082.00521-.02051.0013-.10937.00651-.07227.00424-.07454.00455-.06576.00391-.07584.00456-.057.00358c-.03744.002-.06543.0039-.10319.00618l-.03906.00228-.109.00651-.03451.00195-.43359.02637-.02962.002-.11329.00684-.03418.00195c-.09342.00586-.18261.0114-.276.01693l-.00748.00065c-13.63672.83757-25.735,1.92057-36.44174,3.14714h-.00227c-.23438.027-.46582.05371-.69922.08073l-.00358.00032-.10385.01205-.02278.0026-.0791.00911-.0446.00521-.08431.00977-.0153.00195-.09082.01042-.029.00358-.19629.02279-.08171.00976-.04492.00521-.07584.00879-.01791.00228-.08724.01009-.02116.0026c-.02962.00326-.05859.00684-.08821.01042l-.00326.00032q-2.07274.24414-4.07584.49512-.28761.03614-.56934.08659c-.18262.01367-.36686.0319-.55078.05469-.4235.054-.847.10872-1.26563.16308a10.66647,10.66647,0,0,0,1.42839,21.23666,10.80264,10.80264,0,0,0,1.37467-.08822L152.044,90.959q.27587-.03564.5472-.08463.27929-.0205.56152-.05567c17.833-2.234,37.97-3.80664,59.85156-4.67415a10.66662,10.66662,0,0,0-.41471-21.32487ZM340.348,67.43555a10.66732,10.66732,0,0,0-.94857,21.29036l1.12273.10352q.28465.02637.56673.03743.28368.042.57291.06966c22.75163,2.15886,42.248,5.22233,57.94792,9.1058A10.66674,10.66674,0,1,0,404.73242,77.333c-3.28906-.81348-6.96094-1.64877-11.04622-2.486l-.01986-.00424-.08594-.01757-.00228-.00033L393.486,74.806l-.01758-.00358-.0791-.01628-.01692-.00325-.06706-.01367-.0293-.00586c-.0612-.0127-.12207-.02507-.18359-.03744l-.01074-.00228-.09082-.01823-.00066-.00032c-.09309-.01888-.1875-.03776-.28125-.057l-.03385-.00651-.07259-.01465-.01107-.00228c-.06185-.01237-.12239-.02474-.18457-.0371l-.04-.00814-.0459-.00912-.05045-.01009-.04492-.00911-.03679-.00749-.0459-.00911-.11035-.02181-.013-.00261-.1543-.03092h-.00065l-.23079-.0459-.00651-.0013-.06413-.0127-.02669-.00521-.29818-.05892-.00683-.0013c-12.20183-2.4043-27.84538-4.78646-47.59636-6.65918q-.27393-.0249-.54525-.03581-.29247-.043-.59049-.071-.57763-.05371-1.15951-.10677-.5-.0459-.99186-.04557ZM256,64h-.1696q-.50732,0-1.013.00065a10.66667,10.66667,0,0,0,.0153,21.33333h.00489L256,85.33333h0c14.56478,0,28.67676.25912,41.94466.77051.14.00521.27865.00781.41764.00781a10.66672,10.66672,0,0,0,.40332-21.32552q-17.105-.65868-36.999-.77278l-.02637-.00033q-.6826-.00292-1.36849-.00553h-.0524q-.16115-.0005-.32162-.00131H259.957l-.14323-.00032-.04134-.00033c-.04,0-.07943,0-.11979-.00032h-.07747c-.04-.00033-.0778-.00033-.11817-.00033l-.05469-.00032-.12955-.00033h-.05437c-.04394-.00032-.08886-.00032-.13281-.00032l-.083-.00033-.07682-.00032h-.12858l-.07454-.00033c-.03256,0-.06348,0-.096-.00033h-.08724l-.06413-.00032c-.07715,0-.15234,0-.22917-.00033h-.08528l-.06673-.00032H257.985l-.097-.00033h-.19108l-.085-.00032h-.1058c-.03255,0-.0638,0-.09635-.00033h-.27116c-.03288-.00032-.07943-.00032-.112-.00032H256.762c-.04069,0-.08951,0-.13053-.00033H256Z" style="fill:#a77554"/><path d="M90.42025,94.35319a21.33628,21.33628,0,0,0-21.18815,19.082c-2.63282,25.40853-4.708,59.165-5.14649,103.57943v.015q-.01709,1.69776-.03027,3.41667l-.00033.03418c-.001.1263-.00228.27083-.00325.39746v.03581c-.0013.13574-.00228.27311-.00326.40885v.02116c-.00228.28971-.00423.55892-.00618.84928v.02474l-.00293.41765v.00976c-.002.291-.00391.57064-.00554.86263l-.00032.01986-.001.19694v.01595c-.00065.07324-.001.13639-.0013.20931v.00944c-.00065.07324-.001.125-.0013.19824v.02474c-.00065.0638-.001.11979-.0013.18392v.03288c-.00033.07292-.001.13476-.00131.208v.00618c-.00065.14649-.00162.28939-.00227.4362v.00032l-.001.18946-.00033.04883-.001.19954v.00846l-.001.18132-.00033.05176-.00195.41406v.01628l-.002.40266v.06283l-.001.16406v.04395c-.00032.05534-.00065.11881-.00065.17448l-.00033.06412c-.00065.12924-.001.25163-.00162.38086l-.00033.069-.00032.14616-.00033.04916c-.00032.05566-.00065.13574-.00065.1914L64.012,227.96l-.00032.15072-.00033.05436-.00065.19075v.03679c-.00032.0651-.00065.12663-.00065.19173l-.00032.014c0,.07422-.00033.13248-.00066.2067v.04167l-.00065.17187v.03288l-.00065.1836v.057l-.00065.179v.02571l-.001.42383-.00032.0267c0,.056,0,.11-.00033.166v.06185l-.00065.19141v.03743l-.00032.155-.00033.06706c0,.06543,0,.12239-.00032.18782v.041l-.00033.15722v.06739c-.00032.06543-.00032.12858-.00065.19433v.0114c0,.06575,0,.13313-.00033.19889v.02865c0,.07487-.00032.13574-.00032.21061v.014c0,.06543-.00033.1237-.00033.18913v.05274c-.00032.13151-.00032.27181-.00065.40364v.043c0,.06576,0,.13281-.00032.19857v.28157c-.00033.03744-.00033.09278-.00033.13054v.25423l-.00032.03939v.47135L64,233.94792v1.4414l.00033.09082v.48666l.00032.13737v.24251c0,.03743,0,.06348.00033.10124v.25293c.00032.03125.00032.0638.00032.095v.13346c0,.07813.00033.15625.00033.234v.06543c.00032.06087.00032.12337.00032.18457v.05762c.00033.05566.00033.1123.00033.16829l.00032.10645c0,.04525,0,.09017.00033.13574v.10059l.00033.14192v.08366c.00032.05729.00032.11231.00032.1696l.00033.07845c0,.04427,0,.08854.00032.13249v.1136c.00033.04916.00033.099.00033.14811l.00032.08269c0,.07.00033.138.00033.20768l.00032.027c0,.08138.00033.16373.00065.24511v.01042c0,.07227.00033.14518.00033.21745.00033.028.00033.08138.00033.10937.00032.04362.00032.08659.00032.13054l.00033.085.00065.15918v.09017l.00065.13932.00032.09733.00033.141.00033.10287.00065.15006v.07c.00032.068.00065.13867.00065.2067l.00032.02735c.001.321.00228.64225.00358.96191l.00033.06218c0,.05761.00032.1136.00065.17122l.00033.08529.00065.13867.00032.10059c.00033.05371.00065.10579.00065.1595l.00033.06348c.00032.05468.00065.11067.00065.16536l.00065.0765c0,.06022.00033.12174.00065.18164l.00033.0485.00586,1.19694.00032.03711c.00033.06966.00065.14225.0013.21192v.01269q.00049.10986.00131.22038v.03223c.001.15462.00195.30631.0026.46061l.00033.01367.00586.95573.00032.0345c.10938,16.7614.44889,32.054.96419,45.99252q.01076.291.0293.58007.00293.26075.01172.52214c2.49284,65.89844,8.91829,101.31283,13.41374,118.65007a21.33349,21.33349,0,0,0,41.28743-10.76172c-3.46387-13.37956-9.637-45.3877-12.0625-109.43653-.00716-.18815-.0166-.37662-.02864-.56347-.002-.18815-.00651-.37728-.01368-.56641-.64583-17.47656-.9733-36.415-.9733-56.28971,0-45.44694,1.682-84.738,4.99935-116.78158a21.3501,21.3501,0,0,0-21.24577-23.5319Z" style="fill:#69341c"/><path d="M83.2,426.66667S64,448,42.66667,448s-21.33334-21.33333-21.33334-21.33333,0-21.33334,21.33334-21.33334H85.33333Z" style="fill:#69341c"/><path d="M428.8,426.66667S448,448,469.33333,448s21.33334-21.33333,21.33334-21.33333,0-21.33334-21.33334-21.33334H426.66667Z" style="fill:#97623f"/><path d="M83.2,42.66667S64,21.33333,42.66667,21.33333,21.33333,42.66667,21.33333,42.66667,21.33333,64,42.66667,64H85.33333Z" style="fill:#97623f"/><path d="M428.8,42.66667S448,21.33333,469.33333,21.33333s21.33334,21.33334,21.33334,21.33334S490.66667,64,469.33333,64H426.66667Z" style="fill:#97623f"/><path d="M256,42.66667h-.60221c-.04916.00032-.09245.00032-.14161.00032h-.28059l-.12924.00033h-.26009c-.02441.00032-.0651.00032-.08952.00032h-.097c-.04069,0-.07162,0-.11231.00033h-.05989c-.057,0-.11393,0-.1709.00032h-.17676l-.08073.00033h-.10058l-.09343.00033c-.04069,0-.083,0-.12337.00032h-.03353c-.0651,0-.11914.00033-.18424.00033h-.04427c-.04069.00032-.10157.00032-.14193.00032l-.0612.00033c-.03255,0-.07031,0-.10286.00032H252.82l-.08627.00033-.09765.00032h-.071c-.0332.00033-.06543.00033-.09863.00033l-.16308.00065h-.07813c-.04036.00033-.06641.00033-.10677.00033l-.08008.00032-.09733.00033-.082.00032-.09473.00033-.08528.00032c-.113.00033-.23177.00065-.34473.00131h-.06771l-.125.00065H251.097l-.13672.00065-.05274.00032-.11653.00033c-.11263.00065-.22234.001-.33464.00163l-.07617.00032c-.02637,0-.06185,0-.08822.00033l-.08919.00032-.10482.00065h-.04915c-.03972.00033-.08041.00066-.12012.00066l-.03678.00032-.23731.001-.057.00032-.08724.00065-.08692.00033-.08984.00032-.08887.00066-.08756.00032-.08562.00065-.09179.00033-.16374.001-.05859.00033c-.03972.00033-.0739.00065-.11361.00065-.03288.00033-.06152.00065-.0944.00065l-.07715.00065-.08529.00033-.10221.00065-.08008.00065c-.03971,0-.06478.00033-.10449.00065l-.06641.00033-.16569.001-.06966.00065c-.03971,0-.07357.00033-.11328.00066l-.06673.00032-.1097.001-.06738.00032-.13575.001-.03548.00033c-.127.00065-.234.00162-.361.0026l-.04069.00033-.13379.001-.06315.00033-.1276.001-.03939.00033-.17155.0013h-.00749l-.36263.00293-.03646.00033c-.05534.00065-.11263.001-.168.0013h-.002l-.18262.00163h-.00879c-.11849.001-.24218.00228-.36067.00325l-.07227.00065-.09993.001-.07585.00065c-.03158.00033-.06934.00065-.10091.00065l-.07292.001c-.0472.00032-.10058.00065-.14778.0013h-.01563c-.06282.00065-.11947.0013-.18229.00163l-.02246.00032-.16048.00163-.03223.00033c-.0472.00032-.09473.00065-.1416.0013l-.0485.00032-.12468.00131-.0651.00065-.08627.001c-.04492.00033-.0817.00065-.12695.00131-.04687.00032-.08073.00065-.1276.0013l-.04134.00032-.13575.00131-.05892.00065-.11263.0013-.06608.00065-.10774.001-.06967.001c-.1097.001-.22981.00228-.33886.00358l-.06153.00065c-.03906.00033-.07389.00066-.113.00131l-.06836.00065-.10254.0013-.07064.00065-.125.00163-.0472.00032-.16829.002-.05632.00065c-.03906.00065-.07584.001-.11491.0013l-.0664.001c-.03907.00032-.07292.00065-.11166.0013l-.06315.00065-.13346.00163-.03125.00032c-.124.00163-.237.00293-.361.00456l-.01954.00033c-.04655.00032-.09049.001-.137.00162l-.08073.001-.09147.0013-.07845.001-.09994.0013-.06836.00065c-.05436.001-.113.00163-.167.00228l-.0358.00033-.13217.002-.06412.00065-.12435.002-.03483.00033-.14388.002-.04134.00065-.15625.002-.0153.00032-.16765.00228-.06413.001c-.03841.00032-.07649.001-.1149.00162l-.05925.00066-.10612.00162-.06966.001-.11784.00163-.05045.00065-.34375.00521-.03972.00032-.13639.00228-.04753.00065-.12435.00163-.05175.001-.09571.0013c-.069.0013-.13769.00228-.2067.00325l-.03321.00065-.07356.001-.09636.00163-.06771.001-.11165.00163-.06217.001-.10254.00163-.06869.001c-.10677.002-.22819.00391-.335.00554l-.05566.001-.11361.00163-.05534.001-.12435.002-.04948.001-.1608.0026h-.00163l-.17578.00293-.04134.00065-.13282.00228-.05013.001-.11751.002-.05664.001-.13639.00228-.02832.00065-.13705.00228-.04394.00065c-.06088.0013-.10352.002-.16407.00293l-.04948.001-.11067.002-.08919.00162-.07422.00131-.08562.00162-.08333.00131-.08463.00162c-.04525.00065-.09929.00163-.14454.00261l-.054.001-.11459.002-.08365.00162-.09831.002-.05534.001-.11458.002-.0599.0013-.10351.002-.07129.0013-.01758.00033-.26009.00488-.027.00065-.10352.002-.069.0013-.09277.002-.06966.0013c-.03093.00066-.06218.00131-.0931.00163l-.057.0013c-.06185.00131-.12728.00261-.1888.00358l-.069.00163c-.0306.00033-.05534.001-.08626.00163l-.07129.0013-.09961.002-.05794.0013-.11231.00228-.02409.00032c-.123.00261-.25488.00521-.37793.00781l-.05924.00131-.08594.00162-.08691.002-.06446.0013-.0983.002-.085.002-.08334.00162-.06738.00163-.15723.00326L230.78,42.93c-.03711.00065-.05794.001-.09538.002l-.083.00162-.068.00163-.09505.002-.08692.002-.06738.00163-.32878.00716-.05761.0013-.08985.002-.10091.00228-.06087.0013-.08333.002-.10645.00227-.06022.00131-.15918.0039-.03874.00065c-.04427.001-.07389.00163-.11816.00293l-.068.00131-.10807.0026-.057.0013-.10352.00261-.0612.0013c-.10351.00228-.22265.00521-.32584.00749l-.05469.0013c-.03679.001-.07194.002-.10873.0026l-.05631.0013c-.03679.001-.07194.002-.10873.00261l-.06315.00163-.13281.00325-.02148.00065c-.05144.001-.08952.002-.141.00326l-.07357.002-.12956.00293-.0179.00065-.13965.00326-.0446.0013-.141.00325-.02213.00065c-.17611.00424-.34115.00847-.5166.013h-.00944l-.15625.00424-.02312.00032c-.0511.00163-.083.00228-.13411.00358l-.04557.0013-.3252.00814-.03288.001-.15039.00391-.00683.00032-.15528.00391-.02474.00065c-.16764.00456-.33593.00879-.50293.01334l-.03548.001-.12012.00326-.06315.00162-.11295.00326-.03874.001c-.11621.00325-.22168.00618-.33789.00911-.00586.00033.00033,0-.00553.00033l-.14453.0039-.05469.00163c-.04362.001-.08724.00228-.13054.00358l-.02181.00065-.15755.00423-.00944.00033c-.10872.00293-.22265.00618-.33105.00944l-.04785.0013-.11784.00326-.03972.0013c-.04329.001-.08886.00228-.13216.00358l-.03678.001c-.10807.00325-.21615.00618-.32422.00944l-.02767.001c-.10807.00293-.21419.00619-.32194.00912l-.00586.00032c-.223.00651-.44922.01335-.67122.01986l-.03679.001-.12467.0039-.04037.0013-.12109.00359-.04753.0013-.154.00488-.04785.0013-.10449.00326-.06576.002-.098.00326-.071.002-.07162.00228-.08821.0026c-.02865.001-.05274.002-.08138.00261l-.08692.00293c-.0498.0013-.08854.0026-.13834.00423l-.04395.0013c-.03548.0013-.07845.0026-.11393.00358l-.04883.00163-.12272.0039-.03581.001-.48795.01563-.03353.001c-.04232.00163-.082.00293-.12468.00423l-.04231.00131-.12175.0039-.04427.00163c-.16309.00521-.3278.01042-.49023.01595l-.00944.00033-.14812.00488-.02571.001-.1556.00489-.00488.00032c-.113.00391-.21452.00716-.32715.01107l-.03255.001-.137.00455-.01986.00066c-.73242.02506-1.44791.0498-2.17317.07617l-.01172.00032-.14974.00554-.01758.00065-.12858.00456-.05241.002c-.10449.0039-.2015.00749-.306.01107l-.02311.001c-.04883.002-.09115.00326-.13965.00521l-.02734.001-.13249.00488-.027.001c-.21517.00814-.42806.01595-.6429.02409l-.027.001c-.21452.00814-.42676.01628-.64062.02442l-.01823.00065-.15039.00586-.01075.00065c-.04817.00163-.08919.00325-.13737.00521l-.03157.0013c-.04818.00163-.09245.00358-.14063.00521l-.0179.001c-.04818.00163-.10059.00391-.14876.00554l-.07194.00293-.07129.00293-.07552.00293-.08431.00325-.06706.00261-.13672.00553h-.00163l-.154.00618-.05924.00228-.09506.00391-.07128.00293-.07585.00293-.07031.00293-.08854.00325-.07032.00293-.0612.00261-.1136.00455-.11556.00456-.03711.00163-.12565.00521-.03418.0013-.11621.00488-.04427.00163c-.03418.00163-.069.00293-.10319.00423l-.058.00261-.14518.00586-.08594.00358-.04882.002-.08887.00391-.07064.00293-.08366.00325-.05045.00228-.0918.00391-.06771.0026c-.0446.002-.09342.00423-.138.00586l-.08138.00358-.06185.0026-.08626.00358-.06087.00261-.09278.00391-.06738.00292-.08464.00359-.05892.0026-.11.00456-.05339.00228c-.04752.00227-.096.00423-.14323.00618l-.02148.001-.1084.00488-.07357.00293-.09114.00423-.057.00228-.10384.00456-.03971.00162c-.054.00261-.09733.00424-.151.00684l-.03125.0013-.1149.00489-.06088.00293-.10123.00423-.03321.00162c-.04.00163-.08561.00359-.126.00554l-.03386.00163c-.09407.0039-.20377.00879-.29752.013l-.0472.00228-.11231.00488-.03939.00195-.10319.00456-.05306.00228-.139.00651h-.00066c-.10026.00456-.2067.00911-.307.01367l-.0446.00228c-.0332.0013-.07422.00325-.10775.00488l-.04687.00195-.12337.00586-.01726.00065-.112.00521-.08041.00358c-.03971.002-.07975.00391-.11979.00554l-.01172.00065-.13672.00651-.0358.00163-.12338.00553-.02767.0013-.12174.00586-.03385.00163-.30274.014-.02539.0013-.1276.00618-.03158.00131-.10384.00488-.06315.00293c-.15235.00749-.29557.01432-.44759.02148l-.00684.00033c-.04655.00228-.08431.00423-.13053.00618l-.04395.00228-.12988.00619-.01139.00065c-.1517.00716-.30632.015-.458.02213l-.03581.002-.11849.00586-.027.0013-.14388.00683c-.00521.00033.001,0-.00455.00033l-.31413.01562h0q-1.565.07764-3.10612.15951l-.0332.00163-.58594.03157-.03939.002c-1.38379.07454-2.74414.15136-4.09831.23079l-.01823.001-.12337.00748-.0306.00163q-2.105.124-4.16406.25586l-.00358.00033c-.14779.00944-.292.01855-.43945.028l-.00586.00065-.12305.00781-.03678.00228c-63.666,4.1224-93.08464,13.60352-102.93425,17.56869a10.61647,10.61647,0,0,0-5.01237,4.17155c-.42708,1.09928-.97233,2.61133-1.60579,4.60091A10.66281,10.66281,0,0,0,95.16764,81.99219C105.65658,77.77148,148.25293,64,256,64h0c24.97786,0,48.31413.75911,69.361,2.25586q.2876.0205.57194.02539.28272.03564.57032.05664c48.3457,3.5127,74.12955,10.1543,85.196,13.80046a10.66666,10.66666,0,0,0,6.695-20.25554c-12.262-4.04264-36.51856-10.13281-78.6849-13.88183l-.02018-.002-.11817-.01041-.00488-.00065c-1.71549-.152-3.4528-.29948-5.22754-.44369l-.00781-.00065c-.182-.01465-.35612-.029-.53874-.04362l-.00911-.00065-.26042-.02083-.0179-.00163c-.04-.00293-.06966-.00554-.1097-.00879l-.03776-.00293-.08431-.00651-.05957-.00488-.09278-.00749-.0358-.00261-.10971-.00878-.02311-.002-.11946-.00944-.01693-.0013-.11361-.00911-.0306-.00228-.10872-.00847-.03516-.00293-.08919-.00683-.06413-.00521-.06868-.00521-.082-.00651-.05013-.00391-.08789-.00683-.05892-.00456-.08431-.00683-.04851-.00359-.09244-.00716-.05371-.00423-.08171-.00651-.056-.00423-.08626-.00651-.05664-.00456-.0944-.00716-.03874-.00293-.10417-.00814-.03841-.00293-.12109-.00944-.01172-.00065-.1084-.00846-.04785-.00358-.08268-.00651-.05469-.00391-.08952-.00684-.055-.00423-.082-.00618-.058-.00456-.07324-.00553-.07422-.00554-.07845-.00586-.05469-.00423-.09277-.00716L330.054,45.209l-.25228-.01888-.02962-.00227-.12077-.00912-.01921-.0013-.08756-.00651-.06185-.00456-.06218-.00488-.07584-.00554-.044-.00325c-.13509-.01009-.27311-.02018-.40853-.03027l-.26367-.01954-.01855-.0013c-.08724-.00618-.17871-.013-.26595-.01953l-.0433-.00293-.10417-.00781-.0472-.00326c-.02734-.002-.05957-.00423-.08691-.00651l-.0153-.001c-.19661-.01433-.3916-.02312-.58626-.0267q-.27832-.03467-.56087-.05566c-13.65853-.97168-28.97429-1.69694-46.0931-2.057h-.00065c-.23894-.0052-.472-.01009-.71159-.015h-.01237c-.83822-.01725-1.67253-.0332-2.51953-.0485h-.00293c-.24187-.00456-.4808-.00879-.72331-.013H276.832c-.78874-.014-1.57715-.0267-2.37337-.03907h-.00488c-.05339-.001-.10515-.00162-.15886-.00227l-.03939-.00066-.71614-.01074h-.00521c-.24609-.00358-.48307-.00716-.72982-.01041l-.01725-.00033c-.30827-.00423-.60319-.00814-.91244-.01237h-.00651c-.06184-.00065-.12011-.00163-.182-.00228h-.00065c-.4336-.00553-.86133-.01107-1.29688-.01627h-.02409l-.14648-.002-.04427-.00032c-.04655-.00065-.10059-.00131-.14746-.00163L270,42.74609c-.12467-.00162-.23763-.00293-.3623-.00423l-.0153-.00032c-.04688-.00033-.11036-.001-.15723-.00163l-.04395-.00033c-.04687-.00065-.096-.0013-.1429-.00162l-.02995-.00033c-.05469-.00065-.10351-.0013-.1582-.00163l-.02474-.00032c-.125-.0013-.23307-.00261-.3584-.00391l-.03157-.00032c-.0472-.00033-.10189-.001-.14877-.00163l-.03873-.00033c-.03939-.00032-.08431-.00065-.1237-.0013l-.06706-.00065c-.04687-.00033-.08854-.00065-.13574-.0013l-.0332-.00033-.181-.00163-.01465-.00032c-.05469-.00033-.109-.001-.16407-.00163L267.737,42.722c-.0472-.00033-.0957-.00066-.1429-.00131l-.04786-.00032-.53808-.00489-.027-.00032-.14583-.0013-.04525-.00033c-.24447-.00228-.49024-.00423-.73535-.00618h-.00521l-.17611-.00163h-.01823c-.05534-.00065-.11263-.001-.168-.0013l-.01888-.00033c-.11881-.001-.24056-.00195-.35937-.0026l-.05111-.00033c-.04752-.00065-.083-.00065-.13053-.001l-.04818-.00066-.153-.001h-.01953c-.12728-.001-.24024-.002-.36752-.00261l-.04166-.00032-.13282-.001-.056-.00032-.13444-.001-.04264-.00033-.17415-.001h-.00065c-.06348-.00065-.12566-.001-.18946-.0013h-.00846l-.17741-.001-.02246-.00033-.1582-.001h-.03516l-.1429-.001-.05013-.00033c-.04-.00032-.09571-.00065-.13575-.00065l-.04264-.00032-.17155-.001-.06055-.00032-.11946-.00066-.06576-.00032-.11458-.00065-.06543-.00033-.09766-.00032-.13834-.001-.11393-.00032-.0918-.00066-.07162-.00032-.10188-.00033-.08138-.00032-.097-.00065-.07585-.00033-.09114-.00032c-.12077-.00033-.23568-.001-.35645-.00131l-.03711-.00032-.13509-.00065h-.06413l-.111-.00065-.07552-.00033-.15788-.00033h-.00846c-.06445-.00032-.12337-.00065-.18815-.00065l-.026-.00032-.15495-.00033-.05078-.00032-.126-.00033-.06413-.00032c-.0485,0-.08431,0-.13281-.00033h-.04525c-.0485-.00032-.11556-.00032-.16406-.00065h-.0192l-.17383-.00033-.07259-.00032-.10222-.00033h-.085c-.04069-.00032-.07519-.00032-.11588-.00032l-.0472-.00033c-.057,0-.11133,0-.168-.00032h-.01433c-.12207-.00033-.235-.00033-.35709-.00065l-.07487-.00033h-.1722c-.04883-.00033-.0931-.00033-.14193-.00033h-.043c-.12207-.00032-.23665-.00032-.359-.00065h-.08789c-.02441,0-.06706,0-.0918-.00032h-.25716l-.13216-.00033h-.28255c-.041,0-.0918,0-.13249-.00032H256Z" style="fill:#69341c"/><circle cx="181.33333" cy="74.66667" r="10.66667" style="fill:#c28d5f"/><circle cx="266.66667" cy="74.66667" r="10.66667" style="fill:#c28d5f"/><circle cx="288" cy="117.33333" r="10.66667" style="fill:#764126"/><circle cx="416" cy="74.66667" r="10.66667" style="fill:#4d2100"/><circle cx="288" cy="32" r="10.66667" style="fill:#764126"/><circle cx="138.66667" cy="117.33333" r="10.66667" style="fill:#764126"/><circle cx="160" cy="138.66667" r="10.66667" style="fill:#764126"/><circle cx="202.66667" cy="117.33333" r="10.66667" style="fill:#764126"/><circle cx="224" cy="202.66667" r="10.66667" style="fill:#764126"/><circle cx="266.66667" cy="160" r="10.66667" style="fill:#764126"/><circle cx="181.33333" cy="181.33333" r="10.66667" style="fill:#764126"/><circle cx="181.33333" cy="224" r="10.66667" style="fill:#764126"/><circle cx="138.66667" cy="202.66667" r="10.66667" style="fill:#764126"/><circle cx="74.66667" cy="245.33333" r="10.66667" style="fill:#4d2100"/><circle cx="138.66667" cy="288" r="10.66667" style="fill:#764126"/><circle cx="96" cy="373.33333" r="10.66667" style="fill:#4d2100"/><circle cx="96" cy="309.33333" r="10.66667" style="fill:#4d2100"/><circle cx="138.66667" cy="352" r="10.66667" style="fill:#764126"/><circle cx="96" cy="181.33333" r="10.66667" style="fill:#4d2100"/><circle cx="245.33333" cy="138.66667" r="10.66667" style="fill:#764126"/><circle cx="330.66667" cy="117.33333" r="10.66667" style="fill:#764126"/><circle cx="138.66667" cy="53.33333" r="10.66667" style="fill:#4d2100"/><path d="M174.05458,416.29019c9.911,13.8353,25.97986,13.8353,35.89084,0l9.63632-13.45188c9.65872-13.48315,15.08493-31.77023,15.08493-50.83828V352c0-19.06805-5.42621-37.35513-15.08493-50.83828l-9.63632-13.45188c-9.911-13.8353-25.97986-13.8353-35.89084,0l-9.63632,13.45188C154.75954,314.64484,149.33333,332.93192,149.33333,352V352c0,19.06805,5.42621,37.35513,15.08493,50.83828Z" style="fill:#ffd432"/><path d="M192,277.33333l-.03646,0-.013,0-.02409.00007-.015.00008-.02149.00012-.01692.0001-.02019.00014-.01627.00015-.02083.0002-.01563.00016-.02083.00025-.01693.0002-.02018.00028-.01628.00023-.02018.00032-.01758.00029-.01953.00034-.01628.00031-.02148.00043-.01563.0003-.02148.00047-.015.00035-.02279.00052-.015.00037-.02735.00071-.00846.00023-.03711.001-.00977.00031-.02734.00081-.01563.00051-.01953.00063-.02083.00069-.01628.00057-.02018.00072-.01562.00059-.02084.00077-.01627.00063-.02084.00083-.015.00059-.02214.00094-.01432.00059-.02213.001-.01368.00063-.02278.001-.013.00059-.02409.00116-.00977.00045-.02734.00137-.00391.0002c-.05729.00291-.11523.00606-.17252.0095l-.00131.00012-.02929.00179-.00781.00045-.0306.00195-.00391.00023-.03255.00211-.00261.00019-.0332.00219-.0026.00019-.03256.00223-.00325.00025-.03385.00236v0a19.30679,19.30679,0,0,0-7.32813,2.059v.0001l-.03255.01648-.002.00084-.02994.01515-.00651.00342-.02474.0128-.01172.006-.02149.01086-.01692.00881-.01628.00828-.02213.01123-.01172.00627-.03321.017v.0002c-.0345.018-.069.03581-.10351.054l-.00651.00329-.0293.01547-.00716.004-.0293.01547-.00716.00378-.0293.01581-.00716.00378-.02864.01528-.00847.00448-.02929.01574-.00651.0034-.02995.01638-.00586.003-.03125.017-.00456.00248-.0306.01685-.00716.00382-.0306.01673-.00065.00038c-.08138.04478-.16341.09046-.24479.13646l-.00781.00439-.0293.0164-.00651.00378-.0293.01662-.00781.00446-.02865.01664-.00651.00358-.02994.0173-.00651.00372-.03.01733-.00521.00306-.03125.0181-.00456.00255-.0319.01855-.0026.00171c-.10677.062-.21224.125-.31836.18915v.00028c-.03581.02153-.07032.04279-.10612.06456l-.00065.00069-.03451.02114-.0013.00067q-.21192.13077-.42318.26748v.00008A27.01044,27.01044,0,0,0,174.347,287.308l-.00066.00076-.02734.03755-.0026.00338-.02474.03369-.00716.00956-.02279.03068-.00716.00985-.02149.03007-.00911.01255-.02084.028-.00911.01308-.02018.02761-.01172.01554-.01823.02586-.01042.0142-.01953.027-.01432.02026-.015.02051-.03.04173h0s-.15039.21018-.41407.578h0c-.26367.36784-.64.89329-1.09179,1.52385h0c-.45182.63053-.97852,1.36619-1.54362,2.15437h0c-.56445.78819-1.16667,1.62891-1.76888,2.46965h0c-.60222.84074-1.20443,1.68148-1.76953,2.46967h0c-.56446.78818-1.09115,1.52382-1.543,2.15437h0c-.45182.63054-.82813,1.156-1.0918,1.52383h0c-.26367.36782-.41406.578-.41406.578h0l-.05339.07428-.01953.02767-.0332.04665-.02474.03459-.028.03959-.02539.0356-.028.03937-.02669.03758-.026.03692-.026.03728-.02734.03865-.026.037-.02865.04067-.02344.034-.02734.03845c-.01758.02571-.03646.05218-.054.07792l-.02083.02983c-.01042.01473-.02213.0311-.0319.04583l-.01953.02773-.0319.04588-.02084.02989-.0319.04614-.01823.02667-.0332.04826-.01823.02633-.03385.04911-.015.02183-.03645.0532-.00586.00835c-.04688.06821-.09375.13682-.14.20526l-.0013.00146-.04036.06-.01107.01617-.03907.05756-.01106.01595-.03841.05768-.01107.01566c-.013.02017-.02735.041-.041.06116l-.00455.00663-.04493.067v.00037c-.08073.11973-.1595.23848-.23893.35888l-.0013.00157c-.01563.02331-.02995.04512-.04492.06848l-.00456.00647c-.01563.02336-.03.04525-.04492.06862l-.0013.00139c-7.63868,11.61-12.31641,26.381-13.35157,42.01371a10.66659,10.66659,0,0,0,9.93881,11.34806q.35937.0238.71484.02368a10.66739,10.66739,0,0,0,10.63281-9.96244c.84505-12.75948,4.724-24.55212,10.92188-33.20471l9.63672-13.45215a5.62218,5.62218,0,0,1,1.569-1.64459h0l-9.08659-17.40552A10.643,10.643,0,0,1,192,277.33333Z" style="fill:#df8d00"/><path d="M259.38792,330.95686c9.911,13.8353,25.97985,13.8353,35.89083,0l9.63632-13.45188C314.57379,304.02183,320,285.73475,320,266.6667v-.00006c0-19.06806-5.42621-37.35513-15.08493-50.83828l-9.63632-13.45189c-9.911-13.83529-25.97985-13.83529-35.89083,0l-9.63632,13.45189c-9.65872,13.48315-15.08493,31.77022-15.08493,50.83828v.00006c0,19.06805,5.42621,37.35513,15.08493,50.83828Z" style="fill:#ffd432"/><path d="M277.33333,192l-.03645,0-.013,0-.02408.00006-.015.00008-.02148.00013-.01693.0001-.02018.00014-.01628.00014-.02083.00021-.01563.00016-.02083.00024-.01693.00021-.02018.00028-.01628.00022-.02018.00033-.01758.00029-.01953.00034-.01627.00031-.02149.00042-.01562.00031-.02149.00047-.015.00034-.02279.00053-.015.00037-.02734.00071-.00847.00022-.03711.001-.00976.00031-.02735.00081-.01562.00051-.01953.00063-.02084.00069-.01627.00057-.02018.00071-.01563.00059-.02083.00078-.01628.00063-.02083.00083-.015.00059-.02213.00094-.01432.00059-.02214.001-.01367.00063-.02279.001-.013.00059-.02409.00116-.00976.00045-.02735.00136-.0039.00021c-.0573.0029-.11524.00606-.17253.0095l-.0013.00012-.0293.00179-.00781.00045-.0306.00195-.00391.00022-.03255.00212-.0026.00018-.03321.0022-.0026.00018-.03255.00224-.00326.00024-.03385.00237v0a19.30684,19.30684,0,0,0-7.32813,2.059v.0001l-.03255.01648-.002.00083-.02995.01516-.00651.00342-.02474.01279-.01172.006-.02148.01086-.01693.00881-.01628.00828-.02213.01123-.01172.00627-.0332.017v.00021c-.03451.018-.069.03581-.10352.054l-.00651.0033-.0293.01546-.00716.004-.02929.01546-.00717.00379-.02929.0158-.00716.00379-.02865.01528-.00846.00447-.0293.01575-.00651.0034-.03.01638-.00586.003-.03125.017-.00456.00248-.03059.01684-.00717.00383-.03059.01672-.00066.00039c-.08138.04478-.16341.09045-.24479.13645l-.00781.0044-.0293.0164-.00651.00378-.02929.01662-.00782.00446-.02864.01664-.00651.00358-.02995.01729-.00651.00373-.03.01733-.00521.00305-.03125.01811-.00455.00254-.03191.01856-.0026.00171c-.10677.062-.21224.125-.31836.18914v.00029c-.03581.02152-.07031.04278-.10612.06455l-.00065.0007-.03451.02113-.0013.00068q-.21191.13076-.42317.26747v.00008a27.01068,27.01068,0,0,0-6.9668,6.69147l-.00065.00075-.02735.03756-.0026.00338-.02474.03369-.00716.00956-.02279.03068-.00716.00985-.02148.03007-.00912.01255-.02083.028-.00912.01308-.02018.02761-.01172.01554-.01823.02586-.01041.0142-.01953.027-.01433.02026-.015.02051-.03.04173h0s-.15039.21018-.41406.578h0c-.26367.36784-.64.89329-1.0918,1.52384h0c-.45182.63054-.97851,1.36619-1.54362,2.15438h0c-.56445.78819-1.16666,1.62891-1.76888,2.46965h0c-.60221.84074-1.20443,1.68147-1.76953,2.46966h0c-.56445.78819-1.09115,1.52383-1.543,2.15438h0c-.45182.63053-.82812,1.156-1.0918,1.52382h0c-.26367.36782-.41406.578-.41406.578h0l-.05338.07428-.01953.02767-.03321.04665-.02474.03458-.028.0396-.02539.0356-.028.03937-.02669.03757-.026.03693-.026.03727-.02735.03866-.026.037-.02864.04067-.02344.034-.02735.03845c-.01757.02572-.03645.05219-.054.07793l-.02084.02982c-.01041.01473-.02213.03111-.0319.04584l-.01953.02773-.0319.04588-.02083.02988-.0319.04615-.01823.02667-.03321.04826-.01822.02632-.03386.04912-.015.02183-.03646.0532-.00586.00834c-.04688.06822-.09375.13682-.14.20526l-.00131.00147-.04036.06-.01107.01617-.03906.05756-.01107.016-.03841.05767-.01107.01567c-.013.02016-.02734.041-.041.06116l-.00456.00663-.04492.067v.00036c-.08073.11973-.15951.23849-.23894.35889l-.0013.00157c-.01562.02331-.03.04512-.04492.06848l-.00456.00647c-.01562.02335-.02994.04524-.04492.06862l-.0013.00138c-7.63867,11.61-12.31641,26.381-13.35156,42.01372a10.66656,10.66656,0,0,0,9.9388,11.34806q.35937.02384.71484.02368a10.6674,10.6674,0,0,0,10.63282-9.96246c.84505-12.75946,4.724-24.55211,10.92187-33.20469L276.73047,214.8a5.62218,5.62218,0,0,1,1.569-1.64459h0l-9.08659-17.40552A10.643,10.643,0,0,1,277.33333,192Z" style="fill:#df8d00"/><path d="M277.33333,192q.29493.00945.58659.03462.11915-.00262.23828-.00263.17286,0,.34571.00551c-.08529-.00549-.17058-.01037-.25651-.01465l-.01563-.00077-.02018-.001-.03451-.00162-.0013-.00005q-.20116-.00927-.40234-.01412h-.00065l-.03581-.00083-.0013,0-.03451-.00073-.00456-.00009-.0319-.0006-.0052-.0001-.0306-.00053-.00847-.00012-.028-.00043-.01107-.00014-.02539-.00034-.01237-.00014-.02474-.00027-.013-.00013-.02409-.00021-.01628-.00012-.02018-.00014-.02083-.00012-.01628-.00008-.02409-.00007-.01367,0-.03711,0Z" style="fill:#f4ac03"/><path d="M277.33333,192q.29493.00945.58659.03462.11915-.00262.23828-.00263.17286,0,.34571.00551c-.08529-.00549-.17058-.01037-.25651-.01465l-.01563-.00077-.02018-.001-.03451-.00162-.0013-.00005q-.20116-.00927-.40234-.01412h-.00065l-.03581-.00083-.0013,0-.03451-.00073-.00456-.00009-.0319-.0006-.0052-.0001-.0306-.00053-.00847-.00012-.028-.00043-.01107-.00014-.02539-.00034-.01237-.00014-.02474-.00027-.013-.00013-.02409-.00021-.01628-.00012-.02018-.00014-.02083-.00012-.01628-.00008-.02409-.00007-.01367,0-.03711,0Zm.58659.03462a10.86727,10.86727,0,0,0-4.3138.99922q-.126-.003-.25195-.003a10.61916,10.61916,0,0,0-4.92709,1.21322,25.01557,25.01557,0,0,0-7.43554,6.07558l-.00326.00373-.0306.0361-.0013.00148-.03.03564-.0039.00441q-.13086.15488-.25977.31261l-.0026.00306-.0306.03727-.00065.00069-.03125.038-.00261.00388c-.00976.01186-.02018.02407-.02929.03594l-.00326.00409-.02669.033-.00782.00949-.02539.03107-.00586.00753-.026.03216-.00586.00754-.02734.03371-.00456.0057-.026.03253-.00651.00809-.03.03752-.00065.00107c-.05338.06738-.10677.13466-.16015.2028l-.00391.00492-.02669.0347-.00716.00905-.02344.03034-.00977.01218-.02278.0291-.00782.01-.02278.03012-.00912.01184-.02213.02858-.00912.01193-.02148.02756-.01107.01429-.02083.02764-.00912.01185-.02213.02934-.00912.01189-.02213.02908-.00912.01193-.02213.029-.00912.012c-.0306.04083-.06185.08208-.09245.12317l-.00976.01246-.02018.02755-.013.01753-.01823.02432-.01237.01705-.01758.023-.01432.02-.01628.02145-.01367.01907-.01693.02247-.01367.01851-.01758.02392-.01237.01709-.01758.02416-.013.01771-.01823.02477-.01237.01663-.01758.02474-.01237.01705-.02018.02738-.00976.01407-.01953.02669-.01172.016-.02084.02924-.00911.01238-.03.04215h0s-.15039.21018-.41406.578h0c-.26367.36782-.64.89328-1.0918,1.52382h0c-.45182.63056-.97851,1.36619-1.54362,2.15438h0c-.56445.78819-1.16666,1.62893-1.76888,2.46966h0c-.60221.84074-1.20443,1.68146-1.76953,2.46965h0c-.56445.78819-1.09115,1.52384-1.543,2.15438h0c-.45182.63055-.82812,1.156-1.0918,1.52383h0c-.26367.36782-.41406.578-.41406.578h0c-9.6582,13.4833-15.08463,31.77024-15.08463,50.8384s5.42643,37.3551,15.08463,50.8384l9.63672,13.45174.03.04183.013.0179.01628.02313.01627.02179.01432.02037.01563.0212.01432.01957.01823.02535.01107.01528.01888.026.01107.01473.02018.02771.00911.01259.02084.02857.00846.01147.02279.03066.00586.0083.02474.03319.00325.0049.02669.03619.00131.00124a25.91524,25.91524,0,0,0,8.75065,7.70811,10.66659,10.66659,0,0,0,9.83854-18.929,5.62255,5.62255,0,0,1-1.569-1.64459l-9.63672-13.45215C260.04362,295.23926,256,281.23733,256,266.66667s4.04362-28.57259,11.0944-38.41537l9.63607-13.45087a7.3237,7.3237,0,0,1,1.31771-1.46784,10.25615,10.25615,0,0,0,9.946-10.32523,11.09294,11.09294,0,0,0-10.07422-10.97274Z" style="fill:#f4ac03"/><path d="M260.45833,303.48035a10.66805,10.66805,0,0,0-8.66211,16.87953l7.5918,10.59693.03.04142.02083.029.00781.01127.02474.034.00456.00669.02409.03347.00521.00728.02669.03638.00261.00315.02734.03758.0013.00242a26.02324,26.02324,0,0,0,8.91081,7.91423,10.6666,10.6666,0,0,0,9.82552-18.93573,5.62156,5.62156,0,0,1-1.569-1.645l-7.5918-10.59691a10.652,10.652,0,0,0-8.68034-4.45564Z" style="fill:#df8d00"/><path d="M192,277.33333q.29492.00945.58659.03462.11915-.00263.23828-.00262.17284,0,.3457.0055c-.08528-.00548-.17057-.01037-.25651-.01465l-.01562-.00076-.02018-.001-.03451-.00162-.0013,0q-.20118-.00925-.40235-.01412h-.00065l-.0358-.00083-.00131,0-.0345-.00072-.00456-.0001-.0319-.0006-.00521-.0001-.0306-.00053-.00846-.00012-.028-.00043-.01106-.00014-.02539-.00033-.01237-.00015-.02474-.00027-.013-.00012-.02409-.00022-.01628-.00012-.02018-.00014-.02083-.00011-.01628-.00008-.02409-.00008-.01367,0-.03711,0Zm.58659.03462a10.86711,10.86711,0,0,0-4.3138.99923q-.126-.003-.252-.003a10.61908,10.61908,0,0,0-4.92708,1.21321,25.01573,25.01573,0,0,0-7.43555,6.07558l-.00325.00374-.0306.03609-.0013.00148-.03.03564-.00391.00441q-.13086.15489-.25976.31262l-.00261.00306-.0306.03726-.00065.00069-.03125.038-.0026.00387c-.00977.01186-.02018.02407-.0293.03594l-.00325.00409-.0267.033-.00781.00949-.02539.03108-.00586.00753-.026.03215-.00586.00754-.02734.03371-.00456.00571-.026.03252-.00651.0081-.02995.03751-.00065.00107c-.05339.06738-.10677.13466-.16016.2028l-.0039.00492-.0267.0347-.00716.00906-.02344.03033-.00976.01219-.02279.02909-.00781.01-.02279.03012-.00911.01184-.02214.02859-.00911.01193-.02149.02756-.01106.01429-.02084.02764-.00911.01185-.02214.02933-.00911.0119-.02214.02907-.00911.01193-.02214.029-.00911.012c-.0306.04082-.06185.08207-.09245.12317l-.00976.01246-.02019.02755-.013.01752-.01823.02432-.01237.017-.01758.023-.01432.02-.01627.02146-.01368.01906-.01692.02247-.01367.01852-.01758.02391-.01237.01709-.01758.02416-.013.01771-.01823.02477-.01237.01663-.01758.02474-.01237.017-.02018.02739-.00977.01407-.01953.02669-.01172.016-.02083.02924-.00911.01238-.03.04215h0s-.15039.21018-.41406.578h0c-.26368.36782-.64.89328-1.0918,1.52383h0c-.45182.63055-.97852,1.36619-1.54362,2.15437h0c-.56445.78819-1.16667,1.62893-1.76888,2.46966h0c-.60222.84074-1.20443,1.68147-1.76953,2.46966h0c-.56446.78818-1.09115,1.52383-1.543,2.15437h0c-.45182.63056-.82813,1.156-1.0918,1.52384h0c-.26367.36782-.41406.578-.41406.578h0c-9.6582,13.48331-15.08464,31.77024-15.08464,50.8384s5.42644,37.3551,15.08464,50.8384l9.63672,13.45174.03.04183.013.0179.01627.02314.01628.02179.01432.02036.01563.0212.01432.01957.01823.02535.01107.01528.01888.026.01106.01473.02019.02771.00911.0126.02083.02856.00847.01148.02278.03066.00586.0083.02474.03318.00326.0049.02669.0362.0013.00124a25.91534,25.91534,0,0,0,8.75065,7.70811,10.66659,10.66659,0,0,0,9.83855-18.929,5.62218,5.62218,0,0,1-1.569-1.64459l-9.63672-13.45215c-7.05013-9.84192-11.09375-23.84385-11.09375-38.41451s4.04362-28.57259,11.0944-38.41536l9.63607-13.45088a7.32406,7.32406,0,0,1,1.3177-1.46784,10.25615,10.25615,0,0,0,9.946-10.32522A11.093,11.093,0,0,0,192.58659,277.368Z" style="fill:#f4ac03"/><path d="M175.125,388.81368a10.66808,10.66808,0,0,0-8.66211,16.87956l7.5918,10.59688c.00976.01379.01953.02771.03.04146l.02083.02893.00781.01128.02474.034.00456.00672.02409.03344.00521.00729.02669.03637.0026.00318.02735.03755.0013.00245a26.02337,26.02337,0,0,0,8.9108,7.91422,10.66659,10.66659,0,0,0,9.82553-18.93571,5.62193,5.62193,0,0,1-1.569-1.645l-7.5918-10.59692a10.652,10.652,0,0,0-8.68034-4.45565Z" style="fill:#df8d00"/><path d="M138.66667,490.66667a10.66667,10.66667,0,0,1-7.54167-18.20834L472.45833,131.125a10.66553,10.66553,0,1,1,15.08334,15.08333L146.20833,487.54167A10.63211,10.63211,0,0,1,138.66667,490.66667Z" style="fill:#f4ac03"/><path d="M330.66667,298.66667a10.66667,10.66667,0,0,1-7.54167-18.20834l19.00964-19.00963A10.66552,10.66552,0,0,1,357.218,276.532l-19.00964,19.00964A10.63211,10.63211,0,0,1,330.66667,298.66667Z" style="fill:#df8d00"/><path d="M266.66667,362.66667a10.66667,10.66667,0,0,1-7.54167-18.20834l19.00964-19.00963A10.66552,10.66552,0,0,1,293.218,340.532l-19.00964,19.00964A10.63211,10.63211,0,0,1,266.66667,362.66667Z" style="fill:#df8d00"/><path d="M181.16371,448.16963a10.66667,10.66667,0,0,1-7.54167-18.20834l19.00964-19.00964A10.66553,10.66553,0,0,1,207.715,426.035l-19.00964,19.00964A10.63211,10.63211,0,0,1,181.16371,448.16963Z" style="fill:#df8d00"/><path d="M287.70981,359.27875c-13.8353-9.911-13.8353-25.97985,0-35.89083l13.45188-9.63632c13.48315-9.65872,31.77023-15.08493,50.83828-15.08493H352c19.06805,0,37.35513,5.42621,50.83828,15.08493l13.45188,9.63632c13.8353,9.911,13.8353,25.97985,0,35.89083l-13.45188,9.63632C389.35516,378.57379,371.06808,384,352,384H352c-19.06805,0-37.35513-5.42621-50.83828-15.08493Z" style="fill:#f4ac03"/><path d="M202.37647,444.61208c-13.83529-9.911-13.83529-25.97985,0-35.89083l13.45189-9.63632C229.31151,389.42621,247.59858,384,266.66664,384h.00006c19.06805,0,37.35513,5.42621,50.83828,15.08493l13.45188,9.63632c13.8353,9.911,13.8353,25.97985,0,35.89083L317.505,454.2484c-13.48315,9.65872-31.77023,15.08493-50.83828,15.08493h-.00006c-19.06806,0-37.35513-5.42621-50.83828-15.08493Z" style="fill:#f4ac03"/><path d="M287.70981,359.27875c-13.8353-9.911-13.8353-25.97985,0-35.89083l13.45188-9.63632c13.48315-9.65872,31.77023-15.08493,50.83828-15.08493H352c19.06805,0,37.35513,5.42621,50.83828,15.08493l13.45188,9.63632c13.8353,9.911,13.8353,25.97985,0,35.89083l-13.45188,9.63632C389.35516,378.57379,371.06808,384,352,384H352c-19.06805,0-37.35513-5.42621-50.83828-15.08493Z" style="fill:#ffd432"/><path d="M290.69922,337.05546a10.66709,10.66709,0,0,0-8.08724,17.61692q.30078.34827.61849.69068l.00195.00167c.026.02811.05274.05727.07943.08534l.01172.01266.01367.01475.02148.02268.00912.00967.02539.0272.00716.00744.0306.03252.0013.0013a29.66334,29.66334,0,0,0,4.04623,3.53336l.00586.00419.0371.02686.01042.00757.03386.02488.01106.00777.03125.02265.01367.01015.03321.02358.01041.00781.04428.03162,13.45182,9.63625C314.64453,378.57387,332.93164,384,352,384h0l.10807-.00006.03646-.00006.07227-.00012.04427-.00011.06315-.00018.04883-.00018.05989-.00023.05144-.00024.056-.00028.05209-.00031.05664-.00035.05078-.00032.05859-.00043.04948-.00039.058-.00048.05208-.00047.05729-.00053.04948-.00049.05924-.00063.05013-.00055.058-.00067.05013-.00061.05794-.00073.05078-.00067.05729-.0008.05078-.00071.0625-.00094.04558-.00069.21354-.00356.04818-.00087.06119-.00112.04623-.0009.0612-.00118.04882-.001.0599-.00122.05013-.00108.05664-.00124.05078-.00112.0599-.00137.04687-.00109.06055-.00147.04818-.00116.06054-.00152.04818-.00123.05729-.0015.05209-.00138.05859-.00159.04818-.00132.06119-.00175.04623-.00133.0625-.00183.04622-.00138.0586-.00177.05078-.00157.05729-.00181.05013-.00158.21354-.00713L355.5,383.939l.05664-.002.05664-.002.05143-.00187.05209-.00192.05664-.00211.05143-.002.056-.00213.05338-.0021.05274-.00207.05729-.0023.05013-.00206.05534-.00223.05273-.00222.05664-.0024.04883-.0021.058-.00246.04947-.0022.05925-.00262.04687-.0021.05925-.00268.04818-.00224.05989-.00277.04688-.0022.05924-.0028.04818-.00232.05989-.00293.05144-.00252.054-.00269.10417-.00527.05794-.003.05013-.00256.06446-.0034.04036-.00212.0638-.00344.04492-.00242.0586-.00319.04818-.00267.05859-.00323.04883-.00277.05729-.00325.05013-.00287.05534-.0032.05338-.00311.05469-.00321.05013-.003.05729-.00344.04948-.003.0586-.00358.04622-.00285.0599-.00372.04752-.003.06055-.00378.04232-.00273.0638-.00409.04557-.003.06055-.00392.04948-.00328.23567-.01585.03-.00205.071-.00493.03515-.00246.06966-.00488.03581-.00252.07162-.00509.0345-.0025.06706-.00484.04036-.003.06446-.00472.04362-.00322.05924-.00443.04687-.00352.06316-.00474.04166-.0032.0625-.00476.04492-.0035.06316-.00488.041-.00324.0638-.005.041-.0033.06771-.00535.03255-.00266.07161-.0058.03386-.00277.07291-.006.01563-.00128c.0957-.00789.19206-.016.28776-.02413l.00716-.00065.08464-.0073.02018-.00173.07357-.00641.0345-.003.07487-.00661.02735-.00245.07682-.00685.0293-.00261.07356-.00663.03321-.003.0677-.00621.04037-.0037.0651-.006.03907-.00362.06688-.00629.03858-.0036.06641-.00627.03971-.00374.06576-.00629.03711-.0036.071-.00683.02474-.0024.08073-.0079.01693-.00167q.24122-.02364.48177-.0485l.01888-.002.07487-.00779.03125-.00324.07161-.00749.03321-.00354.07161-.00759.03255-.00347.07227-.00769.03385-.00363.06836-.00746.03646-.004.07031-.00765.03321-.00366.071-.00781.0332-.00367.07292-.00811.02995-.00336.07422-.00834.02929-.0033.07618-.00866.02278-.00261.082-.0094.01237-.00142c.16472-.019.33008-.03841.49479-.05823l.00586-.00069.082-.01.02408-.00289.07878-.0096.02409-.003.07747-.0095.02735-.0034.07812-.00965.02474-.00307.07617-.00958.03-.00376.07357-.00924.03-.00378.07422-.00949.02929-.0037.07487-.00964.02669-.00346.07813-.01.02474-.00321.07943-.01038.01823-.00244.08658-.01138.00456-.00054c.19987-.02641.39844-.05331.59831-.08094l.00846-.00114.09115-.01263.01172-.00167.08593-.012.01823-.00261.08464-.01188.01758-.00256.08463-.01194.01823-.00263.08659-.01245.013-.00187.08854-.01274.015-.00213.08854-.0129.01107-.00167.08984-.01316.013-.00184c.26432-.03887.52995-.0791.79362-.12009l.00651-.001.0931-.01455.00846-.0013.0892-.01408.01367-.00215.08724-.01376.015-.00238.08333-.01334.02084-.00332.084-.01345.015-.00234.08789-.01424.01237-.002.08984-.01451.01107-.00187.08919-.01457.01367-.0023.08985-.01475.00455-.00073q.44922-.07422.89714-.15265l.0026-.00053.09571-.01672.00651-.00114.09049-.016.01237-.00218.09115-.0163.00651-.00109.0944-.01693.00521-.00088.196-.0354.00326-.00063c.33138-.06008.6608-.12178.99023-.18522l.00586-.00112.0931-.018.00716-.00141.08854-.01717.015-.00291.08723-.017.01107-.00219.08724-.01709.01563-.00305.08789-.01734.00651-.00134.0944-.0188.0013-.00024c.33073-.06586.65886-.133.98828-.20223l.0013-.00031.09506-.02.00521-.0012.09049-.0192.01042-.00218.09375-.02.0013-.00022.097-.02076.00261-.00056q.64062-.13761,1.276-.28327v-.00006l.09375-.02159.00716-.0016.09375-.02165.00261-.00055.09505-.02209.00325-.00082.0944-.022.00391-.00082c.42122-.09861.84375-.20048,1.26237-.30462l.00391-.00088q.77538-.19287,1.54362-.39817l.0039-.00108.09245-.02476.00456-.00108.09179-.02468.00521-.00154.0918-.02474.00391-.001.09309-.02537.00131-.00034q.52734-.14331,1.05143-.29263l.0026-.00075.0918-.02614.00456-.00139.0931-.02659.0013-.0004.09375-.027.002-.00055c.44531-.12834.88607-.2592,1.32748-.39386l.002-.00059.1875-.05754.0013-.00032c.0625-.01937.125-.03854.1875-.058l.0013-.00026q.5166-.16041,1.03-.32623l.00521-.00175.08529-.02761.01106-.00358.084-.02735.00976-.00311.08529-.02785.00781-.00261.08854-.02907.002-.00055.09049-.02993.00456-.00144q.55566-.18331,1.10677-.37315l.01107-.0038.084-.02887.00781-.00283.08464-.02922.00977-.00346.084-.02919.00781-.00271.08529-.02984.00716-.00248c.304-.10641.60872-.215.91081-.32447l.00716-.00246.082-.02989.01172-.00417.07877-.02881.01433-.00524.07943-.02892.013-.00478.07812-.02883.015-.00541.07813-.02883.01367-.005.07878-.029.013-.00481.082-.03045.00326-.00128.08854-.033.00065-.00021c.27278-.10172.54362-.2042.81445-.30845l.00586-.00213.08008-.03091.01432-.00555.07748-.02995.013-.00515.07812-.03013.01432-.00576.07618-.02956.01627-.00622.07487-.02944.01693-.00643.07617-.03.01042-.00417.08138-.03194.00716-.00289.084-.033.00391-.00147c.17708-.07015.35352-.14062.5306-.21185l.00716-.00289.07878-.0319.01237-.005.07487-.0304.01757-.0071.06771-.02773.02539-.01023.06706-.02741.02344-.0095.067-.02755.02344-.00968.06836-.02792.02344-.00956.06641-.02748.02408-.01009.069-.02828.01758-.00755.07292-.03024.01432-.006.07813-.03235.0013-.00071c.14779-.06148.29622-.12384.44271-.18609l.00065-.00009.084-.03566.00521-.00234.07552-.0321.01628-.007.07161-.03048.01823-.008.06771-.0288.02539-.01095.06315-.0273.02669-.01146.06316-.0273.02734-.0118.06315-.0273.026-.01136.06315-.02734.0293-.0129.06055-.02614.02929-.013.06055-.02633.0293-.0128.06185-.02718.02148-.00966.06771-.02979.01758-.00765c.10807-.04758.21679-.0959.32422-.14392l.01237-.00527.0677-.03049.02214-.00967.06315-.02848.02669-.0119.06185-.02792.02735-.01232.06054-.02719.02865-.0132.06185-.02781.02734-.01253.05925-.027.03125-.014.05859-.02694.02995-.01354.05794-.02664.03125-.01428.0599-.02726.02669-.01251.0612-.028.02734-.01273.0625-.02869.02344-.01087.06445-.02972.01953-.0093c.10547-.049.209-.09715.31446-.14654l.01562-.00755.07422-.03487.01237-.0057.06706-.03178.02278-.01076.0625-.02946.026-.01225.0586-.02793.03125-.01479.05924-.02842.02539-.012.0625-.02992.0267-.01268.06054-.02915.0267-.01272.05989-.02869.0306-.01495.05664-.02726.02995-.01443.05794-.028.0306-.01493.05729-.02759.0293-.01453.05729-.02789.02865-.01382c.099-.04815.19531-.09558.29362-.14412l.02474-.01213.05794-.02852.0293-.01451.056-.02787.03125-.01544.05533-.02753.03256-.01617.05078-.02535.03776-.0188.05078-.02566.0345-.01717.054-.027.0319-.01616.05534-.02771.03255-.0167.05143-.02592.03711-.01878.05144-.0258.03385-.01733.05208-.02649.03451-.01746.05273-.02712.03711-.01873.04688-.02407.04557-.02336.043-.022.0293-.015c.0638-.03283.12955-.06661.19336-.09961l.0345-.01788.04753-.02462.03776-.01981.04687-.02438.041-.0213.04362-.02293.04232-.022.04427-.02315.043-.02259.043-.02252.04232-.02244.04427-.02329.04167-.02208.04557-.02384.03906-.02073.04688-.02478.041-.02181.04362-.02346.04231-.02222.04362-.02335.04558-.02456.03841-.02053.05143-.02746.0345-.01854.0573-.03088.02864-.01516.0612-.0333.0319-.01716.07747-.04185.03256-.01774.05208-.02842.03971-.02134.04623-.02525.03841-.021.04687-.02574.03842-.021.04752-.02594.03711-.02065.04753-.026.03971-.02181.04492-.025.04037-.02214.04362-.02425.04231-.02335.043-.02393.041-.02271.043-.02417.04232-.02358.04427-.02478.03841-.02136.04948-.02767.03515-.01977.05664-.03192.026-.01469.05859-.03308.028-.01567c.056-.0317.11133-.06327.16732-.09509l.02539-.01445.05925-.03377.0345-.01945.04818-.02749.03971-.02286.04492-.02592.03777-.02149.04622-.02651.03711-.02138.04752-.02757.03711-.02162.04427-.02546.041-.02372.04362-.02525.03971-.02313.043-.025.04037-.02344.04362-.02558.04036-.02355.03906-.02322.04493-.02616.03971-.02334.04232-.02472.04492-.02659.03646-.02169.05078-.02992.0332-.01949.04818-.02887.03581-.02124.08007-.04757.02865-.01717.054-.03207.0345-.02087.04818-.02879.03646-.022.04492-.0268.04036-.02433.04232-.02578.03776-.02244.04492-.02746.03907-.02352.04231-.02566.04037-.02439.04167-.02539.04036-.02464.04232-.0261.03776-.023.04557-.02765.03711-.023.04362-.02679.03841-.0234.04232-.026.04036-.02495.04623-.0286.03255-.02018.05469-.03384.028-.01733.07357-.04574.00651-.00429.08138-.05084.02409-.0151.05859-.03642.026-.01647.054-.034.03385-.02118.04688-.02958.03776-.02377.04232-.02657.03776-.02421.04492-.02819.03581-.02293.043-.02729.03906-.02476.04232-.02695.03841-.02468.041-.026.03972-.02546.041-.02638.03972-.02566.03841-.02484.04166-.02663.03972-.02582.04036-.026.03907-.02513.04036-.02646.01172-.00731q.19824-.129.38867-.26491c.0931-.056.18425-.113.276-.17218.11328-.07522.22526-.15027.33724-.226l.05208-.03511.05339-.03609.0319-.02167.0612-.0415.01888-.01262q.10938-.0747.21875-.14966l.01237-.00838.06445-.04427.02539-.01717.05925-.0411.03255-.02221.05534-.03827.05989-.04167.05534-.03841.0586-.041.03255-.02266c.02148-.01485.043-.02975.0638-.04464l.02734-.019.07748-.05428.01237-.00881c.06445-.04515.12825-.09037.19271-.1357l.00651-.00492.08593-.06076.01563-.01135.08138-.05766.01367-.00988.09375-.06714,13.45182-9.63625A10.6666,10.6666,0,1,0,403.86719,341.936l-13.45248,9.6365-1.08528.75391c-.09571.06667-.19076.13468-.28386.20391-.13086.0775-.26172.15839-.39062.24217-9.68946,6.28778-23.04948,9.89419-36.65495,9.89419-14.57161,0-28.57292-4.04375-38.41536-11.0944L300.13281,341.936a7.90693,7.90693,0,0,1-1.37109-1.20275,10.64,10.64,0,0,0-8.0625-3.67778Z" style="fill:#f4ac03"/><path d="M202.37647,444.61208c-13.83529-9.911-13.83529-25.97985,0-35.89083l13.45189-9.63632C229.31151,389.42621,247.59858,384,266.66664,384h.00006c19.06805,0,37.35513,5.42621,50.83828,15.08493l13.45188,9.63632c13.8353,9.911,13.8353,25.97985,0,35.89083L317.505,454.2484c-13.48315,9.65872-31.77023,15.08493-50.83828,15.08493h-.00006c-19.06806,0-37.35513-5.42621-50.83828-15.08493Z" style="fill:#ffd432"/><path d="M205.36589,422.38879a10.6671,10.6671,0,0,0-8.08724,17.61693q.30078.34825.61849.69067l.00195.00167c.026.02812.05273.05727.07943.08535l.01171.01265.01368.01475.02148.02269.00912.00966.02539.0272.00716.00745.0306.03251.0013.0013a29.66329,29.66329,0,0,0,4.04622,3.53337l.00586.00419.03711.02685.01042.00757.03385.02488.01107.00778.03125.02264.01367.01015.0332.02358.01042.00781.04427.03162,13.45182,9.63625c13.48308,9.6589,31.77019,15.085,50.83855,15.085h0l.10807-.00006.03646-.00006.07226-.00012.04427-.0001.06316-.00019.04882-.00018.0599-.00022.05143-.00025.056-.00028.05208-.00031.05665-.00034.05078-.00033.05859-.00043.04948-.00038.05794-.00049.05209-.00047.05729-.00053.04948-.00049.05924-.00063.05013-.00055.05794-.00067.05013-.00061.058-.00073.05078-.00067.05729-.00079.05078-.00072.0625-.00093.04557-.00069.21355-.00356.04817-.00088.0612-.00112.04622-.00089.0612-.00118.04883-.001.0599-.00122.05013-.00108.05664-.00124.05078-.00112.05989-.00136.04688-.0011.06055-.00147.04817-.00116.06055-.00152.04818-.00122.05729-.00151.05208-.00138.0586-.00159.04817-.00132.0612-.00175.04622-.00132.0625-.00183.04623-.00139.05859-.00177.05078-.00156.0573-.00181.05013-.00159.21354-.00712.04948-.00173.05664-.002.05664-.002.05143-.00187.05208-.00191.05664-.00212.05144-.00195.056-.00214.05338-.00209.05274-.00208.05729-.0023.05013-.002.05534-.00224.05273-.00222.05664-.0024.04883-.0021.05794-.00246.04948-.00219.05925-.00263.04687-.00209.05925-.00269.04817-.00224.0599-.00276.04687-.0022.05925-.00281.04818-.00232.05989-.00293.05143-.00252.054-.00269.10417-.00527.05794-.003.05013-.00256.06445-.0034.04037-.00211.0638-.00344.04492-.00242.0586-.0032.04817-.00266.0586-.00324.04882-.00276.0573-.00326.05013-.00287.05533-.00319.05339-.00312.05469-.00321.05013-.003.05729-.00344.04948-.003.05859-.00358.04623-.00285.05989-.00372.04753-.003.06054-.00379.04232-.00272.0638-.00409.04558-.003.06054-.00393.04948-.00327.23568-.01585.03-.00206.071-.00492.03516-.00246.06966-.00489.03581-.00252.07161-.00509.03451-.0025.067-.00484.04037-.003.06445-.00472.04362-.00321.05925-.00444.04687-.00352.06315-.00474.04167-.00319.0625-.00477.04492-.00349.06315-.00489.041-.00323.0638-.005.041-.00329.0677-.00535.03256-.00267.07161-.0058.03385-.00276.07292-.006.01563-.00128c.0957-.00789.192-.016.28776-.02413l.00716-.00065.08463-.0073.02019-.00173.07356-.00641.03451-.003.07487-.00661.02734-.00244.07683-.00686.02929-.0026.07357-.00664.0332-.003.06771-.0062.04037-.00371.0651-.006.03906-.00362.06689-.00629.03858-.0036.06641-.00626.03971-.00375.06576-.00628.03711-.0036.071-.00684.02474-.0024.08073-.00789.01693-.00167q.2412-.02365.48177-.04851l.01888-.002.07487-.00779.03125-.00324.07161-.00748.0332-.00354.07162-.00759.03255-.00348.07227-.00769.03385-.00362.06836-.00747.03646-.004.07031-.00765.0332-.00366.071-.00781.0332-.00366.07292-.00812.02994-.00336.07422-.00834.0293-.00329.07617-.00867.02279-.00261.082-.0094.01237-.00142c.16471-.019.33008-.03841.49479-.05823l.00586-.00069.082-.01.02409-.00289.07878-.0096.02409-.003.07747-.0095.02734-.0034.07813-.00964.02474-.00307.07617-.00959.03-.00376.07357-.00924.02994-.00378.07422-.00948.0293-.0037.07487-.00965.02669-.00346.07813-.01.02474-.00321.07942-.01038.01823-.00244.08659-.01137.00456-.00055c.19987-.02641.39844-.05331.59831-.08093l.00846-.00114.09114-.01264.01172-.00167.08594-.012.01823-.0026.08464-.01189.01757-.00256.08464-.01194.01823-.00263.08659-.01245.013-.00187.08854-.01273.015-.00214.08854-.0129.01107-.00167.08985-.01316.013-.00183c.26432-.03888.52994-.0791.79362-.1201l.00651-.001.0931-.01454.00846-.0013.08919-.01408.01367-.00216.08724-.01375.015-.00238.08333-.01335.02083-.00332.084-.01344.015-.00234.08789-.01425.01237-.002.08985-.01451.01106-.00187.0892-.01456.01367-.0023.08984-.01475.00456-.00074q.44922-.07422.89714-.15265l.0026-.00052.0957-.01673.00651-.00114.0905-.016.01237-.00218.09114-.01629.00651-.0011.09441-.01693.0052-.00087.196-.0354.00325-.00063q.49707-.09012.99024-.18523l.00586-.00111.0931-.018.00716-.0014.08854-.01717.015-.00291.08724-.017.01107-.0022.08724-.01709.01562-.003.08789-.01733.00651-.00135.09441-.0188.0013-.00024c.33073-.06586.65885-.133.98828-.20223l.0013-.00031.09505-.02.00521-.0012.0905-.01921.01041-.00218.09375-.02.00131-.00022.097-.02075.0026-.00057c.42709-.09174.85157-.18591,1.276-.28327v-.00006l.09375-.02158.00716-.00161.09375-.02165.0026-.00055.095-.02209.00326-.00082.0944-.02205.00391-.00081c.42122-.09862.84375-.20048,1.26237-.30463l.0039-.00087q.7754-.19288,1.54362-.39818l.00391-.00108.09245-.02476.00455-.00107.0918-.02468.00521-.00155.0918-.02474.0039-.001.0931-.02538.0013-.00034q.52736-.14331,1.05144-.29262l.0026-.00076.0918-.02614.00455-.00138.0931-.02659.00131-.00041.09374-.027.002-.00055c.44531-.12834.88607-.25919,1.32747-.39386l.002-.00059.1875-.05753.0013-.00033c.0625-.01937.125-.03853.1875-.058l.0013-.00027q.5166-.16039,1.03-.32623l.00521-.00175.08528-.02761.01107-.00358.084-.02734.00977-.00312.08529-.02785.00781-.0026.08854-.02908.002-.00055.0905-.02992.00456-.00145q.55566-.18331,1.10677-.37315l.01106-.0038.084-.02887.00781-.00283.08464-.02921.00976-.00346.084-.0292.00781-.0027.08529-.02985.00716-.00248c.304-.10641.60872-.215.9108-.32446l.00717-.00247.082-.02988.01172-.00417.07877-.02881.01432-.00525.07943-.02891.013-.00478.07813-.02883.015-.00541.07813-.02883.01367-.005.07877-.029.013-.0048.082-.03046.00325-.00128.08854-.033.00065-.0002c.27279-.10173.54362-.20421.81446-.30845l.00586-.00214.08007-.03091.01433-.00555.07747-.03.013-.00514.07813-.03014.01432-.00575.07617-.02956.01628-.00623.07487-.02944.01693-.00643.07617-.03.01041-.00417.08138-.03194.00717-.00289.084-.033.00391-.00146c.17708-.07015.35351-.14063.5306-.21186l.00716-.00289.07877-.0319.01237-.005.07487-.0304.01758-.0071.06771-.02773.02539-.01023.06706-.02741.02343-.0095.06706-.02754.02344-.00969.06836-.02791.02344-.00956.0664-.02749.02409-.01009.069-.02828.01758-.00755.07292-.03023.01432-.006.07812-.03235.00131-.00071c.14778-.06149.29622-.12384.4427-.1861l.00066-.00008.084-.03567.00521-.00234.07552-.0321.01627-.007.07162-.03048.01823-.008.06771-.02881.02539-.011.06315-.0273.02669-.01145.06315-.02731.02735-.0118.06315-.0273.026-.01135.06315-.02735.0293-.0129.06054-.02614.0293-.013.06055-.02633.02929-.01279.06185-.02718.02149-.00967.06771-.02978.01757-.00765c.10808-.04759.2168-.09591.32422-.14392l.01237-.00527.06771-.0305.02214-.00966.06315-.02849.02669-.0119.06185-.02791.02734-.01233.06055-.02718.02865-.01321.06184-.02781.02735-.01253.05924-.027.03125-.014.0586-.02694.02994-.01355.058-.02663.03125-.01429.05989-.02726.0267-.01251.06119-.028.02735-.01273.0625-.02869.02344-.01086.06445-.02973.01953-.00929c.10547-.049.209-.09715.31445-.14655l.01563-.00755.07422-.03487.01237-.0057.067-.03177.02279-.01077.0625-.02946.026-.01224.0586-.02794.03125-.01479.05924-.02842.02539-.01194.0625-.02993.02669-.01268.06055-.02915.02669-.01272.0599-.02868.0306-.015.05664-.02726.03-.01442.05794-.028.0306-.01493.05729-.02759.0293-.01453.05729-.02789.02864-.01381c.099-.04816.19532-.09558.29362-.14413l.02474-.01212.058-.02853.02929-.0145.056-.02788.03125-.01544.05534-.02752.03255-.01618.05078-.02535.03776-.0188.05079-.02565.0345-.01717.054-.027.0319-.01616.05534-.02771.03255-.0167.05143-.02592.03711-.01878.05143-.02579.03386-.01734.05208-.02649.03451-.01745.05273-.02712.03711-.01874.04687-.02407.04558-.02336.043-.022.02929-.015c.06381-.03284.12956-.06661.19336-.09961l.03451-.01789.04752-.02461.03776-.01982.04688-.02437.041-.02131.04361-.02292.04232-.022.04427-.02315.043-.02258.043-.02252.04232-.02244.04427-.0233.04167-.02207.04557-.02385.03906-.02073.04688-.02478.041-.02181.04362-.02346.04232-.02221.04362-.02336.04557-.02456.03841-.02053.05144-.02746.0345-.01854.05729-.03088.02865-.01516.0612-.0333.0319-.01715.07747-.04185.03255-.01774.05209-.02843.03971-.02134.04622-.02525.03842-.021.04687-.02574.03841-.021.04753-.02594.03711-.02065.04752-.026.03972-.02181.04492-.025.04036-.02213.04362-.02426.04232-.02335.043-.02393.041-.0227.043-.02417.04232-.02358.04427-.02478.03841-.02136.04948-.02767.03516-.01978.05664-.03192.026-.01469.0586-.03308.028-.01567c.056-.03169.11133-.06327.16732-.09509l.02539-.01444.05924-.03378.03451-.01945.04818-.02748.03971-.02287.04492-.02592.03776-.02148.04623-.02651.03711-.02139.04752-.02756.03711-.02163.04427-.02545.041-.02373.04362-.02524.03971-.02314.043-.025.04036-.02344.04362-.02557.04037-.02356.03906-.02322.04492-.02616.03972-.02333.04231-.02472.04493-.02659.03645-.02169.05079-.02993.0332-.01949.04818-.02887.0358-.02124.08008-.04757.02865-.01717.054-.03206.03451-.02088.04818-.02878.03645-.022.04493-.02679.04036-.02434.04232-.02577.03776-.02244.04492-.02747.03906-.02352.04232-.02565.04037-.0244.04166-.02539.04037-.02463.04231-.02611.03776-.023.04558-.02765.03711-.023.04362-.02679.03841-.0234.04232-.026.04036-.02494.04622-.02861.03256-.02018.05468-.03383.028-.01734.07357-.04573.00651-.0043.08138-.05084.02409-.01509.05859-.03642.026-.01648.054-.034.03385-.02118.04688-.02958.03776-.02376.04231-.02657.03777-.02421.04492-.0282.0358-.02293.043-.02728.03907-.02476.04231-.027.03841-.02468.041-.026.03971-.02545.041-.02639.03971-.02565.03841-.02485.04167-.02663.03971-.02582.04037-.026.03906-.02512.04037-.02647.01172-.00731q.19824-.129.38867-.26491c.0931-.056.18424-.113.276-.17218.11328-.07521.22526-.15027.33724-.226l.05208-.03512.05339-.03609.0319-.02167.0612-.0415.01888-.01261q.10936-.07472.21875-.14966l.01237-.00839.06445-.04427.02539-.01717.05924-.04109.03256-.02222.05534-.03827.05989-.04167.05534-.03841.05859-.041.03256-.02267c.02148-.01485.043-.02974.0638-.04463l.02734-.019.07748-.05428.01236-.00881c.06446-.04514.12826-.09037.19271-.1357l.00651-.00492.08594-.06075.01563-.01135.08138-.05766.01367-.00989.09375-.06714,13.45182-9.63625a10.6666,10.6666,0,1,0-12.42318-17.34273l-13.45247,9.63649-1.08529.75391c-.0957.06667-.19075.13468-.28385.20392-.13086.07749-.26172.15838-.39063.24216C293.63216,444.3936,280.27214,448,266.66667,448c-14.57162,0-28.57292-4.04374-38.41537-11.0944l-13.45182-9.63627a7.90607,7.90607,0,0,1-1.37109-1.20276,10.64,10.64,0,0,0-8.0625-3.67778Z" style="fill:#f4ac03"/><path d="M416,341.33333a10.66667,10.66667,0,0,1-7.54167-18.20833L451.125,280.45833a10.66553,10.66553,0,0,1,15.08333,15.08334l-42.66666,42.66666A10.63209,10.63209,0,0,1,416,341.33333Z" style="fill:#ffd432"/><path d="M288,213.33333a10.66667,10.66667,0,0,1-7.54167-18.20833L323.125,152.45833a10.66553,10.66553,0,0,1,15.08333,15.08334l-42.66666,42.66666A10.63209,10.63209,0,0,1,288,213.33333Z" style="fill:#ffd432"/><path d="M330.66667,426.66667a10.66667,10.66667,0,0,1-7.54167-18.20834l42.66667-42.66666A10.66552,10.66552,0,0,1,380.875,380.875l-42.66667,42.66667A10.63211,10.63211,0,0,1,330.66667,426.66667Z" style="fill:#ffd432"/><path d="M202.66667,298.66667a10.66667,10.66667,0,0,1-7.54167-18.20834l42.66667-42.66666A10.66552,10.66552,0,0,1,252.875,252.875l-42.66667,42.66667A10.63211,10.63211,0,0,1,202.66667,298.66667Z" style="fill:#ffd432"/><path d="M437.33333,192a10.66667,10.66667,0,0,1-7.54166-18.20833L472.45833,131.125a10.66553,10.66553,0,1,1,15.08334,15.08333L444.875,188.875A10.63211,10.63211,0,0,1,437.33333,192Z" style="fill:#ffd432"/><ellipse cx="309.33333" cy="256" rx="10.66667" ry="21.33333" style="fill:#ffef7d"/><ellipse cx="224" cy="341.33333" rx="10.66667" ry="21.33333" style="fill:#ffef7d"/><path d="M432.30827,160.75827h.00013a25.6,25.6,0,0,1,25.6,25.6v.00013A102.39987,102.39987,0,0,1,355.50853,288.75827h-.00013a25.6,25.6,0,0,1-25.6-25.6v-.00013A102.39987,102.39987,0,0,1,432.30827,160.75827Z" style="fill:#ffd432"/><path d="M446.715,185.4639a10.66927,10.66927,0,0,0-10.5944,9.54567A81.06769,81.06769,0,0,1,387.217,260.99528c-.14257.06068-.28385.12431-.42252.19038-.14453.05258-.28972.10851-.4336.16781a80.58607,80.58607,0,0,1-30.85221,6.07146,4.328,4.328,0,0,1-1.15755-.15318,10.66665,10.66665,0,0,0-5.71094,20.55467q.666.185,1.3457.33466l.00066.00014.10221.02218.00586.00136.04622.00979.00456.001.09961.021.00846.00179.041.00856.00976.002.04948.01017v.0001l.04688.00944.01237.00252.03841.00778.01042.002.04687.0093.013.00254.03386.00676.01757.00335.03125.00613.01758.00335.043.00835.02083.0039.02409.00458.02474.00466.02344.00447.02409.0045.03971.00737.02279.00423.02409.00437.02343.00429.02344.00424.03711.00679.02735.00482.02473.00446.01954.00348.028.00486.01563.00277.06119.01056.00651.00118.03386.00575.00911.00165.03386.00568.00781.00134.0651.01089.00912.00152.0332.00552.00912.00144.11.01776.00586.001.03451.00549.00846.00128.10677.01656.01042.00167.0332.005.00912.0014.11.01636.00521.00081.03646.00527.00586.00083.11263.016.00455.00071.03777.00519.002.00034.11523.01563.00521.00069c.05078.00677.10221.01347.153.01994l.00846.00112.03581.00449.00325.00039.11393.01406.00651.00081.15235.0179.01107.00125.0345.00388.00261.00033.07747.00856.00065.00012.03451.00371.01237.00136.10937.01154.00651.00065.03255.00337.01433.00143.10351.01029.01237.00122.03125.00295.015.00145.10286.00956.01367.00122.02995.00271.01758.00152.10091.00871.015.00126.02995.0025.01563.00133.10221.00816.01432.00113.0306.00232.01823.00137.056.00421.01237.00091.03.00216.01693.00122.02929.00206.01758.0012.054.00368.01692.00112.0267.00177.02083.00138.02669.00167.026.00165.03776.00234.0254.00156.028.00163.02083.00124.02539.00147.02735.00156.03646.002.028.0015.02279.00122.02669.00139.02214.00114.03645.00183.026.00126.03059.00148.02279.001.028.00132.02018.00088.04232.00187.02083.00088.0319.00134.01953.00077.03125.00124.01888.00074.04623.00172.01562.00055.0332.00116.02084.00072.0332.00109.015.00049.04818.00149.01367.0004.03646.001.01758.00049.03646.001.013.00034.04883.00118.01432.00033.0345.00079.01954.00041.0358.00073.013.00025.04753.00087.01758.00029.03385.00054.01693.00025.04232.00059.00716.0001.04948.00057.01432.00014.03646.00037.01628.00014.04752.00035.002,0,.04948.00026.01563.00006.03646.00012.01562,0,.04948.00006h0l.16406-.00013.02019,0,.0625-.00012.02018-.00006.06054-.00016.02995-.0001.05339-.00021.02344-.0001.05794-.00024.03255-.00017.04818-.00024.0358-.0002.04623-.00029.03971-.00026.041-.00027.03776-.00028.04492-.00035.03906-.0003.04167-.00035.03906-.00035.043-.0004.03971-.00037.043-.00043.03516-.00036.04687-.00051.03711-.00043.04362-.00049.03841-.00046.04232-.00051.043-.00055.03841-.00051.03972-.00053.04362-.00061.03841-.00055.043-.00063.03776-.00057.04231-.00065.04232-.00067.03906-.00063.04037-.00067.04362-.00076.03711-.00063.04622-.00083.03321-.00059.04622-.00088.03971-.00073.03972-.00077.04036-.00082.043-.00085.03841-.00079.04623-.001.03255-.00069.04687-.001.03841-.00083.041-.00094.03906-.00089.04232-.001.03971-.00094.04493-.00108.03515-.00085.04362-.0011.04037-.001.04036-.001.03841-.001.04427-.00118.03907-.001.04231-.00118.03776-.001.04167-.00118.04167-.00116.03385-.001.04622-.00134.03907-.00114.04231-.00128.12891-.00395.08268-.00263.11263-.00368.02865-.001.05338-.00177.03321-.00116.04687-.0016.03125-.0011.05274-.00185.02083-.00076.05859-.00213.028-.001.054-.002.0332-.00124.04557-.00171.04232-.00161.03906-.00153.03972-.00152.04166-.00165.03776-.00151.04427-.00174.03907-.00159.04036-.00167.04037-.00165.04231-.00177.03711-.00156.04427-.00188.03321-.00144.04948-.00214.03385-.00144.04427-.00195.03906-.00175.043-.00194.03841-.00171.041-.00189.03841-.00175.04492-.00209.03776-.00175.03972-.00187.04166-.002.041-.002.03971-.00191.04037-.002.03906-.00189.04427-.0022.03841-.00191.03841-.00193.043-.00218.03906-.002.041-.00212.04232-.00216.0358-.00189.04753-.0025.03385-.00179.04428-.00236.03776-.00206.04362-.00234.03711-.002.04622-.00256.03255-.00179.04883-.00273.03385-.00191.04037-.0023.04166-.00234.04037-.00232.04036-.00232.04167-.00244.03711-.00218.04753-.00279.03385-.002.04492-.00266.03581-.00216.04883-.00295.03125-.00191.0664-.00407.01237-.00078.06381-.004.01888-.00116.04557-.00287.03646-.0023.04948-.00315.02994-.00194.16016-.01041.04688-.003.03385-.00228.041-.00271.04036-.00273.028-.00189.05469-.00368.028-.00193.04948-.0034.03971-.00275.04167-.00289.04036-.00282.03906-.00275.03841-.00273.04362-.00309.03386-.0024.04687-.00338.03451-.00246.04557-.00332.03516-.00256.04622-.00342.0319-.00234.04818-.0036.03581-.00264.043-.00324.041-.00307.03711-.00281.04623-.00356.0345-.0026.04036-.00311.043-.00332.03581-.00281.04492-.00348.03581-.0028.043-.00342.03841-.003.04362-.0035.0332-.00265.04883-.0039.03255-.00265.04623-.00376.0345-.00281.04558-.00374.0345-.00283.04948-.00411.028-.00234.05274-.0044.028-.00236.054-.00455.02539-.00214.05469-.00466.026-.00226.056-.00478.02344-.002.05664-.00495.02409-.00209.05468-.00476.0267-.00236.05143-.00456.0293-.00262.05208-.0046.028-.00251.05339-.0048.02669-.00242.05143-.0047.0293-.00264.04688-.0043.0345-.00315.05078-.00472.02735-.00248.05533-.00519.0254-.00238.06184-.00578.01693-.00162.06055-.00574.02083-.002c.10807-.01025.21354-.02048.321-.03106l.0026-.00025.15755-.01562.01693-.00171.0638-.00637.01888-.00191.05859-.006.03256-.00328.04752-.00486.03646-.00374.04167-.00424.04036-.00417.041-.00427.0332-.00346.04688-.0049.03125-.00326.05013-.00527.02994-.00317.04753-.005.03516-.00377.04492-.0048.0332-.00358.04688-.005.0319-.00341.04948-.00533.02994-.0033.04883-.00533.02995-.00332.05143-.00561.02735-.003.05143-.00568.02864-.00321.05209-.00578.02864-.0032.04883-.00545.03255-.00374.04623-.00523.03515-.00393.04232-.00486.03711-.00423.04557-.00523.03191-.00364.04882-.00564.02995-.00352.05208-.006.026-.00309.05273-.00615.02734-.00325.05274-.00617.028-.00329.04883-.00584.03125-.0037.05078-.00607.02735-.00325.05338-.00649.026-.00307.05534-.00678.02344-.00283.05794-.007.02084-.00258.06185-.00759.01757-.00213.06576-.00814.013-.00157.07357-.00922.00521-.00057.07682-.00968.0026-.00028c.26693-.03353.53255-.06794.79883-.1035l.00586-.00079c.07682-.01024.1582-.02118.23437-.03158l.00131-.00014.07747-.01056.00716-.001.07227-.01.00716-.001.071-.00973.01563-.00215.06185-.00861.02083-.00289.05794-.00808.02279-.00323.05664-.008.02083-.00295.0586-.00819.02083-.00295.0612-.00871.01367-.00194.06445-.00927.01693-.00234.06315-.00914.01432-.00207.06316-.00912.01888-.00272.06119-.00885.01693-.00244.0612-.00892.01953-.00288.06315-.00926.01237-.00185.06576-.00967.015-.00221.06641-.00993.01041-.00153.06641-.00993.015-.00221.06511-.00975.01367-.002.06185-.00936.01888-.00287.06445-.00973.01237-.00191.06315-.00958.01823-.00283.06511-.01.01171-.00173.06511-.01.01562-.0024.069-.01076.00717-.00114.069-.0107.01171-.00181.1543-.02419.00195-.00035q.67481-.10629,1.34441-.22113l.0039-.00059.07292-.01257.01042-.00175.071-.01227.0026-.00049.07552-.01306.00456-.00079.151-.02633.01042-.00183.06836-.01209.00911-.00162.06966-.01231.00847-.00145.071-.01257.00781-.00145.06576-.01165.01758-.00318.06315-.01133.013-.00226.06641-.012.01106-.002.06771-.01223.01042-.00189.06771-.01229.01106-.002.06641-.01206.013-.00242.06641-.01209.01107-.00209.069-.01266.00846-.0016.071-.01307.00716-.00132.07227-.01347.00586-.001q.90331-.16809,1.80013-.35149l.0026-.00052a101.61221,101.61221,0,0,0,18.34831-5.60264c.179-.074.35417-.152.52734-.2344.179-.065.35808-.13534.53516-.21057l.15951-.06787.01172-.00513.06575-.028.00651-.00289c.069-.02942.13867-.05937.207-.08891l.00521-.00234c.16732-.072.33138-.14323.4974-.216l.00065,0a102.67765,102.67765,0,0,0,56.791-63.40572l.002-.00624c.02994-.09708.06054-.19522.09049-.29242l.00326-.01145c.02929-.09407.05989-.19521.08854-.28938l.00455-.01494c.02084-.06907.043-.14069.06381-.20983l.00325-.01129.02018-.06625.00521-.01694c.02084-.06916.03972-.13367.06055-.20289l.00586-.02065.01888-.06269.00586-.01994.03971-.13328.00065-.0027.01888-.06407.00716-.02371.01758-.06037.00586-.01873c.01107-.03782.02279-.07934.03451-.11719l.00651-.02436.01693-.05785.00911-.03017.01628-.05684.00455-.014.03256-.11426.01041-.03547c.00586-.019.01042-.03562.01563-.05457l.00976-.034.02474-.08463.013-.04591.01433-.04907.01171-.04235.01368-.04806.01237-.04378.02343-.08181.01237-.04285.01368-.04867.01171-.04281.01368-.04783.01953-.0689.01432-.05087.01432-.05105.01237-.04418.01433-.05147.01106-.03982.02279-.08358.01107-.03812.01432-.053.01172-.04177.015-.0545.015-.055.01823-.06656.01041-.03781.01563-.05751.00976-.03575.02214-.08107.00716-.0261.02018-.07445.00847-.03264.01757-.06414.00847-.03065c.00781-.03045.01562-.05767.02344-.08813l.00781-.02787c.00586-.02393.01107-.04367.01758-.06761l.00911-.03251.01758-.06711.00716-.02671c.00781-.03048.01563-.05927.02409-.08977l.00716-.02748c.00586-.02395.01172-.04585.01823-.06982l.00716-.02791.02279-.08508.00195-.00914c.00846-.03052.01628-.062.02474-.0925l.00651-.02708c.00651-.024.01367-.05022.01953-.07422l.00586-.02157.02474-.09716.00065-.00058.02474-.09615.00456-.01771.02213-.08554.00326-.01387.02539-.09844.00195-.00884.02279-.08931.00456-.01711c.01692-.0656.0332-.1311.04948-.19674l.00455-.01571.02149-.08534.00325-.01505c.01693-.06567.03321-.13295.05013-.19868l.00326-.01441.02278-.0908.002-.00827c.01692-.06795.0332-.13584.05013-.20383l.00195-.00846a102.05477,102.05477,0,0,0,2.37044-13.57977A10.67446,10.67446,0,0,0,446.715,185.4639Z" style="fill:#f4ac03"/><ellipse cx="372.57507" cy="224.75827" rx="26.97886" ry="13.48943" transform="translate(-49.80338 329.28053) rotate(-45)" style="fill:#ffef7d"/><circle cx="404.57507" cy="192.75827" r="10.66667" style="fill:#ffef7d"/><ellipse cx="352" cy="309.33333" rx="32" ry="10.66667" style="fill:#ffef7d"/><circle cx="394.66667" cy="330.66667" r="10.66667" style="fill:#ffef7d"/><ellipse cx="266.66667" cy="394.66667" rx="32" ry="10.66667" style="fill:#ffef7d"/><circle cx="309.33333" cy="416" r="10.66667" style="fill:#ffef7d"/></g></svg>