<svg xmlns="http://www.w3.org/2000/svg" viewBox="0 0 512 512"><title>Artboard 113</title><g id="Fried_Chicken" data-name="Fried Chicken"><path d="M256,320l-64-64-79.62109,79.62109a53.58006,53.58006,0,1,0-25.32683,89.45443,51.96378,51.96378,0,0,0-1.71875,12.25781,53.33334,53.33334,0,1,0,91.04558-37.71224Z" style="fill:#fee3aa"/><path d="M152.95323,488.79887a53.46616,53.46616,0,0,1-67.6199-51.46554H128a10.66666,10.66666,0,1,0,21.33333,0,10.41005,10.41005,0,0,0-3.10416-7.52083l0,0a42.66208,42.66208,0,0,1-.02083-60.35411L195.66667,320l-18.75-18.75,30.16666-30.16667L256,320l-79.625,79.625c13.44881,13.421,18.83872,32.80259,13.71517,52.24454A52.73228,52.73228,0,0,1,152.95323,488.79887Z" style="fill:#fdcf6d"/><path d="M106.66667,373.33333a32,32,0,0,1-64,0" style="fill:#fee3aa"/><path d="M74.66667,426.66667a53.39613,53.39613,0,0,1-53.33334-53.33334H64c0,7.10417,7.59375,12.4375,14.20833,10.0625a10.73738,10.73738,0,0,0,7.125-10.0625H128a53.33342,53.33342,0,0,1-53.33333,53.33334Z" style="fill:#fdcf6d"/><path d="M341.33333,21.33333A149.33323,149.33323,0,0,0,192,170.66667v64l-64,64A85.33339,85.33339,0,0,0,213.33333,384l64-64h64a149.33334,149.33334,0,1,0,0-298.66667Z" style="fill:#a34e2d"/><path d="M277.33333,170.66667H234.66667A106.79223,106.79223,0,0,1,341.33333,64v42.66667A64.07,64.07,0,0,0,277.33333,170.66667Z" style="fill:#b7745a"/><path d="M220.11458,377.21875l-30.16666-30.16667,69.71875-69.71875h81.66666a106.66667,106.66667,0,1,0,0-213.33333V21.33333c82.34375,0,149.33334,66.98959,149.33334,149.33334S423.67708,320,341.33333,320h-64Z" style="fill:#8b2800"/><circle cx="373.33333" cy="266.66667" r="32" style="fill:#8b2800"/><circle cx="426.66667" cy="106.66667" r="21.33333" style="fill:#8b2800"/><circle cx="416" cy="181.33333" r="10.66667" style="fill:#8b2800"/><circle cx="256" cy="277.33333" r="21.33333" style="fill:#8b2800"/><circle cx="181.33333" cy="309.33333" r="10.66667" style="fill:#8b2800"/><circle cx="330.66667" cy="181.33333" r="10.66667" style="fill:#b7745a"/><circle cx="277.33333" cy="170.66667" r="21.33333" style="fill:#b7745a"/></g></svg>