<?xml version="1.0" encoding="iso-8859-1"?>
<!-- Generator: Adobe Illustrator 19.0.0, SVG Export Plug-In . SVG Version: 6.00 Build 0)  -->
<svg version="1.1" id="Layer_1" xmlns="http://www.w3.org/2000/svg" xmlns:xlink="http://www.w3.org/1999/xlink" x="0px" y="0px"
	 viewBox="0 0 512 512" style="enable-background:new 0 0 512 512;" xml:space="preserve">
<path style="fill:#658577;" d="M115.874,385.611c0,22.633,14.72,42.719,36.374,49.304c32.588,9.91,67.681,15.103,103.753,15.103
	s71.165-5.193,103.753-15.103c21.654-6.585,36.374-26.671,36.374-49.304H115.874z"/>
<path style="fill:#6F9A8A;" d="M256,234.439H8.084c0,101.201,110.995,183.242,247.916,183.242s247.916-82.041,247.916-183.242
	L256,234.439L256,234.439z"/>
<path style="fill:#8BAD9C;" d="M8.084,234.439c0,63.458,43.641,119.381,109.95,152.269c68.231,33.842,150.946,14,197.211-46.5l0,0
	c33.109-43.297,2.237-105.768-52.268-105.768L8.084,234.439L8.084,234.439z"/>
<path style="fill:#6F9A8A;" d="M256,304.503c-61.065,0-119.144-7.884-163.54-22.199c-20.1-6.481-36.38-13.921-48.389-22.113
	c-8.502-5.799-13.578-15.427-13.578-25.752s5.076-19.953,13.579-25.752c12.008-8.191,28.288-15.631,48.388-22.112
	c44.396-14.316,102.475-22.199,163.54-22.199s119.144,7.884,163.54,22.199c20.099,6.481,36.38,13.921,48.389,22.113
	c8.502,5.799,13.578,15.427,13.578,25.752s-5.076,19.953-13.579,25.752c-12.008,8.191-28.288,15.631-48.388,22.112
	C375.144,296.619,317.065,304.503,256,304.503z"/>
<path style="fill:#8BAD9C;" d="M256,148.208c-136.921,0-247.916,38.607-247.916,86.232S119.079,320.671,256,320.671
	s247.916-38.607,247.916-86.232S392.921,148.208,256,148.208z M458.818,246.834c-8.665,5.911-22.586,13.099-44.24,20.081
	c-42.836,13.812-99.152,21.419-158.579,21.419s-115.743-7.607-158.579-21.419c-21.654-6.982-35.574-14.17-44.24-20.081
	c-8.694-5.931-8.694-18.859,0-24.789c8.665-5.911,22.586-13.099,44.24-20.081c42.836-13.812,99.152-21.419,158.579-21.419
	s115.743,7.607,158.579,21.419c21.654,6.982,35.574,14.17,44.24,20.081C467.512,227.975,467.512,240.904,458.818,246.834z"/>
<g>
	<path style="fill:#A6C1AD;" d="M92.044,307.199c-0.786,0-1.586-0.115-2.376-0.358c-22.866-7.019-41.862-15.357-56.459-24.78
		c-3.75-2.422-4.828-7.426-2.406-11.177s7.427-4.828,11.177-2.407c13.348,8.617,30.988,16.324,52.434,22.906
		c4.267,1.31,6.667,5.832,5.356,10.101C98.701,304.963,95.5,307.199,92.044,307.199z"/>
	<path style="fill:#A6C1AD;" d="M137.441,318.274c-0.501,0-1.008-0.046-1.517-0.143c-3.683-0.698-7.37-1.441-10.957-2.205
		c-4.367-0.931-7.153-5.226-6.221-9.592c0.93-4.367,5.225-7.156,9.591-6.221c3.47,0.739,7.036,1.457,10.601,2.133
		c4.386,0.832,7.267,5.064,6.435,9.45C144.638,315.573,141.247,318.274,137.441,318.274z"/>
</g>
<path style="fill:#915729;" d="M397.897,108.764c-5.01-5.01-9.932-4.547-15.358-0.864c3.681-5.427,4.145-10.348-0.864-15.358
	c-12.629-12.629-39.927-5.803-60.975,15.244c-21.047,21.047-27.872,48.347-15.244,60.975c5.01,5.01,9.932,4.547,15.358,0.864
	c-3.681,5.427-4.145,10.348,0.864,15.358c12.629,12.629,39.927,5.803,60.975-15.244
	C403.701,148.693,410.526,121.393,397.897,108.764z"/>
<path style="fill:#D5A150;" d="M257.006,68.316c-5.01,5.01-4.547,9.932-0.865,15.358c-5.427-3.681-10.348-4.145-15.358,0.864
	c-12.629,12.629-5.803,39.927,15.244,60.975c21.047,21.048,48.347,27.872,60.975,15.244c5.01-5.01,4.547-9.932,0.864-15.358
	c5.427,3.681,10.348,4.145,15.358-0.864c12.629-12.629,5.803-39.927-15.244-60.975C296.933,62.513,269.633,55.688,257.006,68.316z"
	/>
<path style="fill:#915729;" d="M170.774,68.316c-5.01,5.01-4.547,9.932-0.864,15.358c-5.427-3.681-10.348-4.145-15.358,0.864
	c-12.629,12.629-5.803,39.927,15.244,60.975s48.347,27.872,60.975,15.244c5.01-5.01,4.547-9.932,0.864-15.358
	c5.427,3.681,10.348,4.145,15.358-0.864c12.629-12.629,5.803-39.927-15.244-60.975S183.402,55.688,170.774,68.316z"/>
<path style="fill:#AD712C;" d="M180.547,158.987c0-7.085-3.808-10.237-10.249-11.471c6.44-1.234,10.249-4.387,10.249-11.471
	c0-17.86-24.13-32.337-53.895-32.337s-53.895,14.477-53.895,32.337c0,7.085,3.808,10.237,10.249,11.471
	c-6.44,1.234-10.249,4.387-10.249,11.471c0,17.86,24.13,32.337,53.895,32.337S180.547,176.846,180.547,158.987z"/>
<g>
	<path style="fill:#D5A150;" d="M169.076,126.65c-7.085,0-10.237,3.808-11.471,10.249c-1.234-6.44-4.387-10.249-11.471-10.249
		c-17.86,0-32.337,24.13-32.337,53.895s14.477,53.895,32.337,53.895c7.085,0,10.237-3.808,11.471-10.249
		c1.234,6.44,4.387,10.249,11.471,10.249c17.86,0,32.337-24.13,32.337-53.895S186.935,126.65,169.076,126.65z"/>
	<path style="fill:#D5A150;" d="M439.102,242.41c5.427,3.681,10.349,4.145,15.358-0.864c12.629-12.629,5.803-39.927-15.244-60.975
		c-21.047-21.048-48.347-27.872-60.975-15.244c-5.01,5.01-4.547,9.932-0.864,15.358c-5.427-3.681-10.349-4.145-15.358,0.864
		c-12.629,12.629-5.803,39.927,15.244,60.975c14.569,14.569,32.129,22.316,45.75,21.521c5.486-1.964,10.388-3.927,14.768-5.858
		c0.151-0.142,0.309-0.273,0.457-0.42C443.246,252.758,442.783,247.838,439.102,242.41z"/>
</g>
<path style="fill:#AD712C;" d="M353.01,137.429c-7.085,0-10.237,3.808-11.471,10.249c-1.234-6.44-4.387-10.249-11.471-10.249
	c-17.86,0-32.337,24.13-32.337,53.895s14.477,53.895,32.337,53.895c7.085,0,10.237-3.808,11.471-10.249
	c1.234,6.44,4.387,10.249,11.471,10.249c17.86,0,32.337-24.13,32.337-53.895S370.87,137.429,353.01,137.429z"/>
<g>
	<path style="fill:#915729;" d="M422.123,227.333c-5.01-5.01-9.932-4.547-15.358-0.864c3.681-5.427,4.145-10.349-0.864-15.358
		c-12.629-12.629-39.927-5.803-60.975,15.244c-19.606,19.606-26.862,44.631-17.557,58.175c32.312-3.548,62.082-9.512,87.21-17.615
		c3.335-1.076,6.466-2.156,9.443-3.236C430.306,249.223,430.123,235.333,422.123,227.333z"/>
	<path style="fill:#915729;" d="M289.722,148.208c-7.085,0-10.237,3.808-11.471,10.249c-1.234-6.44-4.387-10.249-11.471-10.249
		c-17.86,0-32.337,24.13-32.337,53.895s14.477,53.895,32.337,53.895c7.085,0,10.237-3.808,11.471-10.249
		c1.234,6.44,4.387,10.249,11.471,10.249c17.86,0,32.337-24.13,32.337-53.895S307.58,148.208,289.722,148.208z"/>
</g>
<path style="fill:#D5A150;" d="M331.289,256.689c6.44-1.234,10.249-4.387,10.249-11.471c0-17.86-24.13-32.337-53.895-32.337
	c-29.765,0-53.895,14.477-53.895,32.337c0,7.085,3.808,10.237,10.249,11.471c-6.44,1.234-10.249,4.387-10.249,11.471
	c0,7.598,4.38,14.58,11.691,20.099c3.279,0.046,6.567,0.074,9.867,0.074c27.601,0,54.529-1.644,79.748-4.785
	c4.135-4.576,6.484-9.817,6.484-15.388C341.536,261.076,337.729,257.923,331.289,256.689z"/>
<g>
	<path style="fill:#915729;" d="M222.968,191.854c-7.085,0-10.237,3.808-11.471,10.249c-1.234-6.44-4.387-10.249-11.471-10.249
		c-17.86,0-32.337,24.13-32.337,53.895c0,14.821,3.592,28.243,9.4,37.986c20.963,2.553,43.082,4.076,65.775,4.483
		c7.569-9.864,12.441-25.214,12.441-42.469C255.305,215.984,240.828,191.854,222.968,191.854z"/>
	<path style="fill:#915729;" d="M136.74,223.66c0-29.765-14.477-53.895-32.337-53.895c-7.085,0-10.237,3.808-11.471,10.249
		c-1.234-6.44-4.387-10.249-11.471-10.249c-17.86,0-32.337,24.13-32.337,53.895c0,7.942,1.039,15.474,2.89,22.263
		c0.376,0.314,0.753,0.627,1.17,0.911c8.665,5.911,22.586,13.099,44.239,20.081c6.477,2.089,13.268,4.032,20.327,5.832
		C128.946,264.277,136.74,245.492,136.74,223.66z"/>
</g>
<g>
	<path style="fill:#AD712C;" d="M166.38,226.354c-21.047-21.047-48.347-27.872-60.975-15.244c-5.01,5.01-4.547,9.932-0.864,15.358
		c-5.427-3.681-10.349-4.145-15.358,0.864c-8,8-8.183,21.89-1.899,36.347c2.977,1.08,6.108,2.16,9.443,3.236
		c25.128,8.103,54.898,14.065,87.21,17.615C193.242,270.985,185.986,245.96,166.38,226.354z"/>
	<path style="fill:#AD712C;" d="M281.997,141.101c-5.01-5.01-9.932-4.547-15.358-0.864c3.681-5.427,4.145-10.348-0.864-15.358
		c-12.629-12.629-39.927-5.803-60.975,15.244s-27.872,48.347-15.244,60.975c5.01,5.01,9.932,4.547,15.358,0.864
		c-3.681,5.427-4.145,10.348,0.864,15.358c12.629,12.629,39.927,5.803,60.975-15.244S294.625,153.73,281.997,141.101z"/>
</g>
<path d="M383.663,300.111c-6.849,1.459-13.987,2.817-21.214,4.032c-33.308,5.603-69.123,8.443-106.449,8.443
	c-4.465,0-8.084,3.62-8.084,8.084c0,4.465,3.62,8.084,8.084,8.084c38.221,0,74.937-2.917,109.13-8.667
	c7.456-1.254,14.824-2.655,21.902-4.163c4.367-0.931,7.152-5.226,6.222-9.592C392.322,301.966,388.027,299.181,383.663,300.111z"/>
<path d="M224.03,311.868c-7.128-0.323-14.295-0.761-21.302-1.301c-4.45-0.341-8.338,2.988-8.681,7.44
	c-0.343,4.452,2.988,8.339,7.44,8.681c7.177,0.553,14.515,1.001,21.812,1.331c0.125,0.005,0.249,0.009,0.373,0.009
	c4.296,0,7.873-3.382,8.069-7.718C231.941,315.85,228.49,312.07,224.03,311.868z"/>
<path d="M138.938,302.245c-3.57-0.677-7.136-1.395-10.6-2.133c-4.371-0.936-8.662,1.854-9.592,6.221
	c-0.931,4.367,1.854,8.662,6.221,9.592c3.583,0.764,7.269,1.506,10.958,2.206c0.51,0.096,1.016,0.143,1.517,0.143
	c3.806,0,7.198-2.701,7.933-6.578C146.207,307.309,143.326,303.079,138.938,302.245z"/>
<path d="M435.056,166.222c-9.506-7.226-19.758-12.138-29.538-14.207c9.647-19.142,9.23-37.833-1.905-48.966
	c-2.243-2.243-5.789-4.939-10.433-5.789c-0.85-4.645-3.546-8.191-5.789-10.434c-12.105-12.105-33.848-11.318-54.746,1.325
	c-2.696-3.596-5.687-7.044-8.949-10.306C299.121,53.27,267.317,46.574,251.289,62.6c-2.243,2.243-4.939,5.789-5.789,10.434
	c-3.573,0.654-6.49,2.402-8.671,4.194c-24.483-24.062-55.88-30.518-71.772-14.628c-2.243,2.243-4.939,5.789-5.789,10.434
	c-4.644,0.85-8.191,3.546-10.434,5.789c-4.606,4.607-7.442,10.733-8.358,17.796c-4.507-0.654-9.125-0.996-13.823-0.996
	c-34.755,0-61.979,17.755-61.979,40.421c0,3.172,0.601,7.586,3.284,11.472c-2.683,3.885-3.284,8.3-3.284,11.471
	c0,2.531,0.356,5.022,1.03,7.463c-3.13,1.999-6.042,4.591-8.692,7.668C19.713,190.774,0,211.606,0,234.439
	c0,62.239,40.274,120.336,107.994,156.192c1.99,24.301,18.324,44.847,41.901,52.018c33.72,10.254,69.419,15.453,106.105,15.453
	s72.385-5.2,106.105-15.453c23.577-7.17,39.911-27.716,41.901-52.017C471.725,354.777,512,296.678,512,234.439
	C512,207.894,484.681,183.698,435.056,166.222z M427.839,221.617c-2.243-2.243-5.789-4.94-10.434-5.789
	c-0.85-4.645-3.546-8.191-5.789-10.433c-6.762-6.762-16.808-9.737-28.283-8.373c-8.186,0.97-16.997,4.116-25.482,9.096
	c-3.85,2.26-5.141,7.214-2.88,11.065c2.261,3.851,7.214,5.139,11.065,2.88c6.576-3.86,13.216-6.276,19.203-6.985
	c4.568-0.542,10.865-0.332,14.945,3.75c1.575,1.574,1.998,1.997-0.109,5.103c-2.177,3.209-1.768,7.512,0.974,10.254
	s7.045,3.152,10.255,0.973c3.104-2.108,3.528-1.684,5.103-0.109c4.73,4.73,5.207,13.838,1.441,24.24
	c-1.852,0.642-3.751,1.287-5.752,1.932c-18.472,5.956-39.526,10.736-62.296,14.225c0.338-1.743,0.514-3.507,0.514-5.285
	c0-3.171-0.601-7.586-3.284-11.471c2.683-3.885,3.284-8.3,3.284-11.472c0-5.632-1.682-11.07-4.997-16.164
	c-4.552-6.993-12.039-12.949-21.652-17.222c-10.355-4.603-22.572-7.035-35.33-7.035c-4.465,0-8.084,3.62-8.084,8.084
	c0,4.465,3.62,8.084,8.084,8.084c10.513,0,20.458,1.951,28.763,5.642c6.656,2.959,11.865,6.96,14.669,11.267
	c1.578,2.425,2.379,4.896,2.379,7.344c0,2.227,0,2.826-3.685,3.532c-3.809,0.73-6.562,4.062-6.562,7.94
	c0,3.878,2.754,7.21,6.562,7.94c3.685,0.706,3.685,1.304,3.685,3.531c0,2.617-0.904,5.22-2.671,7.767
	c-23.931,2.838-49.388,4.322-75.476,4.322c-58.605,0-114.042-7.468-156.097-21.029c-2.002-0.646-3.903-1.29-5.756-1.934
	c-3.765-10.398-3.285-19.506,1.447-24.238c1.574-1.574,1.997-1.998,5.104,0.109c3.21,2.177,7.513,1.768,10.255-0.974
	c2.742-2.742,3.151-7.046,0.973-10.255c-2.107-3.105-1.684-3.528-0.109-5.103c4.202-4.201,11.868-5.114,21.034-2.503
	c9.703,2.763,19.828,9.066,28.508,17.746c0.794,0.794,1.639,1.685,2.587,2.722c5.898,6.459,10.535,13.63,13.412,20.739
	c1.675,4.139,6.387,6.135,10.527,4.461c4.139-1.675,6.136-6.388,4.461-10.527c-3.109-7.681-7.797-15.34-13.659-22.36
	c3.976-15.937,12.909-27.153,22.007-27.165c0.041,0,0.083,0,0.126-0.001c2.146,0.001,2.738,0.055,3.433,3.685
	c0.73,3.809,4.062,6.562,7.94,6.562c3.878,0,7.21-2.754,7.94-6.562c0.706-3.685,1.304-3.685,3.531-3.685
	c7.103,0,14.425,6.98,19.109,18.215c0.702,1.685,1.351,3.484,1.926,5.346c2.105,6.813,3.218,14.506,3.218,22.248
	c0,4.424-0.354,8.803-1.049,13.017c-0.729,4.404,2.253,8.566,6.658,9.294c0.446,0.074,0.889,0.11,1.328,0.11
	c3.885,0,7.311-2.808,7.966-6.767c0.84-5.081,1.265-10.348,1.265-15.652c0-9.473-1.325-18.564-3.939-27.022
	c-0.044-0.141-0.095-0.276-0.139-0.417c4.364-3.082,8.541-6.596,12.464-10.517c15.269-15.269,23.954-33.795,23.941-49.54
	c1.315,0.78,2.616,1.79,3.897,3.031c6.578,6.366,11.462,17.919,13.065,30.904c0.506,4.095,3.989,7.096,8.013,7.096
	c0.33,0,0.664-0.02,1-0.063c4.431-0.546,7.58-4.582,7.033-9.013c-1.726-13.988-6.546-26.569-13.476-35.578
	c4.202-5.851,9.186-9.117,14.125-9.117c1.236,0,1.97,0.207,2.243,0.4c0.351,0.248,0.9,1.258,1.289,3.286
	c0.73,3.809,4.063,6.562,7.94,6.562s7.209-2.754,7.94-6.562c0.706-3.685,1.304-3.685,3.531-3.685c7.713,0,15.39,7.878,20.032,20.562
	c1.742,4.76,2.964,9.961,3.634,15.459c0.499,4.1,3.986,7.109,8.015,7.109c0.326,0,0.654-0.02,0.986-0.06
	c4.432-0.539,7.588-4.569,7.049-9.001c-0.501-4.12-1.267-8.121-2.28-11.966c0.691-0.162,1.41-0.292,2.163-0.38
	c11.862-1.4,27.917,6.079,40.89,19.052c9.026,9.026,15.632,19.919,18.124,29.889c1.254,5.011,2.545,14.229-2.88,19.653
	c-2.378,2.377-2.963,5.866-1.76,8.792c-3.014,1.686-6.578,3.51-10.805,5.426C437.575,238.59,434.755,228.533,427.839,221.617z
	 M84.527,139.576c-3.685-0.706-3.685-1.305-3.685-3.532c0-11.471,18.814-24.253,45.811-24.253c6.891,0,13.552,0.845,19.798,2.513
	c0.032,0.009,0.065,0.013,0.097,0.02c0.211,0.054,0.425,0.1,0.64,0.137c0.084,0.014,0.167,0.024,0.251,0.036
	c0.165,0.023,0.331,0.042,0.498,0.055c0.117,0.009,0.234,0.013,0.35,0.016c0.08,0.002,0.157,0.011,0.237,0.011
	c0.04,0,0.081-0.008,0.121-0.008c0.276-0.003,0.55-0.02,0.82-0.052c0.029-0.003,0.058-0.002,0.087-0.005
	c0.009-0.001,0.017-0.003,0.026-0.004c0.216-0.028,0.427-0.069,0.638-0.114c0.056-0.012,0.113-0.019,0.168-0.032
	c0.167-0.04,0.331-0.091,0.495-0.141c0.096-0.029,0.194-0.052,0.288-0.084c0.038-0.013,0.073-0.03,0.11-0.044
	c0.872-0.315,1.665-0.773,2.363-1.343c0.07-0.057,0.144-0.11,0.213-0.169c0.058-0.051,0.111-0.108,0.168-0.161
	c0.673-0.621,1.245-1.358,1.679-2.196c0.017-0.032,0.037-0.063,0.054-0.095c0.044-0.088,0.08-0.182,0.121-0.272
	c0.072-0.157,0.146-0.313,0.208-0.474c0.019-0.05,0.033-0.102,0.051-0.152c0.074-0.207,0.144-0.416,0.203-0.629
	c0.002-0.008,0.005-0.015,0.008-0.023c0.013-0.047,0.018-0.096,0.03-0.143c0.051-0.204,0.097-0.41,0.133-0.619
	c0.017-0.1,0.025-0.2,0.038-0.302c0.02-0.16,0.042-0.318,0.053-0.48c0.011-0.153,0.01-0.305,0.012-0.458
	c0.001-0.11,0.006-0.219,0.003-0.329c-0.006-0.2-0.025-0.399-0.045-0.597c-0.006-0.059-0.005-0.117-0.013-0.176
	c-0.592-4.658-0.428-11.08,3.711-15.219c1.574-1.574,1.998-1.998,5.104,0.109c3.209,2.177,7.513,1.769,10.255-0.973
	s3.151-7.045,0.973-10.255c-2.107-3.105-1.684-3.529-0.109-5.104c8.111-8.111,30.453-3.846,49.542,15.246
	c1.706,1.705,3.358,3.512,4.909,5.367c0.012,0.014,0.024,0.027,0.036,0.041c1.895,2.269,3.653,4.634,5.223,7.028
	c2.449,3.733,7.462,4.775,11.194,2.324c3.733-2.449,4.774-7.461,2.324-11.194c-0.75-1.144-1.544-2.277-2.357-3.402
	c1-0.824,1.777-0.748,4.24,0.923c3.209,2.177,7.513,1.769,10.255-0.973c2.742-2.742,3.151-7.045,0.973-10.255
	c-2.107-3.105-1.684-3.529-0.109-5.104c8.111-8.111,30.453-3.846,49.542,15.245c4.417,4.416,8.229,9.22,11.329,14.277
	c2.212,3.609,4.002,7.265,5.32,10.867c1.199,3.277,4.295,5.309,7.593,5.309c0.923,0,1.86-0.158,2.778-0.494
	c4.193-1.534,6.349-6.176,4.814-10.37c-0.847-2.315-1.841-4.637-2.971-6.947c14.059-8.447,28.328-10.163,34.832-3.659
	c1.574,1.575,1.998,1.998-0.109,5.103c-2.177,3.209-1.769,7.512,0.973,10.255c2.742,2.742,7.047,3.151,10.255,0.974
	c3.105-2.107,3.529-1.685,5.104-0.11c6.849,6.849,4.517,22.548-5.255,37.357c-0.759,0.174-1.507,0.364-2.238,0.585
	c-7.525-14.599-18.967-23.078-31.678-23.078c-3.173,0-7.591,0.601-11.476,3.288c-3.14-2.182-6.997-3.288-11.466-3.288
	c-9.814,0-19.056,5.206-26.248,14.529c-3.9-2.161-8.035-3.404-12.272-3.683c-1.104-1.747-2.384-3.354-3.835-4.805
	c-2.243-2.243-5.789-4.94-10.434-5.789c-0.85-4.645-3.546-8.191-5.789-10.433c-4.663-4.664-10.954-7.58-18.192-8.432
	c-13.714-1.615-30.092,4.03-44.934,15.496c-3.533,2.73-4.184,7.807-1.455,11.341c2.73,3.532,7.806,4.184,11.341,1.455
	c11.351-8.77,23.751-13.338,33.155-12.234c3.643,0.429,6.555,1.711,8.651,3.808c1.575,1.574,1.998,1.997-0.109,5.103
	c-2.177,3.21-1.768,7.512,0.974,10.254c2.742,2.742,7.045,3.151,10.255,0.973c3.104-2.107,3.528-1.685,5.103-0.109
	c1.213,1.213,2.164,2.729,2.831,4.51c3.648,9.748-1.389,28.348-18.074,45.032c-2.483,2.483-5.082,4.763-7.769,6.836
	c-7.505-12.315-18.136-19.425-29.604-19.425c-3.171,0-7.586,0.601-11.471,3.284c-3.885-2.683-8.3-3.284-11.472-3.284
	c-0.049,0-0.098,0-0.148,0.001c-14.745,0.078-27.781,11.879-34.811,30.501c-8.93-7.337-18.798-12.742-28.482-15.5
	c-14.976-4.266-28.424-1.853-36.895,6.62c-2.243,2.243-4.94,5.789-5.789,10.434c-4.644,0.85-8.191,3.546-10.434,5.789
	c-6.917,6.918-9.737,16.975-8.344,28.428c-7.395-3.354-12.817-6.439-16.68-8.957c-1.277-5.548-1.929-11.396-1.929-17.427
	c0-24.844,10.758-42.588,21.159-45.387c1.043-0.28,2.085-0.424,3.094-0.424c2.226,0,2.825,0,3.531,3.685
	c0.73,3.809,4.063,6.562,7.94,6.562s7.21-2.754,7.94-6.562c0.706-3.685,1.305-3.685,3.532-3.685c1.997,0,4.013,0.53,5.993,1.574
	c0.002,0.001,0.004,0.002,0.006,0.003c2.708,1.429,5.289,3.761,7.674,6.929c2.685,3.567,7.752,4.284,11.32,1.599
	c3.568-2.685,4.284-7.753,1.599-11.32c-2.496-3.317-5.235-6.107-8.176-8.361c2.978-19.148,12.749-33.539,23.315-33.539
	c2.226,0,2.825,0,3.531,3.685c0.73,3.809,4.063,6.562,7.94,6.562s7.21-2.754,7.94-6.562c0.706-3.685,1.305-3.685,3.532-3.685
	c2.12,0,4.272,0.607,6.394,1.802c5.089,2.869,9.688,8.896,12.951,16.97c1.794,4.439,3.121,9.33,3.943,14.54
	c0.696,4.411,4.847,7.422,9.246,6.724c4.411-0.696,7.42-4.837,6.724-9.247c-1.014-6.42-2.671-12.501-4.923-18.075
	c-4.696-11.624-11.613-20.268-20.001-24.996c-4.576-2.579-9.397-3.887-14.334-3.887c-3.172,0-7.586,0.601-11.472,3.284
	c-3.885-2.683-8.3-3.284-11.471-3.284c-18.14,0-33.471,17.712-38.595,43.301c-1.039-0.117-2.085-0.185-3.136-0.185
	c-3.172,0-7.586,0.601-11.472,3.284c-3.885-2.683-8.3-3.284-11.471-3.284c-0.098,0-0.197,0.009-0.295,0.01
	c-0.215-0.902-0.323-1.805-0.323-2.704c0-2.226,0-2.825,3.685-3.531c3.809-0.73,6.562-4.062,6.562-7.94
	C91.086,143.64,88.337,140.306,84.527,139.576z M392.468,378.402c-19.37,9.827-40.522,17.485-62.873,22.76
	c-4.346,1.025-7.036,5.38-6.011,9.725c0.877,3.721,4.197,6.229,7.861,6.229c0.614,0,1.24-0.07,1.864-0.218
	c18.364-4.334,35.967-10.221,52.546-17.515c-4.307,13.134-14.682,23.609-28.455,27.798c-32.193,9.791-66.31,14.754-101.401,14.754
	s-69.207-4.964-101.401-14.753c-13.765-4.187-24.137-14.653-28.449-27.777c39.25,17.278,83.804,26.362,129.849,26.362
	c11.067,0,22.208-0.532,33.112-1.583c4.444-0.428,7.701-4.378,7.271-8.823c-0.428-4.443-4.365-7.695-8.823-7.271
	c-10.391,1.001-21.01,1.508-31.562,1.508c-49.055,0-96.245-10.788-136.468-31.196c-49.401-25.065-83.582-62.357-97.008-104.089
	c15.196,12.479,37.823,23.529,67.144,32.53c0.79,0.243,1.589,0.358,2.375,0.358c3.458,0,6.658-2.237,7.725-5.714
	c1.31-4.268-1.088-8.79-5.356-10.101c-48.99-15.039-78.24-36.326-78.24-56.945c0-12.056,9.858-24.343,28.201-35.569
	c-2.145,7.621-3.331,16.011-3.331,24.79c0,1.631,0.052,3.248,0.132,4.858c-1.591,1.477-2.592,3.579-2.592,5.921
	c0,7.32,3.444,14.155,9.252,18.491c0.246,0.189,0.508,0.384,0.798,0.581c0.001,0,0.001,0.001,0.002,0.001
	c11.37,7.755,26.952,14.853,46.313,21.097c43.616,14.063,100.814,21.809,161.059,21.809c27.829,0,55.004-1.656,80.494-4.82
	c0.057-0.005,0.113-0.014,0.17-0.021c29.627-3.687,56.972-9.414,80.396-16.967c19.362-6.243,34.945-13.341,46.313-21.097
	c6.293-4.291,10.05-11.422,10.05-19.073c0-3.221-1.888-5.994-4.616-7.293c0.303-4.63-0.183-9.628-1.498-14.891
	c-1.479-5.915-3.958-11.906-7.275-17.74c23.082,12.269,35.797,26.197,35.797,39.925c0,16.032-17.418,32.467-49.045,46.277
	c-8.716,3.806-18.543,7.395-29.207,10.668c-4.268,1.31-6.667,5.833-5.356,10.101c1.068,3.478,4.267,5.714,7.725,5.714
	c0.786,0,1.585-0.115,2.375-0.358c11.249-3.452,21.656-7.257,30.932-11.307c14.807-6.465,26.912-13.578,36.214-21.203
	C476.04,316.054,441.862,353.34,392.468,378.402z"/>
<g>
</g>
<g>
</g>
<g>
</g>
<g>
</g>
<g>
</g>
<g>
</g>
<g>
</g>
<g>
</g>
<g>
</g>
<g>
</g>
<g>
</g>
<g>
</g>
<g>
</g>
<g>
</g>
<g>
</g>
</svg>
