<?xml version="1.0" encoding="utf-8"?>
<!-- Generator: Adobe Illustrator 24.3.0, SVG Export Plug-In . SVG Version: 6.00 Build 0)  -->
<svg version="1.1" id="Layer_1" xmlns="http://www.w3.org/2000/svg" xmlns:xlink="http://www.w3.org/1999/xlink" x="0px" y="0px"
	 viewBox="0 0 325 325" enable-background="new 0 0 325 325" xml:space="preserve">
<g id="tavuk_1_">
	<g>
		<path fill="#483231" d="M160.015,227.803c-0.128,0.596-0.462,2.484-1.007,7.833l-0.077,0.729c-0.483,4.789-0.612,5.69-1.772,5.69
			h-0.003c-0.387,0-0.912-0.099-1.571-0.224c-0.412-0.081-0.753-0.139-1.057-0.187c-2.06-0.347-2.23-0.374-2.132-3.421
			c0.106-3.302,0.808-8.759,0.922-9.665L160.015,227.803L160.015,227.803z"/>
		<path opacity="0.3" fill="#916263" d="M155.78,234.316c0.09,0,0.185,0.004,0.275,0.019c2.083,0.243,1.58,1.537,0.906,2.049
			c-0.323,0.246-0.943,0.446-1.517,0.446c-0.613,0-1.176-0.231-1.262-0.877C154.034,234.821,154.892,234.316,155.78,234.316
			L155.78,234.316z"/>
		<path fill="#3F2727" d="M146.403,240.576c5.491-3.721,10.772-2,10.772-2s3.183,1.254,5.532,5.884
			c2.623,5.177,2.623,11.182,2.623,11.182c-0.964,3.823-3.564,3.119-5.39,0.294c-1.823-2.826-6.287-8.614-9.943-8.008
			C140.342,249.521,141.284,244.047,146.403,240.576L146.403,240.576z"/>
		<path fill="#3F2727" d="M168.975,246.201c-1.53-4.59-4.389-7.096-4.389-7.096c5.71-3.474,10.652,7.122,9.301,15.773
			c-0.803,5.125-4.538,0.208-4.538,0.208s1.475-4.624-0.053-9.214L168.975,246.201z"/>
		<path fill="#3F2727" d="M157.174,238.576c3.354-2.65,7.413,0.529,7.413,0.529s3.179,2.177,4.709,6.767
			c1.529,4.59,0.648,9.357,0.648,9.357c-2.648,5.825-5.357-0.008-5.357-0.008s0.641-4.869-1.983-10.047
			C160.258,240.543,157.174,238.576,157.174,238.576L157.174,238.576z"/>
		<path fill="#DE304E" d="M152.237,238.129c-0.004,0.005-0.004,0.007-0.004,0.01c-0.058,0.007-0.114,0.014-0.169,0.024
			c0-0.004,0-0.008,0-0.011C152.122,238.144,152.175,238.135,152.237,238.129L152.237,238.129z M159.158,237.452
			c0,0,0,0.002,0,0.005c-0.053,0.013-0.111,0.025-0.169,0.038v-0.005C159.048,237.475,159.105,237.462,159.158,237.452
			L159.158,237.452z"/>
		<path fill="#D82B41" d="M152.288,238.119c0,0.004,0,0.01,0,0.015c-0.019,0.001-0.036,0.001-0.054,0.005
			c0-0.004,0-0.005,0.004-0.01C152.251,238.125,152.269,238.123,152.288,238.119L152.288,238.119z M158.988,237.489v0.005
			c-0.01,0.004-0.02,0.005-0.033,0.009c0,0,0.002-0.004,0.002-0.005C158.968,237.494,158.98,237.493,158.988,237.489
			L158.988,237.489z"/>
		<path fill="#D33A3D" d="M158.813,237.537v0.004c-0.091,0.025-0.179,0.054-0.265,0.083
			C158.638,237.592,158.724,237.564,158.813,237.537L158.813,237.537z"/>
		<path fill="#D4273A" d="M152.4,238.105c0,0.005,0,0.009,0,0.012c-0.037,0.002-0.078,0.007-0.112,0.017c0-0.005,0-0.011,0-0.015
			C152.322,238.115,152.363,238.11,152.4,238.105L152.4,238.105z"/>
		<path fill="#DF5A58" d="M162.442,258.009c0.204,0.065,0.407,0.099,0.605,0.099c0.195,0,0.379-0.032,0.561-0.096
			c-0.176,0.071-0.364,0.106-0.561,0.106C162.851,258.118,162.648,258.08,162.442,258.009L162.442,258.009z"/>
		<path fill="#DF5A58" d="M172.07,257.013c0.119,0.037,0.236,0.062,0.355,0.062c0.082,0,0.162-0.013,0.244-0.034
			c-0.078,0.028-0.157,0.041-0.244,0.041C172.306,257.081,172.188,257.058,172.07,257.013L172.07,257.013z"/>
		<path fill="#D82B41" d="M165.162,255.59L165.162,255.59L165.162,255.59L165.162,255.59z M165.12,254.67c0,0,0,0,0,0.002
			C165.12,254.67,165.12,254.67,165.12,254.67L165.12,254.67z M165.12,254.66c0,0,0,0.002,0,0.004
			C165.12,254.662,165.12,254.66,165.12,254.66L165.12,254.66z M165.12,254.654c0,0.004,0,0.004,0,0.004
			S165.12,254.657,165.12,254.654L165.12,254.654z M165.118,254.647v0.002C165.118,254.647,165.118,254.647,165.118,254.647
			L165.118,254.647z M165.118,254.643L165.118,254.643L165.118,254.643L165.118,254.643z M165.118,254.633v0.002V254.633
			L165.118,254.633z M165.118,254.627L165.118,254.627L165.118,254.627L165.118,254.627z M165.116,254.617L165.116,254.617
			L165.116,254.617L165.116,254.617z M165.116,254.609v0.003V254.609L165.116,254.609z M165.116,254.602c0,0,0,0.002,0,0.004
			c0-0.002,0-0.002,0-0.002V254.602z M165.116,254.587v0.004V254.587L165.116,254.587z M165.116,254.58c0,0,0,0.003,0,0.004
			C165.116,254.583,165.116,254.581,165.116,254.58L165.116,254.58z"/>
		<path fill="#D82B41" d="M169.453,245.821c0.005,0.003,0.006,0.008,0.007,0.013C169.46,245.829,169.458,245.824,169.453,245.821
			L169.453,245.821z M169.445,245.798l0.003,0.001L169.445,245.798L169.445,245.798z M169.439,245.772v0.002V245.772
			L169.439,245.772z M169.43,245.749L169.43,245.749L169.43,245.749L169.43,245.749z M169.416,245.704v0.002V245.704
			L169.416,245.704z M166.077,240.214c0,0,0,0,0.003,0C166.077,240.214,166.077,240.214,166.077,240.214L166.077,240.214z
			 M166.07,240.203l0.001,0.002L166.07,240.203L166.07,240.203z M166.059,240.192l0.002,0.005L166.059,240.192L166.059,240.192z
			 M166.051,240.184l0.002,0.002C166.051,240.184,166.051,240.184,166.051,240.184L166.051,240.184z M166.041,240.174l0.002,0.002
			L166.041,240.174L166.041,240.174z M166.031,240.163l0.003,0.004l-0.001-0.004H166.031z M166.02,240.154
			c0,0,0.003,0.004,0.004,0.004C166.023,240.157,166.02,240.155,166.02,240.154L166.02,240.154z M166.012,240.145
			c0.002,0.001,0.004,0.001,0.004,0.004C166.016,240.146,166.014,240.146,166.012,240.145L166.012,240.145z M166.002,240.136
			c0,0,0.002,0.002,0.005,0.004C166.004,240.138,166.002,240.136,166.002,240.136L166.002,240.136z M165.992,240.123
			c0.002,0.004,0.005,0.004,0.008,0.007C165.997,240.127,165.994,240.127,165.992,240.123L165.992,240.123z M165.965,240.095
			c0.007,0.01,0.017,0.017,0.025,0.026C165.982,240.112,165.972,240.105,165.965,240.095L165.965,240.095z"/>
		<path opacity="0.3" fill="#916263" d="M153.123,239.424c1.094,0,2.357,0.25,3.713,0.887c2.318,1.094,4.192,3.447,5.516,7.526
			c0.859,2.653,1.105,4.59,0.553,4.59c-0.296,0-0.825-0.562-1.615-1.876c-2.227-3.714-4.109-7.859-9.45-7.859
			c-0.057,0-0.115,0-0.168,0.003c-0.047,0-0.09,0.003-0.133,0.003c-2.066,0-2.66-0.821-2.241-1.638
			C149.715,240.243,151.145,239.424,153.123,239.424L153.123,239.424z"/>
		<path opacity="0.3" fill="#916263" d="M161.848,238.884c0.813,0,2.653,1.112,3.949,2.974c0.943,1.359,3.197,4.706,2.652,10.326
			c-0.09,0.931-0.172,1.331-0.275,1.331c-0.456,0-1.337-7.893-5.337-12.145C161.212,239.642,161.18,238.884,161.848,238.884
			L161.848,238.884z"/>
		<path opacity="0.3" fill="#916263" d="M166.323,238.886c0.813,0,2.652,1.111,3.947,2.974c0.944,1.357,3.199,4.706,2.653,10.325
			c-0.09,0.931-0.172,1.332-0.274,1.332c-0.456,0-1.338-7.894-5.338-12.144C165.687,239.644,165.654,238.886,166.323,238.886
			L166.323,238.886z"/>
		<path fill="#483231" d="M191.043,225.58c0,0-0.353,1.12-1.061,8.042c-0.703,6.925-0.589,6.927-3.65,6.336
			c-3.059-0.588-3.411-0.125-3.291-3.769c0.116-3.645,0.938-9.815,0.938-9.815L191.043,225.58L191.043,225.58z"/>
		<path opacity="0.3" fill="#916263" d="M187.625,232.667c0.675,0.493,0.271,1.305-0.231,1.686
			c-0.325,0.247-0.943,0.445-1.512,0.445c-0.619,0-1.182-0.231-1.267-0.876c-0.042-0.32-0.005-0.592,0.095-0.814
			C185.689,232.975,186.66,232.829,187.625,232.667L187.625,232.667z"/>
		<path fill="#3F2727" d="M177.212,238.545c5.488-3.721,10.769-1.999,10.769-1.999s3.186,1.253,5.533,5.884
			c2.624,5.177,2.624,11.182,2.624,11.182c-0.965,3.825-3.566,3.119-5.39,0.293c-1.826-2.822-6.288-8.614-9.946-8.007
			C171.149,247.49,172.091,242.019,177.212,238.545L177.212,238.545z"/>
		<path fill="#3F2727" d="M199.206,244.39c-1.531-4.589-3.811-7.316-3.811-7.316c4.379,0.551,10.651,7.122,9.301,15.773
			c-0.802,5.125-3.943,0.351-3.943,0.351s0.881-4.767-0.648-9.357L199.206,244.39z"/>
		<path fill="#3F2727" d="M187.981,236.546c3.354-2.65,7.414,0.529,7.414,0.529s3.036,2.227,4.709,6.767
			c2.417,6.56,0.648,9.357,0.648,9.357c-2.65,5.825-4.615,0.413-4.615,0.413s-1.474-4.733-3.337-10.009
			C191.072,238.707,187.981,236.546,187.981,236.546L187.981,236.546z"/>
		<path fill="#DD8B41" d="M131.869,133.47c0,0,5.532-10.476,7.882-17.422c2.354-6.943,7.183-25.658,5.416-35.074
			c-1.764-9.418-13.297-14.595-18.948-4.59c0,0-3.296-10.123-14.479-9.652c-11.181,0.47-16.595,13.065-16.595,13.065
			s-6.829-8.944-16.714-5.648c-9.886,3.293-17.537,24.716-11.063,46.372c6.474,21.66,28.015,33.545,28.015,33.545
			S120.096,152.655,131.869,133.47L131.869,133.47z"/>
		<path opacity="0.4" fill="#C77027" d="M91.429,77.732c-8.916-7.523-24.755,4.589-20.574,29.923
			c4.182,25.337,23.846,35.549,25.655,22.52C98.316,117.145,100.342,85.257,91.429,77.732L91.429,77.732z"/>
		<path opacity="0.4" fill="#C77027" d="M124.443,76.249c-2.471-5.185-11.605-13.55-20.858-4.563
			c-7.837,7.61,0.331,46.512,12.685,45.001C122.375,115.942,128.927,85.66,124.443,76.249L124.443,76.249z"/>
		<path opacity="0.4" fill="#C77027" d="M139.134,73.559c2.957,1.757,7.803,7.593,2.269,28.071
			c-5.534,20.48-8.712,13.912-9.065,10.487C131.984,108.693,122.804,63.85,139.134,73.559L139.134,73.559z"/>
		<path opacity="0.4" fill="#F19F5E" d="M113.212,69.558c-3.791-0.521-10.907,0.671-8.907,20.394
			c2,19.722,9.907,28.239,12.497,22.165C119.39,106.044,129.517,71.794,113.212,69.558L113.212,69.558z"/>
		<path opacity="0.4" fill="#F19F5E" d="M87.846,78.503c-3.947-2.325-12.47,0.872-11.416,18.833
			c1.056,17.957,16.476,43.767,16.949,31.476C93.852,116.519,97.853,84.386,87.846,78.503L87.846,78.503z"/>
		<path opacity="0.4" fill="#F19F5E" d="M137.515,74.149c3.662,1.039,5.504,7.533,2.636,20.773
			c-2.87,13.241-5.053,24.904-6.047,11.711C133.107,93.439,128.808,71.678,137.515,74.149L137.515,74.149z"/>
		<path fill="#DD8B41" d="M173.179,124.353c2.052-0.576,8.004-7.363,9.887-9.365c1.884-1.998,3.415-6.117,6.711-12.356
			s10.121-20.885,27.304-20.744c17.186,0.146,38.136,11.68,36.255,39.692c0,0-2.708,10.711-3.298,17.421
			c-0.588,6.707-1.706,30.424-4.18,44.018c-2.471,13.593-20.83,50.495-74.326,50.847c-53.494,0.352-67.794-36.016-76.446-56.496
			c-8.65-20.48-1.756-59.615,31.955-60.556c13.959-0.391,21.43,1.92,26.818,4.231C160.67,123.966,164.146,126.886,173.179,124.353
			L173.179,124.353z"/>
		<path fill="#CB7029" d="M173.298,140.543c5.472,6.901,9.181,19.262,6.444,33.122c-3.178,16.101-17.301,32.925-32.394,34.426
			c-15.097,1.502-23.836-5.65-24.719-11.035c0,0-18.17-3.751-13.507-25.866c0,0-6.796-5.121-6.974-13.858
			c-0.175-8.74,3.621-19.95,11.479-20.744c3.395-0.343,5.866,1.21,8.223,2.762c3.093,2.041,5.978,4.082,10.489,1.828
			c7.945-3.976,8.653-8.52,19.951-9.513C163.588,130.673,169.467,135.715,173.298,140.543L173.298,140.543z"/>
		<path fill="#F19723" d="M125.982,162.247c0.083,0,0.156-0.058,0.173-0.14c0.02-0.098-0.042-0.19-0.138-0.21
			c-0.157-0.033-3.863-0.878-3.978-6.775c-0.112-5.889,5.156-6.701,5.38-6.731c0.096-0.012,0.164-0.102,0.149-0.199
			c-0.013-0.097-0.102-0.167-0.197-0.153c-0.06,0.01-5.805,0.884-5.684,7.087c0.119,6.191,4.217,7.107,4.26,7.116L125.982,162.247
			L125.982,162.247z"/>
		<path fill="#F19723" d="M118.801,168.878c0.266,0,0.501-0.023,0.696-0.076c0.094-0.024,0.146-0.12,0.126-0.215
			c-0.027-0.095-0.123-0.15-0.218-0.126c-0.639,0.169-2.151,0.032-3.525-0.81c-0.863-0.53-1.97-1.528-2.349-3.292
			c-0.765-3.576,1.869-6.329,1.896-6.356c0.067-0.069,0.066-0.183-0.004-0.251c-0.069-0.067-0.182-0.067-0.25,0.002
			c-0.026,0.029-2.792,2.92-1.984,6.675c0.401,1.888,1.584,2.96,2.506,3.524C116.747,168.597,117.937,168.878,118.801,168.878
			L118.801,168.878z"/>
		<path fill="#F19723" d="M134.841,177.556c2.724,0.002,4.397-1.626,4.42-1.65c0.067-0.067,0.067-0.179,0-0.248
			c-0.071-0.067-0.181-0.067-0.252,0c-0.143,0.144-3.587,3.469-8.781-0.02c-3.75-2.523-2.288-6.697-2.227-6.872
			c0.034-0.091-0.014-0.196-0.108-0.23c-0.089-0.032-0.194,0.019-0.224,0.109c-0.016,0.044-1.62,4.608,2.363,7.285
			C131.849,177.149,133.477,177.556,134.841,177.556L134.841,177.556z"/>
		<path fill="#F19723" d="M133.468,188.491c0.921,0,1.749-0.181,2.128-0.369c0.086-0.044,0.122-0.148,0.078-0.237
			c-0.043-0.086-0.15-0.122-0.236-0.079c-0.576,0.289-2.3,0.558-3.69,0.072c-0.78-0.276-1.331-0.744-1.634-1.4
			c-1.002-2.176,0.673-4.565,0.692-4.589c0.054-0.08,0.037-0.19-0.041-0.246c-0.08-0.057-0.19-0.038-0.248,0.041
			c-0.072,0.105-1.81,2.581-0.721,4.942c0.344,0.744,0.959,1.277,1.837,1.585C132.218,188.415,132.861,188.491,133.468,188.491
			L133.468,188.491z"/>
		<path fill="#F19723" d="M152.626,197.613c4.482,0.002,7.27-3.578,7.305-3.628c0.059-0.077,0.044-0.188-0.032-0.248
			c-0.078-0.059-0.186-0.043-0.248,0.033c-0.192,0.254-4.811,6.166-11.864,2.075c-2.037-1.183-3.261-2.696-3.638-4.496
			c-0.656-3.151,1.518-6.163,1.541-6.194c0.057-0.076,0.039-0.188-0.037-0.245c-0.081-0.059-0.189-0.042-0.249,0.038
			c-0.092,0.128-2.289,3.163-1.601,6.472c0.395,1.903,1.674,3.496,3.808,4.73C149.444,197.214,151.127,197.613,152.626,197.613
			L152.626,197.613z"/>
		<path fill="#E89187" d="M236.794,95.675c0,0-4.49-8.879-13.747-11.056c-9.257-2.178-15.699,0-18.693,1.813
			c-2.996,1.816-3.904,1.363-3.996-2.268c-0.092-3.629,4.874-14.218,9.959-9.045c0,0,2.929-5.382,8.372-5.563
			c5.448-0.181,6.778,5.436,6.871,5.888c0,0,6.69-12.557,16.128-5.299C252.108,78.155,244.865,101.305,236.794,95.675
			L236.794,95.675z"/>
		<path fill="#C74443" d="M239.324,96.724L239.324,96.724c2.565,0,5.066-2.662,6.521-6.948c2.231-6.564,1.557-15.462-4.049-19.771
			c-1.98-1.524-3.998-2.296-5.995-2.296c-5.43,0-9.244,5.721-10.18,7.27c-0.396-1.416-2.021-5.775-6.937-5.601
			c-4.876,0.163-7.798,4.469-8.404,5.457c-1.939-1.847-4.125-1.693-6.18,0.418c-2.274,2.329-3.969,6.707-3.916,8.915
			c0.045,1.807,0.275,3.48,1.629,3.48c0.607,0,1.417-0.329,2.631-1.063c1.342-0.813,5.103-2.702,11.09-2.702
			c2.401,0,4.916,0.306,7.471,0.906c9.072,2.137,13.584,10.876,13.632,10.964l0.055,0.066
			C237.552,96.42,238.437,96.724,239.324,96.724L239.324,96.724z"/>
		<path fill="#E03151" d="M240.816,94.68l-0.003,0.002L240.816,94.68L240.816,94.68z M240.821,94.674L240.821,94.674L240.821,94.674
			L240.821,94.674z M240.833,94.659c0,0-0.004,0.004-0.005,0.005c0.002-0.001,0.004-0.005,0.004-0.005H240.833z M241.773,93.355
			c-0.003,0.004-0.003,0.005-0.003,0.005c-0.294,0.487-0.609,0.924-0.935,1.297C241.161,94.283,241.477,93.846,241.773,93.355
			L241.773,93.355z M221.44,72.034c0.021,0.017,0.039,0.037,0.058,0.058C221.479,72.071,221.461,72.051,221.44,72.034L221.44,72.034
			z"/>
		<path fill="#E03151" d="M240.813,94.683c-0.21,0.24-0.427,0.453-0.649,0.636v0.002C240.386,95.135,240.603,94.922,240.813,94.683
			L240.813,94.683z M240.819,94.675c-0.001,0.005-0.003,0.005-0.003,0.005S240.818,94.679,240.819,94.675L240.819,94.675z
			 M240.828,94.664c0,0-0.004,0.007-0.007,0.01C240.824,94.672,240.826,94.67,240.828,94.664L240.828,94.664z M240.834,94.657
			l-0.001,0.002L240.834,94.657L240.834,94.657z M215.153,83.744L215.153,83.744c-5.46,0-9.361,1.797-11.467,3.074
			c-0.903,0.549-1.61,0.816-2.15,0.816l0,0c0.54,0,1.247-0.267,2.15-0.816C205.79,85.541,209.693,83.744,215.153,83.744
			L215.153,83.744z"/>
		<path fill="#DC2D49" d="M244.355,83.242c-0.007,0.133-0.014,0.269-0.024,0.405c-0.056,0.496-0.119,0.972-0.183,1.429
			c0.043-0.396,0.075-0.794,0.098-1.195C244.289,83.668,244.325,83.454,244.355,83.242L244.355,83.242z"/>
		<path opacity="0.4" fill="#E98A80" d="M234.841,69.424c0.683,0,1.334,0.195,1.903,0.633c8.064,6.121,4.916,16.286-1.554,16.286
			c-1.306,0-2.757-0.417-4.269-1.368C222.996,80.002,229.837,69.424,234.841,69.424L234.841,69.424z"/>
		<path opacity="0.4" fill="#E98A80" d="M217.088,71.282c0.228,0,0.454,0.03,0.678,0.098c4.139,1.252,6.529,9.04-1.326,9.181
			c-0.05,0.001-0.1,0.001-0.151,0.001c-3.604,0-4.372-2.32-3.758-4.641C213.149,73.602,215.153,71.282,217.088,71.282
			L217.088,71.282z"/>
		<path opacity="0.4" fill="#E98A80" d="M205.882,75.947c2.678,0,3.247,5.138-1.269,6.293c-0.36,0.093-0.667,0.136-0.932,0.136
			c-3.191,0,0.11-6.164,1.903-6.406C205.687,75.952,205.786,75.947,205.882,75.947L205.882,75.947z"/>
		<path fill="#F6BD5B" d="M252.151,111.874c-0.018,0.829-0.119,1.6-0.297,2.281c0.006-0.039,0.015-0.08,0.024-0.123
			C252.036,113.379,252.13,112.65,252.151,111.874L252.151,111.874z"/>
		<path fill="#F4A63C" d="M251.877,114.033c-0.008,0.043-0.017,0.084-0.024,0.123c-0.034,0.133-0.072,0.258-0.111,0.381l-0.01,0.022
			C251.786,114.389,251.833,114.214,251.877,114.033L251.877,114.033z"/>
		<path fill="#F8C76A" d="M109.231,171.541c0.054,0.049,0.117,0.108,0.186,0.17c-0.008,0.03-0.016,0.061-0.024,0.089
			c-0.062-0.046-0.125-0.093-0.187-0.142C109.214,171.62,109.223,171.58,109.231,171.541L109.231,171.541z"/>
		<path opacity="0.4" fill="#C77027" d="M127.279,146.55c0.773,0,1.447,0.569,1.565,1.357c0.127,0.865-0.472,1.668-1.336,1.803
			c-0.435,0.068-4.26,0.789-4.176,5.307c0.091,4.595,2.599,5.352,2.854,5.418c0.858,0.177,1.411,1.016,1.234,1.876
			c-0.154,0.751-0.814,1.268-1.557,1.268c-0.104,0-0.21-0.011-0.32-0.033c-0.215-0.044-5.248-1.163-5.386-8.469
			c-0.117-5.956,4.465-8.175,6.901-8.514C127.13,146.556,127.206,146.55,127.279,146.55L127.279,146.55z"/>
		<path opacity="0.4" fill="#C77027" d="M115.183,156.212c0.399,0,0.801,0.151,1.109,0.449c0.629,0.615,0.643,1.62,0.03,2.247
			c-0.021,0.023-2.126,2.278-1.526,5.075c0.215,1.012,0.78,1.81,1.675,2.368c0.855,0.531,1.757,0.686,2.218,0.686
			c0.101,0,0.179-0.006,0.234-0.018c0.139-0.038,0.277-0.055,0.413-0.055c0.701,0,1.342,0.469,1.531,1.179
			c0.225,0.849-0.277,1.72-1.126,1.944c-0.32,0.087-0.677,0.128-1.06,0.128c-1.212,0-2.661-0.414-3.843-1.135
			c-1.655-1.017-2.748-2.551-3.149-4.43c-0.963-4.489,2.22-7.818,2.357-7.958C114.357,156.372,114.769,156.212,115.183,156.212
			L115.183,156.212z"/>
		<path opacity="0.4" fill="#C77027" d="M127.714,167.04c0.176,0,0.357,0.03,0.534,0.095c0.822,0.291,1.255,1.197,0.968,2.023
			c-0.119,0.34-1.074,3.373,1.684,5.228c1.506,1.013,2.813,1.343,3.875,1.343c1.837,0,2.945-0.984,3.116-1.147
			c0.311-0.311,0.72-0.467,1.126-0.467c0.408,0,0.814,0.156,1.121,0.467c0.622,0.618,0.622,1.625,0,2.245
			c-0.941,0.944-2.879,2.066-5.385,2.066c-1.665,0-3.584-0.495-5.625-1.87c-3.913-2.628-3.611-6.998-2.904-8.94
			C126.457,167.439,127.065,167.04,127.714,167.04L127.714,167.04z"/>
		<path opacity="0.4" fill="#C77027" d="M130.545,180.117c0.316,0,0.641,0.096,0.922,0.297c0.715,0.51,0.879,1.503,0.37,2.217
			c-0.014,0.015-1.201,1.783-0.557,3.178c0.299,0.65,1.256,0.839,2.094,0.839c0.578,0,1.104-0.091,1.311-0.183
			c0.228-0.112,0.471-0.168,0.713-0.168c0.581,0,1.143,0.322,1.42,0.878c0.392,0.785,0.073,1.741-0.711,2.132
			c-0.555,0.279-1.598,0.524-2.76,0.524c-0.751,0-1.557-0.103-2.304-0.368c-1.229-0.43-2.15-1.232-2.652-2.322
			c-1.427-3.1,0.763-6.226,0.859-6.356C129.56,180.35,130.048,180.117,130.545,180.117L130.545,180.117z"/>
		<path opacity="0.4" fill="#C77027" d="M145.428,183.388c0.325,0,0.654,0.1,0.937,0.305c0.707,0.517,0.861,1.508,0.35,2.219
			c-0.02,0.023-1.833,2.568-1.298,5.084c0.295,1.388,1.29,2.581,2.959,3.549c1.557,0.903,2.967,1.24,4.205,1.24
			c3.41,0,5.53-2.56,5.827-2.947c0.313-0.411,0.787-0.627,1.267-0.627c0.335,0,0.672,0.107,0.962,0.327
			c0.698,0.531,0.833,1.526,0.303,2.224c-1.359,1.789-4.416,4.191-8.402,4.191h-0.004c-1.757,0-3.696-0.465-5.75-1.658
			c-2.491-1.446-3.998-3.352-4.48-5.666c-0.819-3.919,1.738-7.449,1.847-7.594C144.462,183.61,144.94,183.388,145.428,183.388
			L145.428,183.388z"/>
		<path fill="#DD8B41" d="M159.929,177.394c1.3,0,2.769-0.714,4.365-2.639c6.178-7.447,5.887-17.976,4.504-22.808
			c-1.702-5.925-7.065-14.208-16.314-14.209c-2.443,0-5.152,0.577-8.137,1.925c-13.894,6.273-13.626,20.441-9.232,20.441
			c0.13,0,0.262-0.011,0.4-0.037c0,0-3.668,9.063,5.829,9.063c0.494,0,1.021-0.025,1.588-0.077c0,0,0.925,5.446,4.919,5.446
			c1.523,0,3.493-0.791,6.026-2.979C153.877,171.521,156.208,177.394,159.929,177.394L159.929,177.394z M155.565,134.697
			c3.109,0,5.777,0.723,7.603,2.029c14.292,10.215,15.232,40.243,0.352,51.613c-2.643,2.019-6.181,3.488-9.238,3.488
			c-1.605,0-3.081-0.407-4.219-1.352c-3.306-2.75-2.243-8.416-2.243-8.416c-8.382-0.631-5.583-9.982-5.583-9.982
			c-2.184,0.76-3.99,1.083-5.476,1.083c-8.405,0-6.651-10.354-6.651-10.354c-3.54-4.083-4.956-8.055,4.84-18.379
			C141.47,137.559,149.389,134.697,155.565,134.697L155.565,134.697z"/>
		<path opacity="0.4" fill="#F19F5E" d="M152.484,137.738c9.249,0.001,14.612,8.284,16.314,14.209
			c1.383,4.831,1.674,15.36-4.504,22.808c-1.596,1.925-3.065,2.639-4.365,2.639c-3.721,0-6.052-5.873-6.052-5.873
			c-2.533,2.187-4.503,2.979-6.026,2.979c-3.995,0-4.919-5.446-4.919-5.446c-0.567,0.052-1.093,0.077-1.588,0.077
			c-9.496,0-5.829-9.063-5.829-9.063c-0.138,0.026-0.27,0.037-0.4,0.037c-4.394,0-4.662-14.168,9.232-20.441
			C147.332,138.316,150.041,137.738,152.484,137.738L152.484,137.738z"/>
		<path opacity="0.4" fill="#C77027" d="M140.801,184.436c0.615,0,0.764,1.301-0.212,3.309c-1.455,2.984-0.189,8.811,3.259,10.694
			c1.599,0.876,1.624,1.24,0.958,1.24c-1.008,0-3.605-0.845-4.659-2.034c-1.747-1.972-3.007-6.15-1.453-10.271
			C139.473,185.308,140.293,184.436,140.801,184.436L140.801,184.436z"/>
		<path opacity="0.4" fill="#C77027" d="M122.621,171.689c0.688,0,1.096,0.423,0.771,1.358c-0.659,1.911-0.659,4.346-0.468,6.679
			c0.189,2.352,0.998,7.061,3.676,9.181c0.994,0.787,0.951,1.149,0.352,1.149c-1.017,0-3.635-1.044-5.536-2.858
			c-3.024-2.884-4.502-8.766-2.206-13.092C120.014,172.589,121.614,171.689,122.621,171.689L122.621,171.689z"/>
		<path opacity="0.4" fill="#C77027" d="M116.116,145.311c2.174,0,3.218,1.213,1.215,2.047c-1.53,0.638-8.181,3.766-8.21,11.416
			c-0.016,4.552-0.294,5.99-0.64,5.99c-0.236,0-0.503-0.668-0.743-1.475c-0.588-1.984-2.591-10.251,2.298-15.151
			C112.147,146.017,114.462,145.311,116.116,145.311L116.116,145.311z"/>
		<path opacity="0.4" fill="#C77027" d="M156.975,220.325c13.805,0,30.438-5.111,33.343-26.83
			c2.275-17.002,2.249-25.397,0.69-25.397c-1.312,0-3.712,5.964-6.727,17.765c-1.789,6.99-13.881,27.726-34.692,27.726
			c-0.428,0-0.859-0.009-1.291-0.025c-3.521-0.145-6.374-0.215-8.641-0.215c-11.655,0-7.798,1.818,0.95,4.628
			C144.057,219.085,150.174,220.325,156.975,220.325L156.975,220.325z M132.697,119.161c7.302,0,15.854,2.7,21.524,5.402
			c5.672,2.7,8.462,5.4,4.241,5.4c-0.687,0-1.563-0.071-2.643-0.228c-1.144-0.163-2.269-0.237-3.373-0.237
			c-5.389,0-10.235,1.795-14.583,3.595c-4.351,1.798-8.201,3.598-11.607,3.598c-1.273,0-2.478-0.251-3.627-0.842
			c-2.816-1.456-5.989-2.493-9.062-2.493c-5.591,0-10.861,3.446-13.062,14.123c-3.411,16.543,5.866,21.284,5.484,28.48
			c-0.382,7.194,1.986,18.009,9.224,21.098c7.24,3.087,7.064,13.329,27.502,14.211c0.673,0.03,1.328,0.044,1.978,0.044
			c19.08,0,28.134-12.347,34.464-22.993c4.115-6.93,4.076-21.729,4.603-21.729c0.053,0,0.111,0.142,0.18,0.45
			c0.36,1.668,1.189,2.525,2.049,2.525c0.918,0,1.872-0.979,2.345-3.005c0.714-3.061,4.804-7.761,6-7.761
			c0.34,0,0.447,0.375,0.179,1.269c-1.204,4.06-0.56,10.418,0.964,18.284c1.115,5.749,2.238,11.909,4.083,11.909
			c0.677,0,1.452-0.833,2.358-2.828c1.024-2.249,2.142-3.216,3.433-3.216c2.967,0,6.858,5.093,12.684,11.426
			c7.761,8.429-10.166,31.968-47.021,31.968c-2.889,0-5.897-0.144-9.013-0.453c-42.903-4.238-68.327-41.311-67.439-70.945
			c0.89-29.633,21.77-36.755,37.602-37.048C132.339,119.161,132.518,119.161,132.697,119.161L132.697,119.161z"/>
		<path opacity="0.4" fill="#C77027" d="M191.008,168.099c1.559,0,1.585,8.395-0.69,25.397c-2.905,21.719-19.538,26.83-33.343,26.83
			c-6.801,0-12.918-1.24-16.368-2.348c-8.748-2.81-12.605-4.628-0.95-4.628c2.267,0,5.119,0.07,8.641,0.215
			c0.433,0.016,0.863,0.025,1.291,0.025c20.811,0,32.903-20.735,34.692-27.726C187.296,174.063,189.696,168.099,191.008,168.099
			L191.008,168.099z"/>
		<path opacity="0.3" fill="#916263" d="M197.002,238.38c0.811,0,2.651,1.111,3.947,2.973c0.944,1.358,3.198,4.707,2.653,10.326
			c-0.091,0.931-0.171,1.333-0.274,1.333c-0.457,0-1.337-7.894-5.34-12.146C196.366,239.138,196.334,238.38,197.002,238.38
			L197.002,238.38z"/>
		<path opacity="0.3" fill="#916263" d="M192.52,237.075c0.811,0,2.653,1.113,3.949,2.973c0.942,1.36,3.197,4.708,2.652,10.327
			c-0.09,0.931-0.172,1.333-0.275,1.333c-0.457,0-1.337-7.895-5.337-12.146C191.886,237.834,191.853,237.075,192.52,237.075
			L192.52,237.075z"/>
		<path opacity="0.3" fill="#916263" d="M183.601,237.889c1.095,0,2.357,0.251,3.713,0.889c2.318,1.094,4.192,3.446,5.518,7.527
			c0.858,2.652,1.106,4.588,0.552,4.588c-0.297,0-0.824-0.562-1.614-1.876c-2.228-3.711-4.11-7.859-9.45-7.859
			c-0.058,0-0.117,0-0.171,0.005c-0.045,0-0.088,0.001-0.132,0.001c-2.065,0-2.658-0.819-2.24-1.637
			C180.193,238.708,181.623,237.889,183.601,237.889L183.601,237.889z"/>
	</g>
	<g>
		<path fill="#FFFFFF" d="M213.097,103.635c-2.234,5.441-1.195,11.023,2.32,12.473c3.521,1.448,8.189-1.789,10.424-7.232
			c2.241-5.439,1.202-11.025-2.32-12.47C220.004,94.957,215.336,98.193,213.097,103.635L213.097,103.635z"/>
		<path fill="#222323" d="M216.508,106.513c-1.489,3.626-0.797,7.347,1.547,8.312c2.347,0.964,5.459-1.193,6.951-4.818
			c1.492-3.628,0.801-7.352-1.547-8.316C221.113,100.726,218.003,102.885,216.508,106.513z"/>
		<path fill="#FFFFFF" d="M213.932,105.25c0,2.179,1.767,3.944,3.945,3.944c2.178,0,3.943-1.765,3.943-3.944
			c0-2.178-1.765-3.943-3.943-3.943C215.699,101.306,213.932,103.072,213.932,105.25z"/>
	</g>
	<g>
		<path fill="#FFFFFF" d="M249.988,106.877c1.974,4.809,1.059,9.743-2.05,11.024c-3.112,1.28-7.239-1.581-9.214-6.392
			c-1.98-4.808-1.063-9.744,2.05-11.023C243.883,99.207,248.008,102.066,249.988,106.877L249.988,106.877z"/>
		<path fill="#222323" d="M247.228,107.719c1.315,3.206,0.705,6.495-1.369,7.347c-2.074,0.853-4.824-1.054-6.141-4.258
			c-1.319-3.206-0.709-6.497,1.366-7.35C243.159,102.604,245.908,104.514,247.228,107.719z"/>
		<path fill="#FFFFFF" d="M249.504,106.604c0,1.925-1.559,3.486-3.485,3.486c-1.924,0-3.487-1.561-3.487-3.486
			s1.562-3.486,3.487-3.486C247.944,103.118,249.504,104.678,249.504,106.604z"/>
	</g>
	<g>
		<path fill="#F6CB10" d="M236.84,139.49c-7.445-1.569-12.252-4.489-15.157-7.686c0.039-0.426,0.09-0.668,0.09-0.668
			c0.589-17.657,13.066-22.91,16.244-22.835c15.421,0.352,22.012,25.597,22.01,28.955c-0.003,1.769-3.18,2.235-3.18,2.235
			S249.552,142.168,236.84,139.49L236.84,139.49z"/>
		<path fill="#CB7029" d="M236.84,139.49c12.712,2.678,20.008,0,20.008,0s-4.915,7.766-20.48,5.65
			c-14.624-1.989-14.909-10.825-14.684-13.337C224.587,135.001,229.395,137.921,236.84,139.49L236.84,139.49z"/>
		<path fill="#F8D249" d="M237.951,108.475h0.061c2.216,0.052,4.249,0.63,6.111,1.593c0.033,0.021,0.066,0.038,0.1,0.06
			c-0.815-0.32-1.562-0.474-2.251-0.474c-3.155,0-4.97,3.203-5.426,7.968c-0.658,6.894,3.625,11.326,11.273,11.326
			c1.186,0,2.449-0.108,3.79-0.327c4.446-0.73,3.838-4.759,2.191-8.374c0.857,1.487,1.623,3.013,2.295,4.514
			c1.737,4.572,1.84,9.179-3.718,10.091c-1.868,0.306-3.632,0.455-5.286,0.455c-10.669,0-16.645-6.181-15.724-15.799
			c0.584-6.129,2.788-10.408,6.579-11.034c0.003,0,0.003,0,0.003,0H237.951z"/>
		<path fill="#F8D76C" d="M241.973,109.654c0.688,0,1.436,0.154,2.251,0.474c1.68,1.003,3.525,2.467,5.529,4.451
			c1.53,1.705,2.875,3.649,4.048,5.668c1.647,3.615,2.255,7.644-2.191,8.374c-1.341,0.219-2.605,0.327-3.79,0.327
			c-7.648,0-11.931-4.432-11.273-11.326C237.003,112.857,238.817,109.654,241.973,109.654L241.973,109.654z"/>
		<path fill="#EFAE1D" d="M253.916,123.427c0.312,1.339,0.053,2.548-0.582,2.695c-0.638,0.149-1.405-0.817-1.72-2.159
			c-0.31-1.341-0.051-2.549,0.583-2.695C252.837,121.12,253.603,122.086,253.916,123.427z"/>
		<path fill="#EFAE1D" d="M248.04,124.203c0.314,1.34,0.052,2.546-0.582,2.694c-0.636,0.151-1.404-0.817-1.717-2.159
			c-0.313-1.339-0.052-2.547,0.583-2.696C246.962,121.896,247.728,122.863,248.04,124.203z"/>
	</g>
	<g>
		<path fill="#222323" d="M211.944,110.09c0.214,1.092,0.535,2.158,1.005,3.138c0.477,0.968,1.122,1.872,2.023,2.401
			c0.89,0.531,1.989,0.679,3.051,0.473c0.536-0.062,1.049-0.277,1.581-0.41c0.508-0.21,1.012-0.436,1.537-0.637
			c-0.468,0.299-0.957,0.573-1.442,0.863c-0.529,0.186-1.042,0.447-1.602,0.562c-1.101,0.31-2.366,0.178-3.382-0.422
			c-1.018-0.614-1.703-1.625-2.117-2.675C212.183,112.325,211.954,111.208,211.944,110.09z"/>
	</g>
	<g>
		<path fill="#222323" d="M226.28,99.295c-0.501-0.797-1.113-1.516-1.846-2.054c-0.736-0.529-1.59-0.862-2.481-0.906
			c-0.896-0.042-1.777,0.215-2.638,0.53c-0.417,0.191-0.833,0.399-1.246,0.615c-0.4,0.239-0.793,0.493-1.209,0.725
			c0.346-0.32,0.715-0.618,1.076-0.931c0.394-0.264,0.802-0.517,1.218-0.758c0.866-0.416,1.822-0.715,2.824-0.68
			c0.995,0.058,1.963,0.459,2.695,1.106C225.408,97.583,225.962,98.403,226.28,99.295z"/>
	</g>
	<g>
		<path fill="#222323" d="M247.034,102.414c-0.77-0.535-1.576-1.005-2.418-1.361c-0.842-0.344-1.731-0.59-2.609-0.535
			c-0.881,0.025-1.713,0.423-2.348,1.055c-0.369,0.267-0.586,0.685-0.885,1.033c-0.259,0.38-0.462,0.799-0.721,1.196
			c0.154-0.44,0.316-0.887,0.51-1.321c0.268-0.391,0.457-0.848,0.822-1.179c0.302-0.392,0.729-0.648,1.15-0.916l0.705-0.252
			c0.239-0.068,0.491-0.076,0.737-0.114c0.996-0.048,1.958,0.243,2.801,0.687C245.624,101.152,246.396,101.72,247.034,102.414z"/>
	</g>
</g>
</svg>
