<svg xmlns="http://www.w3.org/2000/svg" viewBox="0 0 64 64"><defs><style>.cls-1{isolation:isolate;}.cls-2{fill:#c65500;}.cls-3{fill:#fc3b00;}.cls-4{fill:#ffa300;}.cls-5{fill:none;stroke:#000;stroke-linecap:round;stroke-linejoin:round;stroke-width:2px;}.cls-6{opacity:0.25;mix-blend-mode:multiply;}.cls-7,.cls-8{mix-blend-mode:overlay;}.cls-8{fill:#fff;}</style></defs><title>Icon Color</title><g class="cls-1"><g id="Layer_1" data-name="Layer 1"><g id="Vector"><path class="cls-2" d="M54.53,17.43,45.59,27A19.18,19.18,0,0,0,44,29c-.89-.71-1.81-1.38-2.76-2a61.22,61.22,0,0,0-7.77-4.56s0,0,0,0c-.48-.24-1-.49-1.42-.75a18.62,18.62,0,0,0,4.24-3.37l8.94-9.57a2.82,2.82,0,0,0,.9,1.92l6.48,6.05A2.81,2.81,0,0,0,54.53,17.43Z"/><path class="cls-2" d="M27.58,54.15a76.53,76.53,0,0,1-6.73,6,3.09,3.09,0,0,1-4.35.15L5,49.56a3.07,3.07,0,0,1-.15-4.35,77.93,77.93,0,0,1,5.52-7.13Z"/><path class="cls-3" d="M59.2,13.75l-2.59,2.78a2.88,2.88,0,0,1-4,.13l-6.48-6.05a2.82,2.82,0,0,1-.9-1.92,2.9,2.9,0,0,1,.76-2.12l2.61-2.79a2.86,2.86,0,0,1,4-.13l6.47,6A2.87,2.87,0,0,1,59.2,13.75Z"/><path class="cls-4" d="M32,49.29c-1.43,1.73-2.91,3.35-4.42,4.86L10.38,38.09A67.22,67.22,0,0,1,20,29a20.34,20.34,0,0,1,2.11,3.93s0,0,0,0a61.41,61.41,0,0,0,4,8.08A64.42,64.42,0,0,0,32,49.29Z"/><path class="cls-2" d="M41.22,27,32,35.57,26.16,41a61.41,61.41,0,0,1-4-8.08s0,0,0,0A20.34,20.34,0,0,0,20,29a18,18,0,0,0-1.61-2L9.47,17.43a2.85,2.85,0,0,0,2-.77l6.47-6.05a2.82,2.82,0,0,0,.9-1.92l8.94,9.57A18.68,18.68,0,0,0,32,21.63c.46.26.94.51,1.42.75,0,0,0,0,0,0A61.22,61.22,0,0,1,41.22,27Z"/><path class="cls-2" d="M59,49.56,47.5,60.3a3.08,3.08,0,0,1-4.35-.15,76.53,76.53,0,0,1-6.73-6l17.2-16.06a76.49,76.49,0,0,1,5.52,7.12A3.07,3.07,0,0,1,59,49.56Z"/><path class="cls-3" d="M18.82,8.69a2.82,2.82,0,0,1-.9,1.92l-6.47,6.05a2.85,2.85,0,0,1-2,.77,2.76,2.76,0,0,1-2.07-.9L4.8,13.75A2.86,2.86,0,0,1,4.94,9.7l6.47-6a2.87,2.87,0,0,1,4.05.13l2.6,2.79A2.86,2.86,0,0,1,18.82,8.69Z"/><path class="cls-4" d="M53.62,38.09,36.42,54.15c-1.51-1.51-3-3.13-4.42-4.86A64.42,64.42,0,0,1,26.16,41L32,35.57,41.22,27c1,.65,1.87,1.32,2.76,2A66.7,66.7,0,0,1,53.62,38.09Z"/></g><g id="Line"><path class="cls-5" d="M54.53,17.43,45.59,27A19.18,19.18,0,0,0,44,29c-.89-.71-1.81-1.38-2.76-2a61.22,61.22,0,0,0-7.77-4.56s0,0,0,0c-.48-.24-1-.49-1.42-.75a18.62,18.62,0,0,0,4.24-3.37l8.94-9.57a2.82,2.82,0,0,0,.9,1.92l6.48,6.05A2.81,2.81,0,0,0,54.53,17.43Z"/><path class="cls-5" d="M27.58,54.15a76.53,76.53,0,0,1-6.73,6,3.09,3.09,0,0,1-4.35.15L5,49.56a3.07,3.07,0,0,1-.15-4.35,77.93,77.93,0,0,1,5.52-7.13Z"/><path class="cls-5" d="M59.2,13.75l-2.59,2.78a2.88,2.88,0,0,1-4,.13l-6.48-6.05a2.82,2.82,0,0,1-.9-1.92,2.9,2.9,0,0,1,.76-2.12l2.61-2.79a2.86,2.86,0,0,1,4-.13l6.47,6A2.87,2.87,0,0,1,59.2,13.75Z"/><path class="cls-5" d="M32,49.29c-1.43,1.73-2.91,3.35-4.42,4.86L10.38,38.09A67.22,67.22,0,0,1,20,29a20.34,20.34,0,0,1,2.11,3.93s0,0,0,0a61.41,61.41,0,0,0,4,8.08A64.42,64.42,0,0,0,32,49.29Z"/><path class="cls-5" d="M41.22,27,32,35.57,26.16,41a61.41,61.41,0,0,1-4-8.08s0,0,0,0A20.34,20.34,0,0,0,20,29a18,18,0,0,0-1.61-2L9.47,17.43a2.85,2.85,0,0,0,2-.77l6.47-6.05a2.82,2.82,0,0,0,.9-1.92l8.94,9.57A18.68,18.68,0,0,0,32,21.63c.46.26.94.51,1.42.75,0,0,0,0,0,0A61.22,61.22,0,0,1,41.22,27Z"/><path class="cls-5" d="M59,49.56,47.5,60.3a3.08,3.08,0,0,1-4.35-.15,76.53,76.53,0,0,1-6.73-6l17.2-16.06a76.49,76.49,0,0,1,5.52,7.12A3.07,3.07,0,0,1,59,49.56Z"/><path class="cls-5" d="M18.82,8.69a2.82,2.82,0,0,1-.9,1.92l-6.47,6.05a2.85,2.85,0,0,1-2,.77,2.76,2.76,0,0,1-2.07-.9L4.8,13.75A2.86,2.86,0,0,1,4.94,9.7l6.47-6a2.87,2.87,0,0,1,4.05.13l2.6,2.79A2.86,2.86,0,0,1,18.82,8.69Z"/><path class="cls-5" d="M53.62,38.09,36.42,54.15c-1.51-1.51-3-3.13-4.42-4.86A64.42,64.42,0,0,1,26.16,41L32,35.57,41.22,27c1,.65,1.87,1.32,2.76,2A66.7,66.7,0,0,1,53.62,38.09Z"/></g><g id="Shadow" class="cls-6"><path d="M39,29c1.21-.75,1.55-1.45,1.61-2,.34-3.34-9.73-6.68-11.09-7.12a17.75,17.75,0,0,1-1.74-1.62L18.82,8.69a2.86,2.86,0,0,0-.76-2.12l-2.6-2.79a2.87,2.87,0,0,0-4.05-.13l-.57.53,2.22,2.39a2.86,2.86,0,0,1,.76,2.12l8.94,9.57c.64.61,1.3,1.23,2,1.84A53.62,53.62,0,0,0,39,29Z"/><path d="M29.29,47.24q-2.23,2.23-4.47,4.56l-2.24,2.35h0a75.69,75.69,0,0,1-6.47,5.78l.39.37a3.09,3.09,0,0,0,4.35-.15,76.53,76.53,0,0,0,6.73-6h0c.65-.65,1.29-1.33,1.92-2a2.61,2.61,0,0,0-.21-4.9Z"/><path d="M54.53,17.43h0a2.83,2.83,0,0,0,2.08-.9l2.59-2.78a2.87,2.87,0,0,0-.14-4.06l-6.47-6a2.86,2.86,0,0,0-4,.13l-.38.41,5.89,5.5a2.87,2.87,0,0,1,.14,4.06l-2.59,2.78h0l-.9-.47L40.59,27A19.18,19.18,0,0,0,39,29a66.7,66.7,0,0,1,9.64,9.1,76.49,76.49,0,0,1,5.52,7.12A3.07,3.07,0,0,1,54,49.56L42.89,59.93l.26.22a3.08,3.08,0,0,0,4.35.15L59,49.56a3.07,3.07,0,0,0,.15-4.35,76.49,76.49,0,0,0-5.52-7.12A66.7,66.7,0,0,0,44,29a19.18,19.18,0,0,1,1.61-2Z"/></g><g id="Highligth" class="cls-7"><path class="cls-8" d="M48.55,3.78,45.94,6.57a2.9,2.9,0,0,0-.76,2.12l-8.94,9.57a17.75,17.75,0,0,1-1.74,1.62,1.74,1.74,0,0,0,.64,3.38,44.55,44.55,0,0,0,4.1-3.16c.71-.62,1.38-1.24,2-1.84l8.94-9.57a2.9,2.9,0,0,1,.76-2.12l2.23-2.38-.58-.54A2.86,2.86,0,0,0,48.55,3.78Z"/><path class="cls-8" d="M43.15,60.15a3.08,3.08,0,0,0,4.35.15l.39-.37c-1.09-.86-2.17-1.78-3.25-2.74,0,0-1.66-1.48-3.22-3C39.23,52,32.52,42.66,25,29c-.78.37-2.92,1.5-3.23,3.47a4.38,4.38,0,0,0,.85,3c5.38,8.61,5.85,9.2,5.85,9.2,2.62,3.3,4.72,5.89,6,7.48.63.68,1.27,1.36,1.92,2A76.53,76.53,0,0,0,43.15,60.15Z"/><path class="cls-8" d="M20.85,60.15l.26-.22L10,49.56a3.07,3.07,0,0,1-.15-4.35,76.49,76.49,0,0,1,5.52-7.12h0A67.22,67.22,0,0,1,25,29a18,18,0,0,0-1.61-2l-8.94-9.57a2.76,2.76,0,0,1-2.07-.9L9.8,13.75A2.86,2.86,0,0,1,9.94,9.7l5.9-5.52-.38-.4a2.87,2.87,0,0,0-4.05-.13l-6.47,6a2.86,2.86,0,0,0-.14,4.05l2.6,2.78a2.76,2.76,0,0,0,2.07.9L18.41,27A18,18,0,0,1,20,29a67.22,67.22,0,0,0-9.64,9.1h0a76.49,76.49,0,0,0-5.52,7.12A3.07,3.07,0,0,0,5,49.56L16.5,60.3A3.09,3.09,0,0,0,20.85,60.15Z"/></g></g></g></svg>