<svg xmlns="http://www.w3.org/2000/svg" viewBox="0 0 64 64"><defs><style>.cls-1{isolation:isolate;}.cls-2{fill:#58b59a;}.cls-3{fill:#295b52;}.cls-4{fill:none;stroke:#000;stroke-miterlimit:10;stroke-width:2px;}.cls-5{mix-blend-mode:multiply;}.cls-6{opacity:0.25;}</style></defs><title>Icon Color</title><g class="cls-1"><g id="Layer_1" data-name="Layer 1"><g id="Vector"><path class="cls-2" d="M31.88,28.86c-1.17,1.29-3.07-.44-4.24.85-.94,1,.1,2.34-.05,3.48a1.49,1.49,0,0,1-.39.81c-1.16,1.29-3.06-.44-4.24.85s.73,3-.43,4.29-3.08-.44-4.25.85l-5-4.5a7.88,7.88,0,0,1-.52-11.1l1.12-1.23a7.86,7.86,0,0,1,7.62-2.35A7.7,7.7,0,0,1,25,22.63Z"/><path class="cls-2" d="M43.66,46.47a7.5,7.5,0,0,1-1.48,2.39l-1.13,1.23A7.85,7.85,0,0,1,30,50.61L24.11,45.3c1.17-1.29,3.07.44,4.24-.85s-.73-3,.44-4.3,3.07.44,4.24-.85a1.46,1.46,0,0,0,.39-.81,3.6,3.6,0,0,0-.16-1.28c-.18-.77-.39-1.54.21-2.2,1.17-1.29,3.07.44,4.24-.84l.18.17.68.63.06.05,3,2.75A7.86,7.86,0,0,1,43.66,46.47Z"/><path class="cls-3" d="M37.71,34.17c-1.17,1.28-3.07-.45-4.24.84-.6.66-.39,1.43-.21,2.2a3.6,3.6,0,0,1,.16,1.28,1.46,1.46,0,0,1-.39.81c-1.17,1.29-3.07-.44-4.24.85s.73,3-.44,4.3-3.07-.44-4.24.85L18.28,40c1.17-1.29,3.07.44,4.25-.85s-.74-3,.43-4.29S26,35.29,27.2,34a1.49,1.49,0,0,0,.39-.81c.15-1.14-.89-2.46.05-3.48,1.17-1.29,3.07.44,4.24-.85l.25.23.67.62.91.82Z"/><path class="cls-3" d="M15.1,18.6a7.69,7.69,0,0,1-2,4.31c-2.83,3-7.78,3-11-.14,0,0-2.27-2.38,2.62-2.5,0,0-1.34-5.46,5-4.7,0,0-1.25-6.52,2.62-3.76a6.6,6.6,0,0,1,2.12,2.51A7.49,7.49,0,0,1,15.1,18.6Z"/><path class="cls-3" d="M51.79,52.15a12.09,12.09,0,0,1-1.91,0c1.36,6.25-4.19,5.42-4.19,5.42.33,4.89-2.25,2.86-2.25,2.86-3.4-3-3.93-7.89-1.18-11a7.85,7.85,0,0,1,8.52-2.07,6.62,6.62,0,0,1,2.6,1.83C55.35,51.44,53.46,52,51.79,52.15Z"/><path class="cls-3" d="M48.4,28.63c-1.3.31-2.95-.64-4,.41-1.34,1.29.84,3-.5,4.3s-3.53-.45-4.87.84a1.33,1.33,0,0,0-.43.79l-.68-.63-.18-.17-4-3.64-.91-.82-.67-.62a1.2,1.2,0,0,1,.19-.21c1.35-1.29,3.52.44,4.86-.85s-.84-3,.5-4.29S41,24,42.3,23.08l5.63,5.13Z"/><path class="cls-2" d="M42.3,23.08c-1.35.91-3.36-.56-4.62.66s.84,3-.5,4.29-3.51-.44-4.86.85a1.2,1.2,0,0,0-.19.21l-.25-.23L25,22.63a7.7,7.7,0,0,0-3.48-1.82A7.71,7.71,0,0,1,23,18.42l1.12-1.22a7.88,7.88,0,0,1,11.1-.53L42.1,22.9Z"/><path class="cls-2" d="M52.41,42.89l-1.13,1.24a7.84,7.84,0,0,1-7.62,2.34,7.86,7.86,0,0,0-2-8.7l-3-2.75L38.57,35a1.33,1.33,0,0,1,.43-.79c1.34-1.29,3.52.44,4.87-.84s-.84-3,.5-4.3c1.08-1.05,2.73-.1,4-.41l3.49,3.17A7.89,7.89,0,0,1,52.41,42.89Z"/><path class="cls-3" d="M23.36,16.94A7.45,7.45,0,0,1,15.1,18.6a7.49,7.49,0,0,0-.66-4.28l.49,0s-1.35-5.45,5-4.7c0,0-1.25-6.52,2.62-3.75C26.23,8.48,26.19,13.92,23.36,16.94Z"/><path class="cls-3" d="M60.11,46.18c1.35,6.24-4.19,5.42-4.19,5.42.33,4.88-2.25,2.85-2.25,2.85a8.68,8.68,0,0,1-1.88-2.3c1.67-.12,3.56-.71,1.59-3a6.62,6.62,0,0,0-2.6-1.83,6.93,6.93,0,0,1,1.71-3.89c2.74-3.1,8.16-3.66,11.12-.24C66.73,46.81,60.11,46.18,60.11,46.18Z"/></g><g id="Line"><line class="cls-4" x1="15.09" y1="37" x2="14" y2="36"/><path class="cls-4" d="M13,35.1l-.67-.61a7.88,7.88,0,0,1-.52-11.1l1.12-1.23a7.86,7.86,0,0,1,7.62-2.35A7.7,7.7,0,0,1,24,21.63l6.85,6.23c-1.17,1.29-3.07-.44-4.24.85-.94,1,.1,2.34-.05,3.48a1.49,1.49,0,0,1-.39.81c-1.16,1.29-3.06-.44-4.24.85s.73,3-.43,4.29-3.08-.44-4.25.85L16,37.82"/><path class="cls-4" d="M42.66,45.47a7.5,7.5,0,0,1-1.48,2.39l-1.13,1.23A7.85,7.85,0,0,1,29,49.61L23.11,44.3c1.17-1.29,3.07.44,4.24-.85s-.73-3,.44-4.3,3.07.44,4.24-.85a1.46,1.46,0,0,0,.39-.81,3.6,3.6,0,0,0-.16-1.28c-.18-.77-.39-1.54.21-2.2,1.17-1.29,3.07.44,4.24-.84l.18.17.68.63.06.05,3,2.75A7.86,7.86,0,0,1,42.66,45.47Z"/><path class="cls-4" d="M36.71,33.17c-1.17,1.28-3.07-.45-4.24.84-.6.66-.39,1.43-.21,2.2a3.6,3.6,0,0,1,.16,1.28,1.46,1.46,0,0,1-.39.81c-1.17,1.29-3.07-.44-4.24.85s.73,3-.44,4.3-3.07-.44-4.24.85L17.28,39c1.17-1.29,3.07.44,4.25-.85s-.74-3,.43-4.29S25,34.29,26.2,33a1.49,1.49,0,0,0,.39-.81c.15-1.14-.89-2.46.05-3.48,1.17-1.29,3.07.44,4.24-.85l.25.23.67.62.91.82Z"/><path class="cls-4" d="M14.1,17.6a7.69,7.69,0,0,1-2,4.31c-2.83,3-7.78,3-11-.14,0,0-2.27-2.38,2.62-2.5,0,0-1.34-5.46,5-4.7,0,0-1.25-6.52,2.62-3.76a6.6,6.6,0,0,1,2.12,2.51A7.49,7.49,0,0,1,14.1,17.6Z"/><path class="cls-4" d="M50.79,51.15a12.09,12.09,0,0,1-1.91,0c1.36,6.25-4.19,5.42-4.19,5.42.33,4.89-2.25,2.86-2.25,2.86-3.4-3-3.93-7.89-1.18-11a7.85,7.85,0,0,1,8.52-2.07,6.62,6.62,0,0,1,2.6,1.83C54.35,50.44,52.46,51,50.79,51.15Z"/><path class="cls-4" d="M47.4,27.63c-1.3.31-2.95-.64-4,.41-1.34,1.29.84,3-.5,4.3s-3.53-.45-4.87.84a1.33,1.33,0,0,0-.43.79l-.68-.63-.18-.17-4-3.64-.91-.82-.67-.62a1.2,1.2,0,0,1,.19-.21c1.35-1.29,3.52.44,4.86-.85s-.84-3,.5-4.29S40,23,41.3,22.08l5.63,5.13Z"/><path class="cls-4" d="M41.3,22.08c-1.35.91-3.36-.56-4.62.66s.84,3-.5,4.29-3.51-.44-4.86.85a1.2,1.2,0,0,0-.19.21l-.25-.23L24,21.63a7.7,7.7,0,0,0-3.48-1.82A7.71,7.71,0,0,1,22,17.42l1.12-1.22a7.88,7.88,0,0,1,11.1-.53L41.1,21.9Z"/><path class="cls-4" d="M51.41,41.89l-1.13,1.24a7.84,7.84,0,0,1-7.62,2.34,7.86,7.86,0,0,0-2-8.7l-3-2.75L37.57,34a1.33,1.33,0,0,1,.43-.79c1.34-1.29,3.52.44,4.87-.84s-.84-3,.5-4.3c1.08-1.05,2.73-.1,4-.41l3.49,3.17A7.89,7.89,0,0,1,51.41,41.89Z"/><path class="cls-4" d="M22.36,15.94A7.45,7.45,0,0,1,14.1,17.6a7.49,7.49,0,0,0-.66-4.28l.49,0s-1.35-5.45,5-4.7c0,0-1.25-6.52,2.62-3.75C25.23,7.48,25.19,12.92,22.36,15.94Z"/><path class="cls-4" d="M59.11,45.18c1.35,6.24-4.19,5.42-4.19,5.42.33,4.88-2.25,2.85-2.25,2.85a8.68,8.68,0,0,1-1.88-2.3c1.67-.12,3.56-.71,1.59-3a6.62,6.62,0,0,0-2.6-1.83,6.93,6.93,0,0,1,1.71-3.89c2.74-3.1,8.16-3.66,11.12-.24C65.73,45.81,59.11,45.18,59.11,45.18Z"/></g><g id="Shadow" class="cls-5"><g class="cls-6"><path d="M51.79,52.15c1.67-.12,3.56-.71,1.59-3a6.62,6.62,0,0,0-2.6-1.83,7.75,7.75,0,0,0-5.94.22q2.77,3.36,5.21,7a7.53,7.53,0,0,0-.17-2.41A12.09,12.09,0,0,0,51.79,52.15Z"/><path d="M14.83,19.87a7,7,0,0,0,.27-1.27,7.49,7.49,0,0,0-.66-4.28,6.6,6.6,0,0,0-2.12-2.51C8.45,9.05,9.7,15.57,9.7,15.57a8,8,0,0,0-.82-.05A45,45,0,0,1,14.83,19.87Z"/><path d="M16.5,21.29,27,30.34A172.52,172.52,0,0,1,41.83,44.12c.65.7,1.27,1.42,1.89,2.14a7.85,7.85,0,0,0-2.06-8.49l-3-2.75L38.57,35l-.68-.63-.18-.17-4-3.64-.91-.82-.67-.62-.25-.23L25,22.63a7.7,7.7,0,0,0-3.48-1.82A7.91,7.91,0,0,0,16.5,21.29Z"/></g><g class="cls-6"><path d="M54.88,41.68c1.24,1,2.51,2,3.82,3a24.57,24.57,0,0,0,2.36,1.54c1.71,0,4.91-.29,2.55-3A7.31,7.31,0,0,0,54.88,41.68Z"/><path d="M17.06,9.78l5.76,3.73,1.93,1.26a7.35,7.35,0,0,0-2.2-8.92C18.68,3.08,19.93,9.6,19.93,9.6A6.85,6.85,0,0,0,17.06,9.78Z"/><path d="M51.89,31.8,48.4,28.63l-.47-.42L42.3,23.08l-.2-.18-6.84-6.23a7.88,7.88,0,0,0-9.17-1c1.82,1.22,3.62,2.47,5.34,3.84A125.84,125.84,0,0,1,42.78,30.31c3.54,3.62,7.15,7.17,11,10.45A7.89,7.89,0,0,0,51.89,31.8Z"/></g></g></g></g></svg>