<svg xmlns="http://www.w3.org/2000/svg" viewBox="0 0 512 512"><title>Artboard 108</title><g id="Canned_Food" data-name="Canned Food"><path d="M469.33333,384c0-21.33333-21.33333-21.33333-21.33333-21.33333V341.33333s21.33333,0,21.33333-21.33333S448,298.66667,448,298.66667V277.33333H64v21.33334s-21.33333,0-21.33333,21.33333S64,341.33333,64,341.33333v21.33334s-21.33333,0-21.33333,21.33333S64,405.33333,64,405.33333v21.33334s-21.33333,0-21.33333,21.33333S64,469.33333,64,469.33333v21.33334H448V469.33333s21.33333,0,21.33333-21.33333S448,426.66667,448,426.66667V405.33333S469.33333,405.33333,469.33333,384Z" style="fill:#c11107"/><path d="M469.33333,320H192s0-21.33333,21.33333-21.33333H448C469.33333,298.66667,469.33333,320,469.33333,320Z" style="fill:#c82e25"/><path d="M469.33333,384H192s0-21.33333,21.33333-21.33333H448C469.33333,362.66667,469.33333,384,469.33333,384Z" style="fill:#c82e25"/><path d="M469.33333,448H192s0-21.33333,21.33333-21.33333H448C469.33333,426.66667,469.33333,448,469.33333,448Z" style="fill:#c82e25"/><rect x="298.66667" y="341.33333" width="149.33333" height="21.33333" style="fill:#af0a00"/><rect x="298.66667" y="405.33333" width="149.33333" height="21.33333" style="fill:#af0a00"/><rect x="149.33333" y="341.33333" width="213.33333" height="85.33333" style="fill:#f59707"/><ellipse cx="256" cy="160" rx="192" ry="138.66667" style="fill:#afa8a8"/><path d="M256,256c-89.33333,0-149.33333-49.63542-149.33333-96s60-96,149.33333-96V85.33333c-79.3125,0-128,43.48959-128,74.66667s48.6875,74.66667,128,74.66667Z" style="fill:#988f8f"/><path d="M256,298.66667V277.33333c94.10417,0,170.66667-52.63541,170.66667-117.33333S350.10417,42.66667,256,42.66667V21.33333c105.875,0,192,62.20834,192,138.66667S361.875,298.66667,256,298.66667Z" style="fill:#988f8f"/><path d="M256,277.33333C155.41667,277.33333,85.33333,215.5,85.33333,160S155.41667,42.66667,256,42.66667,426.66667,104.5,426.66667,160,356.58333,277.33333,256,277.33333ZM256,64c-85.47917,0-149.33333,50.6875-149.33333,96S170.52083,256,256,256s149.33333-50.6875,149.33333-96S341.47917,64,256,64Z" style="fill:#c5c0c0"/><path d="M125.33333,116.01042,109.125,102.15625c18.8125-22.02083,47.125-39.66667,79.75-49.6875l6.25,20.39583C166.35417,81.70833,141.5625,97.03125,125.33333,116.01042Z" style="fill:#edebeb"/><path d="M256,213.33333c-51.04167,0-85.33333-27.57291-85.33333-53.33333S204.95833,106.66667,256,106.66667,341.33333,134.23958,341.33333,160,307.04167,213.33333,256,213.33333ZM256,128c-39.0625,0-64,18.94792-64,32s24.9375,32,64,32,64-18.94792,64-32S295.0625,128,256,128Z" style="fill:#c5c0c0"/><path d="M192,160H170.66667c0-25.76042,34.29166-53.33333,85.33333-53.33333V128C216.9375,128,192,146.94792,192,160Z" style="fill:#edebeb"/><rect x="42.66667" y="469.33333" width="426.66667" height="21.33333" style="fill:#988f8f"/><rect x="42.66667" y="277.33333" width="426.66667" height="21.33333" style="fill:#988f8f"/><path d="M320,448c0-21.33333-21.33333-21.33333-21.33333-21.33333V405.33333S320,405.33333,320,384s-21.33333-21.33333-21.33333-21.33333V341.33333S320,341.33333,320,320s-21.33333-21.33333-21.33333-21.33333V277.33333H64v21.33334s-21.33333,0-21.33333,21.33333S64,341.33333,64,341.33333v21.33334s-21.33333,0-21.33333,21.33333S64,405.33333,64,405.33333v21.33334s-21.33333,0-21.33333,21.33333S64,469.33333,64,469.33333v21.33334H298.66667V469.33333S320,469.33333,320,448Z" style="fill:#cd3e36"/><path d="M320,384H42.66667s0-21.33333,21.33333-21.33333H298.66667C320,362.66667,320,384,320,384Z" style="fill:#d96c66"/><path d="M320,448H42.66667s0-21.33333,21.33333-21.33333H298.66667C320,426.66667,320,448,320,448Z" style="fill:#d96c66"/><path d="M320,320H42.66667s0-21.33333,21.33333-21.33333H298.66667C320,298.66667,320,320,320,320Z" style="fill:#d96c66"/><rect x="42.66667" y="469.33333" width="277.33333" height="21.33333" style="fill:#d5d1d1"/><rect x="42.66667" y="277.33333" width="277.33333" height="21.33333" style="fill:#d5d1d1"/><circle cx="256" cy="384" r="64" style="fill:#f59707"/><path d="M298.66667,362.66667V341.33333a29.45864,29.45864,0,0,0,4.26953-.55078,64.00057,64.00057,0,1,0,0,86.4349,29.45864,29.45864,0,0,0-4.26953-.55078V405.33333S320,405.33333,320,384,298.66667,362.66667,298.66667,362.66667Z" style="fill:#fdbc34"/><path d="M149.33333,341.33333v85.33334H298.66667V405.33333S320,405.33333,320,384s-21.33333-21.33333-21.33333-21.33333V341.33333Z" style="fill:#fdbc34"/><rect x="64" y="341.33333" width="85.33333" height="21.33333" style="fill:#c11107"/><rect x="64" y="405.33333" width="85.33333" height="21.33333" style="fill:#c11107"/><rect x="149.33333" y="341.33333" width="149.33333" height="21.33333" style="fill:#fdab00"/><rect x="298.66667" y="341.33333" width="64" height="21.33333" style="fill:#ef7f00"/><rect x="298.66667" y="405.33333" width="64" height="21.33333" style="fill:#ef7f00"/><rect x="149.33333" y="405.33333" width="149.33333" height="21.33333" style="fill:#fdab00"/><path d="M320,384H149.33333V362.66667H298.66667C320,362.66667,320,384,320,384Z" style="fill:#fdcf6d"/><rect x="149.33333" y="405.33333" width="149.33333" height="21.33333" style="fill:#fdcf6d"/><rect x="85.33333" y="298.66667" width="42.66667" height="21.33333" style="fill:#e59b96"/><rect x="85.33333" y="362.66667" width="42.66667" height="21.33333" style="fill:#e59b96"/><rect x="85.33333" y="426.66667" width="42.66667" height="21.33333" style="fill:#e59b96"/><rect x="362.66667" y="298.66667" width="42.66667" height="21.33333" style="fill:#cd3e36"/><rect x="362.66667" y="362.66667" width="42.66667" height="21.33333" style="fill:#cd3e36"/><rect x="362.66667" y="426.66667" width="42.66667" height="21.33333" style="fill:#cd3e36"/><path d="M256,192c-35.29167,0-64-14.35417-64-32s28.70833-32,64-32v21.33333c-22.45833,0-36.875,6.57292-41.54167,10.66667C219.125,164.09375,233.54167,170.66667,256,170.66667Z" style="fill:#988f8f"/></g></svg>