<svg xmlns="http://www.w3.org/2000/svg" viewBox="0 0 512 512"><title>Artboard 148</title><g id="Lettuce"><path d="M320,106.66667C320,64,362.66667,64,362.66667,64s0-42.66667,42.66666-42.66667S448,64,448,64s42.66667,0,42.66667,42.66667S448,149.33333,448,149.33333s-21.33333,0-21.33333,21.33334S448,192,448,192s42.66667,0,42.66667,42.66667-42.66667,42.66666-64,42.66666-21.33334,21.33334-21.33334,21.33334c0,42.66666-42.66666,42.66666-85.33333,42.66666,0,0-21.33333,0-42.66667,21.33334s-65.44816,58.83707-97.44816,90.83707c-16.62438,16.62439-36.48748,26.77135-54.54164,32.9647a78.28279,78.28279,0,0,1-80.70889-18.88189l-.00006-.00006c-24.48467-24.48468-30.73807-62.50216-13.6572-92.62263a131.414,131.414,0,0,1,20.90779-28.12678c32-32,97.44816-69.50375,118.7815-90.83708S192,213.33333,192,213.33333C192,192,170.66667,192,170.66667,192,149.33333,192,128,170.66667,128,149.33333s21.33333-42.66666,42.66667-42.66666c0,0,0-42.66667,42.66666-42.66667S256,106.66667,256,106.66667s0-21.33334,21.33333-21.33334,21.33334,21.33334,21.33334,21.33334Z" style="fill:#e0d4b7"/><path d="M100.16667,490.66667A79.172,79.172,0,0,1,44.625,467.59375l30.16667-30.1875A36.24633,36.24633,0,0,0,111.5,446.11458c15.60417-5.36458,28.45833-13.03125,38.20833-22.78125,18.60417-18.60416,41.3125-39.16666,59.58334-55.69791l2.125-1.91667c14.16666-12.84375,26.97916-24.44792,35.75-33.21875l30.16666,30.16667c-9.14583,9.14583-22.5,21.27083-37.27083,34.66666l-2.125,1.92709C220,415.47917,197.72917,435.64583,179.875,453.5c-14.35417,14.375-32.70833,25.46875-54.52083,32.96875A77.44917,77.44917,0,0,1,100.16667,490.66667Z" style="fill:#d4c3a2"/><path d="M448,192s-21.33333,0-21.33333-21.33333S448,149.33333,448,149.33333s42.66667,0,42.66667-42.66666S448,64,448,64s0-42.66667-42.66667-42.66667S362.66667,64,362.66667,64,320,64,320,106.66667H298.66667s0-21.33334-21.33334-21.33334S256,106.66667,256,106.66667,256,64,213.33333,64s-42.66666,42.66667-42.66666,42.66667C149.33333,106.66667,128,128,128,149.33333S149.33333,192,170.66667,192c0,0,21.33333,0,21.33333,21.33333,0,0,0,21.33334-21.33333,42.66667-5.08746,5.08745-12.72064,11.11763-21.80535,17.77017-6.72625,4.92548-14.2482,10.19214-22.12174,15.66993A60.249,60.249,0,0,1,128,298.66667c0,42.66666,42.66667,42.66666,42.66667,42.66666,55.70833,0,62.918,48.45443,63.85286,61.01953C251.46224,387,267.0599,372.9401,277.33333,362.66667,298.66667,341.33333,320,341.33333,320,341.33333c42.66667,0,85.33333,0,85.33333-42.66666,0,0,0-21.33334,21.33334-21.33334s64,0,64-42.66666S448,192,448,192Z" style="fill:#eae2ce"/><path d="M231.54167,231.54167l-15.08334-15.08334L237.79167,195.125c17.60416-17.61458,18.1875-34.53125,18.20833-35.23958L277.33333,160c0,1.05208-.27083,26.03125-24.45833,50.20833Z" style="fill:#d4c3a2"/><path d="M184.66667,335.94792l-13.25-16.70834c85.77083-68.14583,206.91666-162.3125,206.91666-162.3125a78.18,78.18,0,0,0,27-59.25V64h21.33334V97.67708A99.7,99.7,0,0,1,391.8125,173.4375C391.41667,173.77083,270.39583,267.86458,184.66667,335.94792Z" style="fill:#d4c3a2"/><path d="M85.33333,458.66667H64c0-22.07292,0-47.08334,24.45833-71.54167,6.54167-6.55208,33.6875-28.76042,82.95834-67.88542l13.25,16.70834c-59.70834,47.42708-77.08334,62.20833-81.125,66.26041C85.33333,420.41667,85.33333,438.14583,85.33333,458.66667Z" style="fill:#c5af83"/><path d="M213.33333,213.33333H192C192,192.23958,170.875,192,170.66667,192,149.125,192,128,170.86458,128,149.33333h21.33333c0,9.57292,11.77084,21.33334,21.33334,21.33334C191.35417,170.66667,213.33333,185.625,213.33333,213.33333Z" style="fill:#e0d4b7"/><path d="M248.66667,389.51042l-14.33334-15.79167c11-10,20.77084-19,27.91667-26.13542C289.0625,320.77083,316.91667,320,320,320c55.16667,0,64-5.0625,64-21.33333C384,277.97917,398.95833,256,426.66667,256c39.60416,0,42.66666-8.84375,42.66666-21.33333,0-18.34375-13.4375-21.23959-21.45833-21.33334-20.5625,0-42.54167-14.95833-42.54167-42.66666S427.29167,128,447.9375,128c7.91667-.09375,21.39583-2.98958,21.39583-21.33333S455.89583,85.42708,447.875,85.33333l-20.95833-.125-.25-21.02083c-.08334-8.04167-2.97917-21.52083-21.33334-21.52083V21.33333c29.125,0,42.41667,21.39584,42.66667,42.60417l.0625.0625c21.22917.25,42.60417,13.54167,42.60417,42.66667s-21.39584,42.41666-42.60417,42.66666c-.33333,0-21.39583.23959-21.39583,21.33334S447.79167,192,448,192c21.29167.25,42.66667,13.54167,42.66667,42.66667,0,42.66666-43.22917,42.66666-64,42.66666-21.08334,0-21.33334,21.125-21.33334,21.33334,0,42.66666-43.375,42.66666-85.33333,42.66666-.85417.01042-21.75.42709-42.66667,21.33334C270.02083,369.98958,259.95833,379.23958,248.66667,389.51042Z" style="fill:#e0d4b7"/><path d="M341.33333,106.66667H320C320,77.54167,341.39583,64.25,362.60417,64l.25,21.33333C354.8125,85.42708,341.33333,88.32292,341.33333,106.66667Z" style="fill:#e0d4b7"/><path d="M277.33333,107.0625,256,106.38542c.33333-12.79167,8.70833-21.05209,21.33333-21.05209s21,8.3125,21.33334,21.1875Z" style="fill:#e0d4b7"/><path d="M234.66667,106.85417c-.08334-8.04167-2.97917-21.52084-21.33334-21.52084V64C242.45833,64,255.75,85.39583,256,106.60417Z" style="fill:#e0d4b7"/><path d="M64,458.66667H42.66667c0-22.07292,0-47.08334,24.45833-71.54167C88.6875,365.57292,346.04167,165.42708,357,156.92708a78.18,78.18,0,0,0,27-59.25V64h21.33333V97.67708a99.7,99.7,0,0,1-34.85416,75.76042c-92.75,72.125-271.77084,212.27083-288.27084,228.77083C64,420.41667,64,438.14583,64,458.66667Z" style="fill:#f3eee3"/><path d="M64,458.66667H42.66667c0-22.07292,0-47.08334,24.45833-71.54167,6.16667-6.17708,30.27083-25.97917,73.6875-60.53125l13.29167,16.6875C101.5625,385.10417,86,398.41667,82.20833,402.20833,64,420.41667,64,438.14583,64,458.66667Z" style="fill:#eae2ce"/><path d="M210.20833,231.54167,195.125,216.45833,216.45833,195.125c17.60417-17.61458,18.1875-34.53125,18.20834-35.23958-.0625-5.17709-1.89584-31.88542-32-31.88542H192V106.66667h10.66667C244.85417,106.66667,256,141.55208,256,160c0,1.05208-.27083,26.03125-24.45833,50.20833Z" style="fill:#f3eee3"/><path d="M123.875,424.41667l-13.08333-16.83334C177.02083,356.07292,306.625,254.29167,323.125,237.79167c24.1875-24.17709,69.625-24.45834,71.54167-24.45834H448v21.33334H394.66667c-.375,0-38.5625.3125-56.45834,18.20833C316.64583,274.42708,131.75,418.30208,123.875,424.41667Z" style="fill:#f3eee3"/><path d="M222.60417,368.375l-13.20834-16.75C292.72917,285.82292,317.25,265,323.125,259.125c24.1875-24.17708,69.625-24.45833,71.54167-24.45833H448V256H394.66667c-.375,0-38.5625.3125-56.45834,18.20833C329.0625,283.35417,290.16667,315.03125,222.60417,368.375Z" style="fill:#d4c3a2"/><path d="M123.875,424.41667l-13.08333-16.83334c0-.01041,40.22916-31.29166,85.85416-67.23958l13.20834,16.75C164.16667,393.09375,123.875,424.41667,123.875,424.41667Z" style="fill:#eae2ce"/><path d="M295.95833,231.47917l-15.22916-14.94792c5-5.10417,17.9375-21.39583,17.9375-35.19792,0-13.76041-13.14584-30.03125-18.22917-35.13541L295.54167,131.125c2.5,2.5,24.45833,25.17708,24.45833,50.20833C320,206.3125,298.41667,228.97917,295.95833,231.47917Z" style="fill:#f3eee3"/><path d="M123.875,445.75l-13.08333-16.83333c0-.01042,47.97916-37.32292,98.60416-77.29167l13.20834,16.75C171.91667,408.39583,123.875,445.75,123.875,445.75Z" style="fill:#c5af83"/></g></svg>